M48
;Layer_Color=9474304
;FILE_FORMAT=2:5
INCH,LZ
;TYPE=PLATED
T1F00S00C0.03150
T2F00S00C0.03346
T3F00S00C0.03543
T4F00S00C0.04724
%
T01
X01519Y0060654
X01469Y00665
X01519Y0072347
X02053Y0069247
X02003Y00634
X02053Y0057553
X02749Y0060553
X02699Y00664
X02749Y0072246
T02
X0108163Y0090537
X0118163
X0128163
X01356Y01211
Y0128974
X0144326Y01514
X01522
X0167726Y01626
X01756
T03
X01385Y0023
X01521Y00355
Y00455
X00521Y0112024
Y0122024
Y0132024
Y0142024
X00335Y01424
Y01324
Y01553
Y01653
X00821Y0142024
Y0132024
Y0122024
Y0112024
X01185Y01098
X0116734Y0149
X01801Y01406
X01901
X02001
X02101
Y01106
X02001
X01901
X01801
X01947Y00954
X02388Y00752
X02358Y01219
X02556Y0124524
Y0114524
Y0134524
Y0144524
X02856
Y0134524
Y0124524
Y0114524
X0291Y01583
X02354Y01693
X02973Y00546
T04
X00217Y0033687
Y0053372
Y0073058
Y0092743
Y0112428
M30
