G04 Layer_Color=32896*
%FSLAX43Y43*%
%MOMM*%
G71*
G01*
G75*
%ADD24C,0.254*%
%ADD25C,0.100*%
%ADD26R,0.232X2.616*%
D24*
X22328Y19812D02*
G03*
X22328Y19812I-1500J0D01*
G01*
X22201Y14351D02*
G03*
X22201Y14351I-1500J0D01*
G01*
X16002Y13589D02*
Y15113D01*
X16764D01*
X17018Y14859D01*
Y13843D01*
X16764Y13589D01*
X16002D01*
X18541Y15113D02*
X17526D01*
X18541Y14097D01*
Y13843D01*
X18287Y13589D01*
X17779D01*
X17526Y13843D01*
X18288Y20447D02*
Y18923D01*
X17526D01*
X17272Y19177D01*
Y20193D01*
X17526Y20447D01*
X18288D01*
X16764Y18923D02*
X16257D01*
X16511D01*
Y20447D01*
X16764Y20193D01*
X0Y0D02*
X508D01*
X0D02*
Y29238D01*
X100000D01*
Y0D02*
Y29238D01*
X508Y0D02*
X100000D01*
D25*
X30011Y16001D02*
G03*
X30011Y16001I-500J0D01*
G01*
X77923Y16764D02*
G03*
X77923Y16764I-2485J0D01*
G01*
X73827Y14329D02*
G03*
X73000Y15157I1611J2435D01*
G01*
X64588Y16852D02*
G03*
X64588Y16852I-2485J0D01*
G01*
X60492Y14417D02*
G03*
X59665Y15245I1611J2435D01*
G01*
X91461Y12090D02*
G03*
X91461Y12090I-2485J0D01*
G01*
X86541Y13702D02*
G03*
X87369Y14528I2435J-1611D01*
G01*
X43774Y9355D02*
X45124D01*
X43774Y11555D02*
X45124D01*
X43774Y9355D02*
Y11555D01*
X45124Y9355D02*
Y11555D01*
X40599Y9355D02*
X41949D01*
X40599Y11555D02*
X41949D01*
X40599Y9355D02*
Y11555D01*
X41949Y9355D02*
Y11555D01*
X37755D02*
X39205D01*
X37755Y9355D02*
X39205D01*
Y11555D01*
X37755Y9355D02*
Y11555D01*
X50029Y7039D02*
X51379D01*
X50029Y9239D02*
X51379D01*
X50029Y7039D02*
Y9239D01*
X51379Y7039D02*
Y9239D01*
X38949Y16003D02*
X40299D01*
X38949Y18203D02*
X40299D01*
X38949Y16003D02*
Y18203D01*
X40299Y16003D02*
Y18203D01*
X35139Y22810D02*
X36489D01*
X35139Y25010D02*
X36489D01*
X35139Y22810D02*
Y25010D01*
X36489Y22810D02*
Y25010D01*
X35698Y16003D02*
X37048D01*
X35698Y18203D02*
X37048D01*
X35698Y16003D02*
Y18203D01*
X37048Y16003D02*
Y18203D01*
X40804Y25010D02*
X42254D01*
X40804Y22810D02*
X42254D01*
Y25010D01*
X40804Y22810D02*
Y25010D01*
X27265Y8264D02*
X28615D01*
X27265Y10464D02*
X28615D01*
X27265Y8264D02*
Y10464D01*
X28615Y8264D02*
Y10464D01*
X25500Y7884D02*
Y9334D01*
X23300Y7884D02*
Y9334D01*
Y7884D02*
X25500D01*
X23300Y9334D02*
X25500D01*
X19976Y8409D02*
X21426D01*
X19976Y10609D02*
X21426D01*
X19976Y8409D02*
Y10609D01*
X21426Y8409D02*
Y10609D01*
X28611Y11801D02*
Y16901D01*
X33111Y11801D02*
Y16901D01*
X28611D02*
X33111D01*
X28611Y11801D02*
X33111D01*
X23786Y15156D02*
X25236D01*
X23786Y17356D02*
X25236D01*
X23786Y15156D02*
Y17356D01*
X25236Y15156D02*
Y17356D01*
X89876Y24502D02*
X91226D01*
X89876Y22302D02*
X91226D01*
Y24502D01*
X89876Y22302D02*
Y24502D01*
X61555D02*
X62905D01*
X61555Y22302D02*
X62905D01*
Y24502D01*
X61555Y22302D02*
Y24502D01*
X80332Y17334D02*
Y18684D01*
X82532Y17334D02*
Y18684D01*
X80332D02*
X82532D01*
X80332Y17334D02*
X82532D01*
X69283Y21777D02*
Y23227D01*
X67083Y21777D02*
Y23227D01*
Y21777D02*
X69283D01*
X67083Y23227D02*
X69283D01*
X54010Y6514D02*
Y7964D01*
X56210Y6514D02*
Y7964D01*
X54010D02*
X56210D01*
X54010Y6514D02*
X56210D01*
X64974Y3008D02*
Y4358D01*
X67174Y3008D02*
Y4358D01*
X64974D02*
X67174D01*
X64974Y3008D02*
X67174D01*
X59564Y6514D02*
Y7864D01*
X61764Y6514D02*
Y7864D01*
X59564D02*
X61764D01*
X59564Y6514D02*
X61764D01*
X26475Y23074D02*
Y24424D01*
X28675Y23074D02*
Y24424D01*
X26475D02*
X28675D01*
X26475Y23074D02*
X28675D01*
X37933Y25010D02*
X39283D01*
X37933Y22810D02*
X39283D01*
Y25010D01*
X37933Y22810D02*
Y25010D01*
X30387Y18858D02*
Y20208D01*
X32587Y18858D02*
Y20208D01*
X30387D02*
X32587D01*
X30387Y18858D02*
X32587D01*
X56219Y2330D02*
X60519D01*
Y4935D01*
X56219Y2330D02*
Y4935D01*
X60519D01*
X95925Y16625D02*
Y18725D01*
X94575Y16625D02*
Y18725D01*
X95925D01*
X94575Y16625D02*
X95925D01*
X76922Y24502D02*
X78272D01*
X76922Y22302D02*
X78272D01*
Y24502D01*
X76922Y22302D02*
Y24502D01*
X73747D02*
X75097D01*
X73747Y22302D02*
X75097D01*
Y24502D01*
X73747Y22302D02*
Y24502D01*
X72972Y13474D02*
X73827Y14329D01*
X72145Y14301D02*
X72972Y13474D01*
X72145Y14301D02*
X73000Y15157D01*
X59637Y13562D02*
X60492Y14417D01*
X58810Y14389D02*
X59637Y13562D01*
X58810Y14389D02*
X59665Y15245D01*
X67083Y17359D02*
Y18709D01*
X69283Y17359D02*
Y18709D01*
X67083D02*
X69283D01*
X67083Y17359D02*
X69283D01*
X85686Y14557D02*
X86542Y13701D01*
X85686Y14557D02*
X86513Y15384D01*
X87369Y14528D01*
D26*
X60372Y3620D02*
D03*
M02*
