G04 Layer_Color=8421504*
%FSLAX43Y43*%
%MOMM*%
G71*
G01*
G75*
G04:AMPARAMS|DCode=10|XSize=3.5mm|YSize=2.05mm|CornerRadius=0.512mm|HoleSize=0mm|Usage=FLASHONLY|Rotation=0.000|XOffset=0mm|YOffset=0mm|HoleType=Round|Shape=RoundedRectangle|*
%AMROUNDEDRECTD10*
21,1,3.500,1.025,0,0,0.0*
21,1,2.475,2.050,0,0,0.0*
1,1,1.025,1.238,-0.512*
1,1,1.025,-1.238,-0.512*
1,1,1.025,-1.238,0.512*
1,1,1.025,1.238,0.512*
%
%ADD10ROUNDEDRECTD10*%
G04:AMPARAMS|DCode=11|XSize=4mm|YSize=2.05mm|CornerRadius=0.512mm|HoleSize=0mm|Usage=FLASHONLY|Rotation=0.000|XOffset=0mm|YOffset=0mm|HoleType=Round|Shape=RoundedRectangle|*
%AMROUNDEDRECTD11*
21,1,4.000,1.025,0,0,0.0*
21,1,2.975,2.050,0,0,0.0*
1,1,1.025,1.488,-0.512*
1,1,1.025,-1.488,-0.512*
1,1,1.025,-1.488,0.512*
1,1,1.025,1.488,0.512*
%
%ADD11ROUNDEDRECTD11*%
G04:AMPARAMS|DCode=12|XSize=3.5mm|YSize=2.05mm|CornerRadius=0.512mm|HoleSize=0mm|Usage=FLASHONLY|Rotation=0.000|XOffset=0mm|YOffset=0mm|HoleType=Round|Shape=RoundedRectangle|*
%AMROUNDEDRECTD12*
21,1,3.500,1.025,0,0,0.0*
21,1,2.475,2.050,0,0,0.0*
1,1,1.025,1.238,-0.512*
1,1,1.025,-1.238,-0.512*
1,1,1.025,-1.238,0.512*
1,1,1.025,1.238,0.512*
%
%ADD12ROUNDEDRECTD12*%
G04:AMPARAMS|DCode=13|XSize=2.8mm|YSize=0.5mm|CornerRadius=0.125mm|HoleSize=0mm|Usage=FLASHONLY|Rotation=0.000|XOffset=0mm|YOffset=0mm|HoleType=Round|Shape=RoundedRectangle|*
%AMROUNDEDRECTD13*
21,1,2.800,0.250,0,0,0.0*
21,1,2.550,0.500,0,0,0.0*
1,1,0.250,1.275,-0.125*
1,1,0.250,-1.275,-0.125*
1,1,0.250,-1.275,0.125*
1,1,0.250,1.275,0.125*
%
%ADD13ROUNDEDRECTD13*%
%ADD14R,1.500X1.250*%
%ADD15R,1.550X1.350*%
%ADD16R,1.350X1.550*%
%ADD17O,1.250X0.350*%
%ADD18R,1.250X1.500*%
%ADD19R,2.500X1.700*%
%ADD20R,1.200X1.100*%
%ADD24C,0.254*%
%ADD25C,0.100*%
%ADD26R,0.232X2.616*%
D10*
X4076Y13607D02*
D03*
D11*
X8326D02*
D03*
Y23457D02*
D03*
D12*
X4076D02*
D03*
D13*
X4101Y17732D02*
D03*
Y16932D02*
D03*
Y19332D02*
D03*
Y20132D02*
D03*
Y18532D02*
D03*
D14*
X44449Y9405D02*
D03*
Y11505D02*
D03*
X41274Y9405D02*
D03*
Y11505D02*
D03*
X50704Y7089D02*
D03*
Y9189D02*
D03*
X39624Y16053D02*
D03*
Y18153D02*
D03*
X35814Y22860D02*
D03*
Y24960D02*
D03*
X36373Y16053D02*
D03*
Y18153D02*
D03*
X27940Y8314D02*
D03*
Y10414D02*
D03*
X90551Y24452D02*
D03*
Y22352D02*
D03*
X62230Y24452D02*
D03*
Y22352D02*
D03*
X38608Y24960D02*
D03*
Y22860D02*
D03*
X77597Y24452D02*
D03*
Y22352D02*
D03*
X74422Y24452D02*
D03*
Y22352D02*
D03*
D15*
X38480Y11455D02*
D03*
Y9455D02*
D03*
X41529Y24910D02*
D03*
Y22910D02*
D03*
X20701Y8509D02*
D03*
Y10509D02*
D03*
X24511Y15256D02*
D03*
Y17256D02*
D03*
D16*
X25400Y8609D02*
D03*
X23400D02*
D03*
X69183Y22502D02*
D03*
X67183D02*
D03*
X54110Y7239D02*
D03*
X56110D02*
D03*
D17*
X28036Y16301D02*
D03*
Y15651D02*
D03*
Y15001D02*
D03*
Y14351D02*
D03*
Y13701D02*
D03*
Y13051D02*
D03*
Y12401D02*
D03*
X33686Y16301D02*
D03*
Y15651D02*
D03*
Y15001D02*
D03*
Y14351D02*
D03*
Y13701D02*
D03*
Y13051D02*
D03*
Y12401D02*
D03*
D18*
X80382Y18009D02*
D03*
X82482D02*
D03*
X65024Y3683D02*
D03*
X67124D02*
D03*
X59614Y7189D02*
D03*
X61714D02*
D03*
X26525Y23749D02*
D03*
X28625D02*
D03*
X30437Y19533D02*
D03*
X32537D02*
D03*
X67133Y18034D02*
D03*
X69233D02*
D03*
D19*
X60369Y3632D02*
D03*
X56369D02*
D03*
D20*
X95250Y18725D02*
D03*
Y16625D02*
D03*
D24*
X0Y0D02*
X508D01*
X0D02*
Y29238D01*
X100000D01*
Y0D02*
Y29238D01*
X508Y0D02*
X100000D01*
D25*
X30011Y16001D02*
G03*
X30011Y16001I-500J0D01*
G01*
X77923Y16764D02*
G03*
X77923Y16764I-2485J0D01*
G01*
X73827Y14329D02*
G03*
X73000Y15157I1611J2435D01*
G01*
X64588Y16852D02*
G03*
X64588Y16852I-2485J0D01*
G01*
X60492Y14417D02*
G03*
X59665Y15245I1611J2435D01*
G01*
X91461Y12090D02*
G03*
X91461Y12090I-2485J0D01*
G01*
X86541Y13702D02*
G03*
X87369Y14528I2435J-1611D01*
G01*
X43774Y9355D02*
X45124D01*
X43774Y11555D02*
X45124D01*
X43774Y9355D02*
Y11555D01*
X45124Y9355D02*
Y11555D01*
X40599Y9355D02*
X41949D01*
X40599Y11555D02*
X41949D01*
X40599Y9355D02*
Y11555D01*
X41949Y9355D02*
Y11555D01*
X37755D02*
X39205D01*
X37755Y9355D02*
X39205D01*
Y11555D01*
X37755Y9355D02*
Y11555D01*
X50029Y7039D02*
X51379D01*
X50029Y9239D02*
X51379D01*
X50029Y7039D02*
Y9239D01*
X51379Y7039D02*
Y9239D01*
X38949Y16003D02*
X40299D01*
X38949Y18203D02*
X40299D01*
X38949Y16003D02*
Y18203D01*
X40299Y16003D02*
Y18203D01*
X35139Y22810D02*
X36489D01*
X35139Y25010D02*
X36489D01*
X35139Y22810D02*
Y25010D01*
X36489Y22810D02*
Y25010D01*
X35698Y16003D02*
X37048D01*
X35698Y18203D02*
X37048D01*
X35698Y16003D02*
Y18203D01*
X37048Y16003D02*
Y18203D01*
X40804Y25010D02*
X42254D01*
X40804Y22810D02*
X42254D01*
Y25010D01*
X40804Y22810D02*
Y25010D01*
X27265Y8264D02*
X28615D01*
X27265Y10464D02*
X28615D01*
X27265Y8264D02*
Y10464D01*
X28615Y8264D02*
Y10464D01*
X25500Y7884D02*
Y9334D01*
X23300Y7884D02*
Y9334D01*
Y7884D02*
X25500D01*
X23300Y9334D02*
X25500D01*
X19976Y8409D02*
X21426D01*
X19976Y10609D02*
X21426D01*
X19976Y8409D02*
Y10609D01*
X21426Y8409D02*
Y10609D01*
X28611Y11801D02*
Y16901D01*
X33111Y11801D02*
Y16901D01*
X28611D02*
X33111D01*
X28611Y11801D02*
X33111D01*
X23786Y15156D02*
X25236D01*
X23786Y17356D02*
X25236D01*
X23786Y15156D02*
Y17356D01*
X25236Y15156D02*
Y17356D01*
X89876Y24502D02*
X91226D01*
X89876Y22302D02*
X91226D01*
Y24502D01*
X89876Y22302D02*
Y24502D01*
X61555D02*
X62905D01*
X61555Y22302D02*
X62905D01*
Y24502D01*
X61555Y22302D02*
Y24502D01*
X80332Y17334D02*
Y18684D01*
X82532Y17334D02*
Y18684D01*
X80332D02*
X82532D01*
X80332Y17334D02*
X82532D01*
X69283Y21777D02*
Y23227D01*
X67083Y21777D02*
Y23227D01*
Y21777D02*
X69283D01*
X67083Y23227D02*
X69283D01*
X54010Y6514D02*
Y7964D01*
X56210Y6514D02*
Y7964D01*
X54010D02*
X56210D01*
X54010Y6514D02*
X56210D01*
X64974Y3008D02*
Y4358D01*
X67174Y3008D02*
Y4358D01*
X64974D02*
X67174D01*
X64974Y3008D02*
X67174D01*
X59564Y6514D02*
Y7864D01*
X61764Y6514D02*
Y7864D01*
X59564D02*
X61764D01*
X59564Y6514D02*
X61764D01*
X26475Y23074D02*
Y24424D01*
X28675Y23074D02*
Y24424D01*
X26475D02*
X28675D01*
X26475Y23074D02*
X28675D01*
X37933Y25010D02*
X39283D01*
X37933Y22810D02*
X39283D01*
Y25010D01*
X37933Y22810D02*
Y25010D01*
X30387Y18858D02*
Y20208D01*
X32587Y18858D02*
Y20208D01*
X30387D02*
X32587D01*
X30387Y18858D02*
X32587D01*
X56219Y2330D02*
X60519D01*
Y4935D01*
X56219Y2330D02*
Y4935D01*
X60519D01*
X95925Y16625D02*
Y18725D01*
X94575Y16625D02*
Y18725D01*
X95925D01*
X94575Y16625D02*
X95925D01*
X76922Y24502D02*
X78272D01*
X76922Y22302D02*
X78272D01*
Y24502D01*
X76922Y22302D02*
Y24502D01*
X73747D02*
X75097D01*
X73747Y22302D02*
X75097D01*
Y24502D01*
X73747Y22302D02*
Y24502D01*
X72972Y13474D02*
X73827Y14329D01*
X72145Y14301D02*
X72972Y13474D01*
X72145Y14301D02*
X73000Y15157D01*
X59637Y13562D02*
X60492Y14417D01*
X58810Y14389D02*
X59637Y13562D01*
X58810Y14389D02*
X59665Y15245D01*
X67083Y17359D02*
Y18709D01*
X69283Y17359D02*
Y18709D01*
X67083D02*
X69283D01*
X67083Y17359D02*
X69283D01*
X85686Y14557D02*
X86542Y13701D01*
X85686Y14557D02*
X86513Y15384D01*
X87369Y14528D01*
D26*
X60372Y3620D02*
D03*
M02*
