G04 Layer_Physical_Order=1*
G04 Layer_Color=255*
%FSLAX43Y43*%
%MOMM*%
G71*
G01*
G75*
%ADD10R,1.500X1.250*%
%ADD11R,1.350X1.550*%
%ADD12R,1.250X1.500*%
G04:AMPARAMS|DCode=13|XSize=2.8mm|YSize=0.5mm|CornerRadius=0.125mm|HoleSize=0mm|Usage=FLASHONLY|Rotation=180.000|XOffset=0mm|YOffset=0mm|HoleType=Round|Shape=RoundedRectangle|*
%AMROUNDEDRECTD13*
21,1,2.800,0.250,0,0,180.0*
21,1,2.550,0.500,0,0,180.0*
1,1,0.250,-1.275,0.125*
1,1,0.250,1.275,0.125*
1,1,0.250,1.275,-0.125*
1,1,0.250,-1.275,-0.125*
%
%ADD13ROUNDEDRECTD13*%
G04:AMPARAMS|DCode=14|XSize=3.5mm|YSize=2.05mm|CornerRadius=0.512mm|HoleSize=0mm|Usage=FLASHONLY|Rotation=180.000|XOffset=0mm|YOffset=0mm|HoleType=Round|Shape=RoundedRectangle|*
%AMROUNDEDRECTD14*
21,1,3.500,1.025,0,0,180.0*
21,1,2.475,2.050,0,0,180.0*
1,1,1.025,-1.238,0.512*
1,1,1.025,1.238,0.512*
1,1,1.025,1.238,-0.512*
1,1,1.025,-1.238,-0.512*
%
%ADD14ROUNDEDRECTD14*%
G04:AMPARAMS|DCode=15|XSize=4mm|YSize=2.05mm|CornerRadius=0.512mm|HoleSize=0mm|Usage=FLASHONLY|Rotation=180.000|XOffset=0mm|YOffset=0mm|HoleType=Round|Shape=RoundedRectangle|*
%AMROUNDEDRECTD15*
21,1,4.000,1.025,0,0,180.0*
21,1,2.975,2.050,0,0,180.0*
1,1,1.025,-1.488,0.512*
1,1,1.025,1.488,0.512*
1,1,1.025,1.488,-0.512*
1,1,1.025,-1.488,-0.512*
%
%ADD15ROUNDEDRECTD15*%
G04:AMPARAMS|DCode=16|XSize=3.5mm|YSize=2.05mm|CornerRadius=0.512mm|HoleSize=0mm|Usage=FLASHONLY|Rotation=180.000|XOffset=0mm|YOffset=0mm|HoleType=Round|Shape=RoundedRectangle|*
%AMROUNDEDRECTD16*
21,1,3.500,1.025,0,0,180.0*
21,1,2.475,2.050,0,0,180.0*
1,1,1.025,-1.238,0.512*
1,1,1.025,1.238,0.512*
1,1,1.025,1.238,-0.512*
1,1,1.025,-1.238,-0.512*
%
%ADD16ROUNDEDRECTD16*%
%ADD17R,1.200X1.100*%
%ADD18R,2.500X1.700*%
%ADD19R,1.550X1.350*%
%ADD20O,1.250X0.350*%
%ADD21C,0.381*%
%ADD22C,0.254*%
%ADD23C,0.762*%
%ADD24C,0.305*%
%ADD25C,0.900*%
%ADD26C,1.524*%
%ADD27C,1.300*%
%ADD28C,1.270*%
D10*
X62230Y22352D02*
D03*
Y24452D02*
D03*
X74422Y22352D02*
D03*
Y24452D02*
D03*
X77597Y22352D02*
D03*
Y24452D02*
D03*
X38608Y22860D02*
D03*
Y24960D02*
D03*
X90551Y22352D02*
D03*
Y24452D02*
D03*
X27940Y10414D02*
D03*
Y8314D02*
D03*
X36373Y18153D02*
D03*
Y16053D02*
D03*
X35814Y24960D02*
D03*
Y22860D02*
D03*
X39624Y18153D02*
D03*
Y16053D02*
D03*
X50704Y9189D02*
D03*
Y7089D02*
D03*
X41274Y11505D02*
D03*
Y9405D02*
D03*
X44449Y11505D02*
D03*
Y9405D02*
D03*
D11*
X67183Y22502D02*
D03*
X69183D02*
D03*
X56110Y7239D02*
D03*
X54110D02*
D03*
X23400Y8609D02*
D03*
X25400D02*
D03*
D12*
X67124Y3683D02*
D03*
X65024D02*
D03*
X61714Y7189D02*
D03*
X59614D02*
D03*
X69233Y18034D02*
D03*
X67133D02*
D03*
X32537Y19533D02*
D03*
X30437D02*
D03*
X28625Y23749D02*
D03*
X26525D02*
D03*
X82482Y18009D02*
D03*
X80382D02*
D03*
D13*
X9310Y15732D02*
D03*
Y14132D02*
D03*
Y14932D02*
D03*
Y17332D02*
D03*
Y16532D02*
D03*
D14*
X9335Y10807D02*
D03*
D15*
X5085D02*
D03*
Y20657D02*
D03*
D16*
X9335D02*
D03*
D17*
X95250Y16625D02*
D03*
Y18725D02*
D03*
D18*
X56369Y3632D02*
D03*
X60369D02*
D03*
D19*
X24511Y17256D02*
D03*
Y15256D02*
D03*
X20701Y10509D02*
D03*
Y8509D02*
D03*
X41529Y22910D02*
D03*
Y24910D02*
D03*
X38480Y9455D02*
D03*
Y11455D02*
D03*
D20*
X33686Y12401D02*
D03*
Y13051D02*
D03*
Y13701D02*
D03*
Y14351D02*
D03*
Y15001D02*
D03*
Y15651D02*
D03*
Y16301D02*
D03*
X28036Y12401D02*
D03*
Y13051D02*
D03*
Y13701D02*
D03*
Y14351D02*
D03*
Y15001D02*
D03*
Y15651D02*
D03*
Y16301D02*
D03*
D21*
X24402Y17336D02*
X24511Y17227D01*
X8763Y17336D02*
X24402D01*
X74343Y17604D02*
Y22352D01*
X41274Y11505D02*
Y13335D01*
X38480Y11505D02*
X41274D01*
X20701Y15621D02*
X24511D01*
X20828Y20955D02*
X23622Y23749D01*
X30353Y11176D02*
Y21082D01*
X29591Y10414D02*
X30353Y11176D01*
Y21082D02*
X32131Y22860D01*
X61714Y9644D02*
X61722Y9652D01*
X61714Y7189D02*
Y9644D01*
X24511Y14224D02*
Y15256D01*
Y15621D01*
X41274Y13335D02*
X41275D01*
X38480Y11455D02*
Y11505D01*
X38608Y24960D02*
Y26543D01*
X28625Y19862D02*
Y23749D01*
X28036Y19273D02*
X28625Y19862D01*
X28036Y16301D02*
Y19273D01*
Y15651D02*
Y16301D01*
Y15001D02*
Y15651D01*
Y14351D02*
Y15001D01*
X69333Y22352D02*
X74343D01*
X74422D01*
X74343Y17604D02*
X75184Y16764D01*
X76708D01*
X69233Y18034D02*
X71501D01*
X60369Y3632D02*
X60420Y3683D01*
X65024D01*
X67124Y12106D02*
X67133Y12115D01*
X67124Y3683D02*
Y12106D01*
X32131Y22860D02*
X35814D01*
X24511Y17256D02*
X25848D01*
X26803Y16301D01*
X50704Y11557D02*
Y11932D01*
Y9189D02*
Y11557D01*
X39624Y16053D02*
X42037D01*
X26803Y16301D02*
X28036D01*
X67133Y12115D02*
Y18034D01*
X82482Y18009D02*
X84760D01*
X88976Y13792D01*
Y10820D02*
Y13792D01*
X90500Y16688D02*
X90563Y16625D01*
X90424Y16764D02*
X90500Y16688D01*
Y12102D02*
Y16688D01*
X90424Y19304D02*
X92583D01*
X93162Y18725D01*
X95250D01*
X90563Y16625D02*
X95250D01*
X90424Y22225D02*
X90551Y22352D01*
X90424Y19304D02*
Y22225D01*
X77597Y24452D02*
X90551D01*
X80142Y18249D02*
X80382Y18009D01*
X75438Y18249D02*
X80142D01*
X77597Y20408D02*
Y22352D01*
X75438Y18249D02*
X77597Y20408D01*
X75223Y18034D02*
X75438Y18249D01*
X64555Y18034D02*
X67133D01*
X63373Y16852D02*
X64555Y18034D01*
X69183Y22502D02*
X69333Y22352D01*
X74422Y24452D02*
X77597D01*
X62230D02*
X74422D01*
X62230Y22352D02*
X62380Y22502D01*
X62103Y22225D02*
X62230Y22352D01*
X62380Y22502D02*
X67183D01*
X62103Y18337D02*
Y22225D01*
X32512Y19533D02*
X32617Y19428D01*
Y16044D02*
Y19428D01*
X38517Y13701D02*
X39624Y14808D01*
Y16053D01*
X23622Y23749D02*
X26525D01*
X38329Y7089D02*
X50704D01*
X36828D02*
X38329D01*
X38354Y7064D01*
X33686Y10231D02*
Y12401D01*
Y10231D02*
X36828Y7089D01*
X59564Y7239D02*
X59614Y7189D01*
X56110Y7239D02*
X59564D01*
X56110Y3891D02*
X56369Y3632D01*
X56110Y3891D02*
Y7239D01*
X53960Y7089D02*
X54110Y7239D01*
X50704Y7089D02*
X53960D01*
X38480Y9455D02*
X38530Y9405D01*
X41274D01*
X44449D01*
X31310Y24960D02*
X35814D01*
X30099Y23749D02*
X31310Y24960D01*
X28625Y23749D02*
X30099D01*
X41479Y24960D02*
X41529Y24910D01*
X38608Y24960D02*
X41479D01*
X38608Y22860D02*
X38658Y22910D01*
X41529D01*
X35814Y22860D02*
X38608D01*
X36373Y18153D02*
X39624D01*
X35971Y15651D02*
X36373Y16053D01*
X33686Y15651D02*
X35971D01*
X34417Y18415D02*
X36322D01*
X33010Y15651D02*
X33686D01*
X33706Y16319D02*
Y17704D01*
X34417Y18415D01*
X32617Y16044D02*
X33010Y15651D01*
X32273Y15001D02*
X33686D01*
X31623Y14351D02*
X32273Y15001D01*
X31623Y10541D02*
Y14351D01*
X29396Y8314D02*
X31623Y10541D01*
X27940Y8314D02*
X29396D01*
X25400Y8609D02*
X25695Y8314D01*
X27940D01*
Y10414D02*
X29591D01*
X16002Y7747D02*
X17780D01*
X18542Y8509D01*
X20701D01*
Y10509D02*
Y13081D01*
X16002Y10287D02*
X16224Y10509D01*
X20701D01*
X23300Y8509D02*
X23400Y8609D01*
X20701Y8509D02*
X23300D01*
X20701Y13081D02*
X20731Y13051D01*
X24511Y14224D02*
X25034Y13701D01*
D22*
X7925Y14173D02*
X12725D01*
X12776Y14122D01*
X508Y0D02*
X100000D01*
Y29238D01*
X0D02*
X100000D01*
X0Y0D02*
Y29238D01*
Y0D02*
X508D01*
D23*
X37541Y28016D02*
X52705D01*
X35814Y26289D02*
X37541Y28016D01*
X52705Y16510D02*
Y28016D01*
X54534D01*
X58098Y24452D01*
X62230D01*
X35814Y24960D02*
Y26289D01*
X47700Y11505D02*
X52705Y16510D01*
X44449Y11505D02*
X47700D01*
D24*
X36195Y14859D02*
X37973D01*
X35687Y14351D02*
X36195Y14859D01*
X33686Y14351D02*
X35687D01*
X33686Y13701D02*
X38517D01*
X23400Y8609D02*
Y10954D01*
X24847Y12401D01*
X28036D01*
X20731Y13051D02*
X28036D01*
X25034Y13701D02*
X28036D01*
X33686Y13051D02*
X34828D01*
X36068Y11811D01*
Y10414D02*
Y11811D01*
Y10414D02*
X37084Y9398D01*
X38608D01*
D25*
X6985Y13532D02*
D03*
Y17932D02*
D03*
D26*
X20701Y13081D02*
D03*
Y15621D02*
D03*
X20828Y18542D02*
D03*
Y21082D02*
D03*
X90424Y16764D02*
D03*
Y19304D02*
D03*
X16002Y5207D02*
D03*
Y7747D02*
D03*
Y10287D02*
D03*
D27*
X90461Y12090D02*
D03*
X88976Y10820D02*
D03*
X87491Y12090D02*
D03*
X62103Y18337D02*
D03*
X63373Y16852D02*
D03*
X62103Y15367D02*
D03*
X75438Y18249D02*
D03*
X76708Y16764D02*
D03*
X75438Y15279D02*
D03*
D28*
X12776Y14122D02*
D03*
X61722Y9652D02*
D03*
X37973Y14859D02*
D03*
X41275Y13335D02*
D03*
X38608Y26543D02*
D03*
X71501Y18034D02*
D03*
X50704Y11557D02*
D03*
X42037Y16053D02*
D03*
M02*
