G04 Layer_Color=16711935*
%FSLAX43Y43*%
%MOMM*%
G71*
G01*
G75*
%ADD24C,0.100*%
%ADD25R,0.232X2.616*%
D24*
X86541Y13702D02*
G03*
X87369Y14528I2435J-1611D01*
G01*
X91461Y12090D02*
G03*
X91461Y12090I-2485J0D01*
G01*
X60492Y14417D02*
G03*
X59665Y15245I1611J2435D01*
G01*
X64588Y16852D02*
G03*
X64588Y16852I-2485J0D01*
G01*
X73827Y14329D02*
G03*
X73000Y15157I1611J2435D01*
G01*
X77923Y16764D02*
G03*
X77923Y16764I-2485J0D01*
G01*
X30011Y16001D02*
G03*
X30011Y16001I-500J0D01*
G01*
X86513Y15384D02*
X87369Y14528D01*
X85686Y14557D02*
X86513Y15384D01*
X85686Y14557D02*
X86542Y13701D01*
X67083Y17359D02*
X69283D01*
X67083Y18709D02*
X69283D01*
Y17359D02*
Y18709D01*
X67083Y17359D02*
Y18709D01*
X58810Y14389D02*
X59665Y15245D01*
X58810Y14389D02*
X59637Y13562D01*
X60492Y14417D01*
X72145Y14301D02*
X73000Y15157D01*
X72145Y14301D02*
X72972Y13474D01*
X73827Y14329D01*
X73747Y22302D02*
Y24502D01*
X75097Y22302D02*
Y24502D01*
X73747Y22302D02*
X75097D01*
X73747Y24502D02*
X75097D01*
X76922Y22302D02*
Y24502D01*
X78272Y22302D02*
Y24502D01*
X76922Y22302D02*
X78272D01*
X76922Y24502D02*
X78272D01*
X94575Y16625D02*
X95925D01*
X94575Y18725D02*
X95925D01*
X94575Y16625D02*
Y18725D01*
X95925Y16625D02*
Y18725D01*
X56219Y4935D02*
X60519D01*
X56219Y2330D02*
Y4935D01*
X60519Y2330D02*
Y4935D01*
X56219Y2330D02*
X60519D01*
X30387Y18858D02*
X32587D01*
X30387Y20208D02*
X32587D01*
Y18858D02*
Y20208D01*
X30387Y18858D02*
Y20208D01*
X37933Y22810D02*
Y25010D01*
X39283Y22810D02*
Y25010D01*
X37933Y22810D02*
X39283D01*
X37933Y25010D02*
X39283D01*
X26475Y23074D02*
X28675D01*
X26475Y24424D02*
X28675D01*
Y23074D02*
Y24424D01*
X26475Y23074D02*
Y24424D01*
X59564Y6514D02*
X61764D01*
X59564Y7864D02*
X61764D01*
Y6514D02*
Y7864D01*
X59564Y6514D02*
Y7864D01*
X64974Y3008D02*
X67174D01*
X64974Y4358D02*
X67174D01*
Y3008D02*
Y4358D01*
X64974Y3008D02*
Y4358D01*
X54010Y6514D02*
X56210D01*
X54010Y7964D02*
X56210D01*
Y6514D02*
Y7964D01*
X54010Y6514D02*
Y7964D01*
X67083Y23227D02*
X69283D01*
X67083Y21777D02*
X69283D01*
X67083D02*
Y23227D01*
X69283Y21777D02*
Y23227D01*
X80332Y17334D02*
X82532D01*
X80332Y18684D02*
X82532D01*
Y17334D02*
Y18684D01*
X80332Y17334D02*
Y18684D01*
X61555Y22302D02*
Y24502D01*
X62905Y22302D02*
Y24502D01*
X61555Y22302D02*
X62905D01*
X61555Y24502D02*
X62905D01*
X89876Y22302D02*
Y24502D01*
X91226Y22302D02*
Y24502D01*
X89876Y22302D02*
X91226D01*
X89876Y24502D02*
X91226D01*
X25236Y15156D02*
Y17356D01*
X23786Y15156D02*
Y17356D01*
X25236D01*
X23786Y15156D02*
X25236D01*
X28611Y11801D02*
X33111D01*
X28611Y16901D02*
X33111D01*
Y11801D02*
Y16901D01*
X28611Y11801D02*
Y16901D01*
X21426Y8409D02*
Y10609D01*
X19976Y8409D02*
Y10609D01*
X21426D01*
X19976Y8409D02*
X21426D01*
X23300Y9334D02*
X25500D01*
X23300Y7884D02*
X25500D01*
X23300D02*
Y9334D01*
X25500Y7884D02*
Y9334D01*
X28615Y8264D02*
Y10464D01*
X27265Y8264D02*
Y10464D01*
X28615D01*
X27265Y8264D02*
X28615D01*
X40804Y22810D02*
Y25010D01*
X42254Y22810D02*
Y25010D01*
X40804Y22810D02*
X42254D01*
X40804Y25010D02*
X42254D01*
X37048Y16003D02*
Y18203D01*
X35698Y16003D02*
Y18203D01*
X37048D01*
X35698Y16003D02*
X37048D01*
X36489Y22810D02*
Y25010D01*
X35139Y22810D02*
Y25010D01*
X36489D01*
X35139Y22810D02*
X36489D01*
X40299Y16003D02*
Y18203D01*
X38949Y16003D02*
Y18203D01*
X40299D01*
X38949Y16003D02*
X40299D01*
X51379Y7039D02*
Y9239D01*
X50029Y7039D02*
Y9239D01*
X51379D01*
X50029Y7039D02*
X51379D01*
X37755Y9355D02*
Y11555D01*
X39205Y9355D02*
Y11555D01*
X37755Y9355D02*
X39205D01*
X37755Y11555D02*
X39205D01*
X41949Y9355D02*
Y11555D01*
X40599Y9355D02*
Y11555D01*
X41949D01*
X40599Y9355D02*
X41949D01*
X45124D02*
Y11555D01*
X43774Y9355D02*
Y11555D01*
X45124D01*
X43774Y9355D02*
X45124D01*
X86541Y13702D02*
G03*
X87369Y14528I2435J-1611D01*
G01*
X91461Y12090D02*
G03*
X91461Y12090I-2485J0D01*
G01*
X60492Y14417D02*
G03*
X59665Y15245I1611J2435D01*
G01*
X64588Y16852D02*
G03*
X64588Y16852I-2485J0D01*
G01*
X73827Y14329D02*
G03*
X73000Y15157I1611J2435D01*
G01*
X77923Y16764D02*
G03*
X77923Y16764I-2485J0D01*
G01*
X30011Y16001D02*
G03*
X30011Y16001I-500J0D01*
G01*
X86513Y15384D02*
X87369Y14528D01*
X85686Y14557D02*
X86513Y15384D01*
X85686Y14557D02*
X86542Y13701D01*
X67083Y17359D02*
X69283D01*
X67083Y18709D02*
X69283D01*
Y17359D02*
Y18709D01*
X67083Y17359D02*
Y18709D01*
X58810Y14389D02*
X59665Y15245D01*
X58810Y14389D02*
X59637Y13562D01*
X60492Y14417D01*
X72145Y14301D02*
X73000Y15157D01*
X72145Y14301D02*
X72972Y13474D01*
X73827Y14329D01*
X73747Y22302D02*
Y24502D01*
X75097Y22302D02*
Y24502D01*
X73747Y22302D02*
X75097D01*
X73747Y24502D02*
X75097D01*
X76922Y22302D02*
Y24502D01*
X78272Y22302D02*
Y24502D01*
X76922Y22302D02*
X78272D01*
X76922Y24502D02*
X78272D01*
X94575Y16625D02*
X95925D01*
X94575Y18725D02*
X95925D01*
X94575Y16625D02*
Y18725D01*
X95925Y16625D02*
Y18725D01*
X56219Y4935D02*
X60519D01*
X56219Y2330D02*
Y4935D01*
X60519Y2330D02*
Y4935D01*
X56219Y2330D02*
X60519D01*
X30387Y18858D02*
X32587D01*
X30387Y20208D02*
X32587D01*
Y18858D02*
Y20208D01*
X30387Y18858D02*
Y20208D01*
X37933Y22810D02*
Y25010D01*
X39283Y22810D02*
Y25010D01*
X37933Y22810D02*
X39283D01*
X37933Y25010D02*
X39283D01*
X26475Y23074D02*
X28675D01*
X26475Y24424D02*
X28675D01*
Y23074D02*
Y24424D01*
X26475Y23074D02*
Y24424D01*
X59564Y6514D02*
X61764D01*
X59564Y7864D02*
X61764D01*
Y6514D02*
Y7864D01*
X59564Y6514D02*
Y7864D01*
X64974Y3008D02*
X67174D01*
X64974Y4358D02*
X67174D01*
Y3008D02*
Y4358D01*
X64974Y3008D02*
Y4358D01*
X54010Y6514D02*
X56210D01*
X54010Y7964D02*
X56210D01*
Y6514D02*
Y7964D01*
X54010Y6514D02*
Y7964D01*
X67083Y23227D02*
X69283D01*
X67083Y21777D02*
X69283D01*
X67083D02*
Y23227D01*
X69283Y21777D02*
Y23227D01*
X80332Y17334D02*
X82532D01*
X80332Y18684D02*
X82532D01*
Y17334D02*
Y18684D01*
X80332Y17334D02*
Y18684D01*
X61555Y22302D02*
Y24502D01*
X62905Y22302D02*
Y24502D01*
X61555Y22302D02*
X62905D01*
X61555Y24502D02*
X62905D01*
X89876Y22302D02*
Y24502D01*
X91226Y22302D02*
Y24502D01*
X89876Y22302D02*
X91226D01*
X89876Y24502D02*
X91226D01*
X25236Y15156D02*
Y17356D01*
X23786Y15156D02*
Y17356D01*
X25236D01*
X23786Y15156D02*
X25236D01*
X28611Y11801D02*
X33111D01*
X28611Y16901D02*
X33111D01*
Y11801D02*
Y16901D01*
X28611Y11801D02*
Y16901D01*
X21426Y8409D02*
Y10609D01*
X19976Y8409D02*
Y10609D01*
X21426D01*
X19976Y8409D02*
X21426D01*
X23300Y9334D02*
X25500D01*
X23300Y7884D02*
X25500D01*
X23300D02*
Y9334D01*
X25500Y7884D02*
Y9334D01*
X28615Y8264D02*
Y10464D01*
X27265Y8264D02*
Y10464D01*
X28615D01*
X27265Y8264D02*
X28615D01*
X40804Y22810D02*
Y25010D01*
X42254Y22810D02*
Y25010D01*
X40804Y22810D02*
X42254D01*
X40804Y25010D02*
X42254D01*
X37048Y16003D02*
Y18203D01*
X35698Y16003D02*
Y18203D01*
X37048D01*
X35698Y16003D02*
X37048D01*
X36489Y22810D02*
Y25010D01*
X35139Y22810D02*
Y25010D01*
X36489D01*
X35139Y22810D02*
X36489D01*
X40299Y16003D02*
Y18203D01*
X38949Y16003D02*
Y18203D01*
X40299D01*
X38949Y16003D02*
X40299D01*
X51379Y7039D02*
Y9239D01*
X50029Y7039D02*
Y9239D01*
X51379D01*
X50029Y7039D02*
X51379D01*
X37755Y9355D02*
Y11555D01*
X39205Y9355D02*
Y11555D01*
X37755Y9355D02*
X39205D01*
X37755Y11555D02*
X39205D01*
X41949Y9355D02*
Y11555D01*
X40599Y9355D02*
Y11555D01*
X41949D01*
X40599Y9355D02*
X41949D01*
X45124D02*
Y11555D01*
X43774Y9355D02*
Y11555D01*
X45124D01*
X43774Y9355D02*
X45124D01*
D25*
X60372Y3620D02*
D03*
D03*
M02*
