G04 Layer_Color=65535*
%FSLAX43Y43*%
%MOMM*%
G71*
G01*
G75*
%ADD24C,0.254*%
%ADD25C,0.100*%
%ADD26R,0.232X2.616*%
%ADD31C,0.200*%
%ADD32C,0.250*%
%ADD33C,0.600*%
%ADD34C,0.500*%
%ADD35R,0.496X0.272*%
%ADD36R,0.520X0.248*%
%ADD37R,0.342X1.621*%
D24*
X91924Y18034D02*
G03*
X91924Y18034I-1500J0D01*
G01*
X13462Y11938D02*
X16002D01*
X13462Y3683D02*
Y11938D01*
Y3683D02*
X18542D01*
Y11938D01*
X16002D02*
X18542D01*
X20828Y6445D02*
X20574Y6699D01*
X20066D01*
X19812Y6445D01*
Y5429D01*
X20066Y5175D01*
X20574D01*
X20828Y5429D01*
X21336Y5175D02*
X21843D01*
X21589D01*
Y6699D01*
X21336Y6445D01*
X24416Y6577D02*
X24162Y6831D01*
X23654D01*
X23400Y6577D01*
Y5561D01*
X23654Y5307D01*
X24162D01*
X24416Y5561D01*
X25939Y5307D02*
X24924D01*
X25939Y6323D01*
Y6577D01*
X25685Y6831D01*
X25177D01*
X24924Y6577D01*
X24257Y20253D02*
X24003Y20507D01*
X23495D01*
X23241Y20253D01*
Y19237D01*
X23495Y18983D01*
X24003D01*
X24257Y19237D01*
X24765Y20253D02*
X25018Y20507D01*
X25526D01*
X25780Y20253D01*
Y19999D01*
X25526Y19745D01*
X25272D01*
X25526D01*
X25780Y19491D01*
Y19237D01*
X25526Y18983D01*
X25018D01*
X24765Y19237D01*
X67217Y25854D02*
X66964Y26108D01*
X66456D01*
X66202Y25854D01*
Y24839D01*
X66456Y24585D01*
X66964D01*
X67217Y24839D01*
X68741Y26108D02*
X67725D01*
Y25347D01*
X68233Y25600D01*
X68487D01*
X68741Y25347D01*
Y24839D01*
X68487Y24585D01*
X67979D01*
X67725Y24839D01*
X54144Y10591D02*
X53891Y10845D01*
X53383D01*
X53129Y10591D01*
Y9576D01*
X53383Y9322D01*
X53891D01*
X54144Y9576D01*
X54652Y10845D02*
X55668D01*
Y10591D01*
X54652Y9576D01*
Y9322D01*
X44069Y25527D02*
X43815Y25781D01*
X43307D01*
X43053Y25527D01*
Y24511D01*
X43307Y24257D01*
X43815D01*
X44069Y24511D01*
X44577Y25527D02*
X44830Y25781D01*
X45338D01*
X45592Y25527D01*
Y25273D01*
X45338Y25019D01*
X45592Y24765D01*
Y24511D01*
X45338Y24257D01*
X44830D01*
X44577Y24511D01*
Y24765D01*
X44830Y25019D01*
X44577Y25273D01*
Y25527D01*
X44830Y25019D02*
X45338D01*
X37973Y6248D02*
X37719Y5994D01*
Y5486D01*
X37973Y5232D01*
X38988D01*
X39242Y5486D01*
Y5994D01*
X38988Y6248D01*
Y6756D02*
X39242Y7010D01*
Y7518D01*
X38988Y7772D01*
X37973D01*
X37719Y7518D01*
Y7010D01*
X37973Y6756D01*
X38227D01*
X38480Y7010D01*
Y7772D01*
X85852Y18796D02*
Y17272D01*
X86614D01*
X86868Y17526D01*
Y18542D01*
X86614Y18796D01*
X85852D01*
X87376Y18542D02*
X87629Y18796D01*
X88137D01*
X88391Y18542D01*
Y18288D01*
X88137Y18034D01*
X87883D01*
X88137D01*
X88391Y17780D01*
Y17526D01*
X88137Y17272D01*
X87629D01*
X87376Y17526D01*
X52197Y4445D02*
Y2921D01*
X52959D01*
X53213Y3175D01*
Y4191D01*
X52959Y4445D01*
X52197D01*
X54482Y2921D02*
Y4445D01*
X53721Y3683D01*
X54736D01*
X97155Y8001D02*
X98679D01*
Y9017D01*
X97155Y10540D02*
Y9525D01*
X98679D01*
Y10540D01*
X97917Y9525D02*
Y10032D01*
X97155Y11048D02*
X98679D01*
Y11810D01*
X98425Y12064D01*
X97409D01*
X97155Y11810D01*
Y11048D01*
X98933Y12572D02*
Y13587D01*
X97409Y14095D02*
X97155Y14349D01*
Y14857D01*
X97409Y15111D01*
X98425D01*
X98679Y14857D01*
Y14349D01*
X98425Y14095D01*
X97409D01*
Y15619D02*
X97155Y15872D01*
Y16380D01*
X97409Y16634D01*
X97663D01*
X97917Y16380D01*
X98171Y16634D01*
X98425D01*
X98679Y16380D01*
Y15872D01*
X98425Y15619D01*
X98171D01*
X97917Y15872D01*
X97663Y15619D01*
X97409D01*
X97917Y15872D02*
Y16380D01*
X97409Y17142D02*
X97155Y17396D01*
Y17904D01*
X97409Y18158D01*
X98425D01*
X98679Y17904D01*
Y17396D01*
X98425Y17142D01*
X97409D01*
X97155Y19681D02*
Y18666D01*
X97917D01*
X97663Y19173D01*
Y19427D01*
X97917Y19681D01*
X98425D01*
X98679Y19427D01*
Y18919D01*
X98425Y18666D01*
X92913Y8839D02*
Y9855D01*
X92659Y10109D01*
X92151D01*
X91897Y9855D01*
Y8839D01*
X92151Y8585D01*
X92659D01*
X92405Y9093D02*
X92913Y8585D01*
X92659D02*
X92913Y8839D01*
X93421Y8585D02*
X93929D01*
X93675D01*
Y10109D01*
X93421Y9855D01*
X75184Y11176D02*
Y12192D01*
X74930Y12446D01*
X74422D01*
X74168Y12192D01*
Y11176D01*
X74422Y10922D01*
X74930D01*
X74676Y11430D02*
X75184Y10922D01*
X74930D02*
X75184Y11176D01*
X76707Y10922D02*
X75692D01*
X76707Y11938D01*
Y12192D01*
X76453Y12446D01*
X75945D01*
X75692Y12192D01*
X55372Y13716D02*
Y14732D01*
X55118Y14986D01*
X54610D01*
X54356Y14732D01*
Y13716D01*
X54610Y13462D01*
X55118D01*
X54864Y13970D02*
X55372Y13462D01*
X55118D02*
X55372Y13716D01*
X56641Y13462D02*
Y14986D01*
X55880Y14224D01*
X56895D01*
X32766Y26035D02*
Y27559D01*
X33528D01*
X33782Y27305D01*
Y26797D01*
X33528Y26543D01*
X32766D01*
X33274D02*
X33782Y26035D01*
X34290D02*
X34797D01*
X34543D01*
Y27559D01*
X34290Y27305D01*
X30505Y21412D02*
Y22936D01*
X31267D01*
X31521Y22682D01*
Y22174D01*
X31267Y21920D01*
X30505D01*
X31013D02*
X31521Y21412D01*
X33045D02*
X32029D01*
X33045Y22428D01*
Y22682D01*
X32791Y22936D01*
X32283D01*
X32029Y22682D01*
X34417Y19304D02*
Y20828D01*
X35179D01*
X35433Y20574D01*
Y20066D01*
X35179Y19812D01*
X34417D01*
X34925D02*
X35433Y19304D01*
X35941Y20574D02*
X36194Y20828D01*
X36702D01*
X36956Y20574D01*
Y20320D01*
X36702Y20066D01*
X36448D01*
X36702D01*
X36956Y19812D01*
Y19558D01*
X36702Y19304D01*
X36194D01*
X35941Y19558D01*
X37846Y20193D02*
Y21717D01*
X38608D01*
X38862Y21463D01*
Y20955D01*
X38608Y20701D01*
X37846D01*
X38354D02*
X38862Y20193D01*
X40131D02*
Y21717D01*
X39370Y20955D01*
X40385D01*
X29464Y8602D02*
Y10126D01*
X30226D01*
X30480Y9872D01*
Y9364D01*
X30226Y9110D01*
X29464D01*
X29972D02*
X30480Y8602D01*
X32003Y10126D02*
X31495Y9872D01*
X30988Y9364D01*
Y8856D01*
X31241Y8602D01*
X31749D01*
X32003Y8856D01*
Y9110D01*
X31749Y9364D01*
X30988D01*
X25611Y25781D02*
Y27305D01*
X26372D01*
X26626Y27051D01*
Y26543D01*
X26372Y26289D01*
X25611D01*
X26118D02*
X26626Y25781D01*
X27134Y27305D02*
X28150D01*
Y27051D01*
X27134Y26035D01*
Y25781D01*
X89535Y26391D02*
Y27914D01*
X90297D01*
X90551Y27660D01*
Y27152D01*
X90297Y26898D01*
X89535D01*
X90043D02*
X90551Y26391D01*
X91059Y27660D02*
X91312Y27914D01*
X91820D01*
X92074Y27660D01*
Y27406D01*
X91820Y27152D01*
X92074Y26898D01*
Y26645D01*
X91820Y26391D01*
X91312D01*
X91059Y26645D01*
Y26898D01*
X91312Y27152D01*
X91059Y27406D01*
Y27660D01*
X91312Y27152D02*
X91820D01*
X77597Y26439D02*
Y27963D01*
X78359D01*
X78613Y27709D01*
Y27201D01*
X78359Y26947D01*
X77597D01*
X78105D02*
X78613Y26439D01*
X79121Y26693D02*
X79374Y26439D01*
X79882D01*
X80136Y26693D01*
Y27709D01*
X79882Y27963D01*
X79374D01*
X79121Y27709D01*
Y27455D01*
X79374Y27201D01*
X80136D01*
X61214Y26391D02*
Y27914D01*
X61976D01*
X62230Y27660D01*
Y27152D01*
X61976Y26898D01*
X61214D01*
X61722D02*
X62230Y26391D01*
X62738D02*
X63245D01*
X62991D01*
Y27914D01*
X62738Y27660D01*
X64007D02*
X64261Y27914D01*
X64769D01*
X65023Y27660D01*
Y26645D01*
X64769Y26391D01*
X64261D01*
X64007Y26645D01*
Y27660D01*
X72390Y26312D02*
Y27836D01*
X73152D01*
X73406Y27582D01*
Y27074D01*
X73152Y26820D01*
X72390D01*
X72898D02*
X73406Y26312D01*
X73914D02*
X74421D01*
X74167D01*
Y27836D01*
X73914Y27582D01*
X75183Y26312D02*
X75691D01*
X75437D01*
Y27836D01*
X75183Y27582D01*
X79460Y20041D02*
Y21564D01*
X80222D01*
X80475Y21310D01*
Y20802D01*
X80222Y20548D01*
X79460D01*
X79968D02*
X80475Y20041D01*
X80983D02*
X81491D01*
X81237D01*
Y21564D01*
X80983Y21310D01*
X83269Y20041D02*
X82253D01*
X83269Y21056D01*
Y21310D01*
X83015Y21564D01*
X82507D01*
X82253Y21310D01*
X45211Y4071D02*
X43688D01*
Y4833D01*
X43942Y5087D01*
X44449D01*
X44703Y4833D01*
Y4071D01*
Y4579D02*
X45211Y5087D01*
Y5595D02*
Y6103D01*
Y5849D01*
X43688D01*
X43942Y5595D01*
Y6864D02*
X43688Y7118D01*
Y7626D01*
X43942Y7880D01*
X44196D01*
X44449Y7626D01*
Y7372D01*
Y7626D01*
X44703Y7880D01*
X44957D01*
X45211Y7626D01*
Y7118D01*
X44957Y6864D01*
X42036Y4139D02*
X40513D01*
Y4901D01*
X40767Y5155D01*
X41274D01*
X41528Y4901D01*
Y4139D01*
Y4647D02*
X42036Y5155D01*
Y5663D02*
Y6171D01*
Y5917D01*
X40513D01*
X40767Y5663D01*
X42036Y7694D02*
X40513D01*
X41274Y6932D01*
Y7948D01*
X66421Y14478D02*
Y16002D01*
X67183D01*
X67437Y15748D01*
Y15240D01*
X67183Y14986D01*
X66421D01*
X66929D02*
X67437Y14478D01*
X67945D02*
X68452D01*
X68198D01*
Y16002D01*
X67945Y15748D01*
X70230Y16002D02*
X69214D01*
Y15240D01*
X69722Y15494D01*
X69976D01*
X70230Y15240D01*
Y14732D01*
X69976Y14478D01*
X69468D01*
X69214Y14732D01*
X64105Y5728D02*
Y7251D01*
X64867D01*
X65121Y6997D01*
Y6489D01*
X64867Y6236D01*
X64105D01*
X64613D02*
X65121Y5728D01*
X65629D02*
X66137D01*
X65883D01*
Y7251D01*
X65629Y6997D01*
X67914Y7251D02*
X67406Y6997D01*
X66899Y6489D01*
Y5982D01*
X67153Y5728D01*
X67660D01*
X67914Y5982D01*
Y6236D01*
X67660Y6489D01*
X66899D01*
X41783Y17831D02*
Y19354D01*
X42545D01*
X42799Y19100D01*
Y18593D01*
X42545Y18339D01*
X41783D01*
X42291D02*
X42799Y17831D01*
X43307D02*
X43814D01*
X43560D01*
Y19354D01*
X43307Y19100D01*
X44576Y19354D02*
X45592D01*
Y19100D01*
X44576Y18085D01*
Y17831D01*
X58695Y9234D02*
Y10757D01*
X59457D01*
X59711Y10503D01*
Y9995D01*
X59457Y9742D01*
X58695D01*
X59203D02*
X59711Y9234D01*
X60219D02*
X60727D01*
X60473D01*
Y10757D01*
X60219Y10503D01*
X61489D02*
X61743Y10757D01*
X62250D01*
X62504Y10503D01*
Y10249D01*
X62250Y9995D01*
X62504Y9742D01*
Y9488D01*
X62250Y9234D01*
X61743D01*
X61489Y9488D01*
Y9742D01*
X61743Y9995D01*
X61489Y10249D01*
Y10503D01*
X61743Y9995D02*
X62250D01*
X51466Y2077D02*
X49942D01*
Y2839D01*
X50196Y3093D01*
X50704D01*
X50958Y2839D01*
Y2077D01*
Y2585D02*
X51466Y3093D01*
Y3601D02*
Y4108D01*
Y3854D01*
X49942D01*
X50196Y3601D01*
X51212Y4870D02*
X51466Y5124D01*
Y5632D01*
X51212Y5886D01*
X50196D01*
X49942Y5632D01*
Y5124D01*
X50196Y4870D01*
X50450D01*
X50704Y5124D01*
Y5886D01*
X13208Y12700D02*
Y14224D01*
X13970D01*
X14224Y13970D01*
Y13462D01*
X13970Y13208D01*
X13208D01*
X13716D02*
X14224Y12700D01*
X15747D02*
X14732D01*
X15747Y13716D01*
Y13970D01*
X15493Y14224D01*
X14985D01*
X14732Y13970D01*
X16255D02*
X16509Y14224D01*
X17017D01*
X17271Y13970D01*
Y13716D01*
X17017Y13462D01*
X16763D01*
X17017D01*
X17271Y13208D01*
Y12954D01*
X17017Y12700D01*
X16509D01*
X16255Y12954D01*
X29718Y14605D02*
Y13335D01*
X29972Y13081D01*
X30480D01*
X30734Y13335D01*
Y14605D01*
X31242Y13081D02*
X31749D01*
X31495D01*
Y14605D01*
X31242Y14351D01*
X3124Y26878D02*
X2616D01*
X2870D01*
Y25609D01*
X2616Y25355D01*
X2362D01*
X2108Y25609D01*
X3632Y25355D02*
X4140D01*
X3886D01*
Y26878D01*
X3632Y26625D01*
X508Y0D02*
X100000D01*
Y29238D01*
X0D02*
X100000D01*
X0Y0D02*
Y29238D01*
Y0D02*
X508D01*
D25*
X86541Y13702D02*
G03*
X87369Y14528I2435J-1611D01*
G01*
X91461Y12090D02*
G03*
X91461Y12090I-2485J0D01*
G01*
X60492Y14417D02*
G03*
X59665Y15245I1611J2435D01*
G01*
X64588Y16852D02*
G03*
X64588Y16852I-2485J0D01*
G01*
X73827Y14329D02*
G03*
X73000Y15157I1611J2435D01*
G01*
X77923Y16764D02*
G03*
X77923Y16764I-2485J0D01*
G01*
X30011Y16001D02*
G03*
X30011Y16001I-500J0D01*
G01*
X86513Y15384D02*
X87369Y14528D01*
X85686Y14557D02*
X86513Y15384D01*
X85686Y14557D02*
X86542Y13701D01*
X67083Y17359D02*
X69283D01*
X67083Y18709D02*
X69283D01*
Y17359D02*
Y18709D01*
X67083Y17359D02*
Y18709D01*
X58810Y14389D02*
X59665Y15245D01*
X58810Y14389D02*
X59637Y13562D01*
X60492Y14417D01*
X72145Y14301D02*
X73000Y15157D01*
X72145Y14301D02*
X72972Y13474D01*
X73827Y14329D01*
X73747Y22302D02*
Y24502D01*
X75097Y22302D02*
Y24502D01*
X73747Y22302D02*
X75097D01*
X73747Y24502D02*
X75097D01*
X76922Y22302D02*
Y24502D01*
X78272Y22302D02*
Y24502D01*
X76922Y22302D02*
X78272D01*
X76922Y24502D02*
X78272D01*
X94575Y16625D02*
X95925D01*
X94575Y18725D02*
X95925D01*
X94575Y16625D02*
Y18725D01*
X95925Y16625D02*
Y18725D01*
X56219Y4935D02*
X60519D01*
X56219Y2330D02*
Y4935D01*
X60519Y2330D02*
Y4935D01*
X56219Y2330D02*
X60519D01*
X30387Y18858D02*
X32587D01*
X30387Y20208D02*
X32587D01*
Y18858D02*
Y20208D01*
X30387Y18858D02*
Y20208D01*
X37933Y22810D02*
Y25010D01*
X39283Y22810D02*
Y25010D01*
X37933Y22810D02*
X39283D01*
X37933Y25010D02*
X39283D01*
X26475Y23074D02*
X28675D01*
X26475Y24424D02*
X28675D01*
Y23074D02*
Y24424D01*
X26475Y23074D02*
Y24424D01*
X59564Y6514D02*
X61764D01*
X59564Y7864D02*
X61764D01*
Y6514D02*
Y7864D01*
X59564Y6514D02*
Y7864D01*
X64974Y3008D02*
X67174D01*
X64974Y4358D02*
X67174D01*
Y3008D02*
Y4358D01*
X64974Y3008D02*
Y4358D01*
X54010Y6514D02*
X56210D01*
X54010Y7964D02*
X56210D01*
Y6514D02*
Y7964D01*
X54010Y6514D02*
Y7964D01*
X67083Y23227D02*
X69283D01*
X67083Y21777D02*
X69283D01*
X67083D02*
Y23227D01*
X69283Y21777D02*
Y23227D01*
X80332Y17334D02*
X82532D01*
X80332Y18684D02*
X82532D01*
Y17334D02*
Y18684D01*
X80332Y17334D02*
Y18684D01*
X61555Y22302D02*
Y24502D01*
X62905Y22302D02*
Y24502D01*
X61555Y22302D02*
X62905D01*
X61555Y24502D02*
X62905D01*
X89876Y22302D02*
Y24502D01*
X91226Y22302D02*
Y24502D01*
X89876Y22302D02*
X91226D01*
X89876Y24502D02*
X91226D01*
X25236Y15156D02*
Y17356D01*
X23786Y15156D02*
Y17356D01*
X25236D01*
X23786Y15156D02*
X25236D01*
X28611Y11801D02*
X33111D01*
X28611Y16901D02*
X33111D01*
Y11801D02*
Y16901D01*
X28611Y11801D02*
Y16901D01*
X21426Y8409D02*
Y10609D01*
X19976Y8409D02*
Y10609D01*
X21426D01*
X19976Y8409D02*
X21426D01*
X23300Y9334D02*
X25500D01*
X23300Y7884D02*
X25500D01*
X23300D02*
Y9334D01*
X25500Y7884D02*
Y9334D01*
X28615Y8264D02*
Y10464D01*
X27265Y8264D02*
Y10464D01*
X28615D01*
X27265Y8264D02*
X28615D01*
X40804Y22810D02*
Y25010D01*
X42254Y22810D02*
Y25010D01*
X40804Y22810D02*
X42254D01*
X40804Y25010D02*
X42254D01*
X37048Y16003D02*
Y18203D01*
X35698Y16003D02*
Y18203D01*
X37048D01*
X35698Y16003D02*
X37048D01*
X36489Y22810D02*
Y25010D01*
X35139Y22810D02*
Y25010D01*
X36489D01*
X35139Y22810D02*
X36489D01*
X40299Y16003D02*
Y18203D01*
X38949Y16003D02*
Y18203D01*
X40299D01*
X38949Y16003D02*
X40299D01*
X51379Y7039D02*
Y9239D01*
X50029Y7039D02*
Y9239D01*
X51379D01*
X50029Y7039D02*
X51379D01*
X37755Y9355D02*
Y11555D01*
X39205Y9355D02*
Y11555D01*
X37755Y9355D02*
X39205D01*
X37755Y11555D02*
X39205D01*
X41949Y9355D02*
Y11555D01*
X40599Y9355D02*
Y11555D01*
X41949D01*
X40599Y9355D02*
X41949D01*
X45124D02*
Y11555D01*
X43774Y9355D02*
Y11555D01*
X45124D01*
X43774Y9355D02*
X45124D01*
D26*
X60372Y3620D02*
D03*
D31*
X86541Y13702D02*
G03*
X87369Y14528I2435J-1611D01*
G01*
X60492Y14417D02*
G03*
X59665Y15245I1611J2435D01*
G01*
X73827Y14329D02*
G03*
X73000Y15157I1611J2435D01*
G01*
X86513Y15384D02*
X87369Y14528D01*
X85686Y14557D02*
X86513Y15384D01*
X85686Y14557D02*
X86542Y13701D01*
X68133Y17384D02*
X68233D01*
X68133Y18684D02*
X68233D01*
X58810Y14389D02*
X59665Y15245D01*
X58810Y14389D02*
X59637Y13562D01*
X60492Y14417D01*
X72145Y14301D02*
X73000Y15157D01*
X72145Y14301D02*
X72972Y13474D01*
X73827Y14329D01*
X73772Y23352D02*
Y23452D01*
X75072Y23352D02*
Y23452D01*
X76947Y23352D02*
Y23452D01*
X78247Y23352D02*
Y23452D01*
X94750Y17525D02*
Y17825D01*
X95750Y17525D02*
Y17825D01*
X94750Y17525D02*
X95750D01*
X56219Y2330D02*
X60519D01*
X56219Y4935D02*
X60519D01*
Y4882D02*
Y4935D01*
Y2330D02*
Y2382D01*
X56219Y4882D02*
Y4935D01*
Y2330D02*
Y2382D01*
X31437Y18883D02*
X31537D01*
X31437Y20183D02*
X31537D01*
X37958Y23860D02*
Y23960D01*
X39258Y23860D02*
Y23960D01*
X27525Y23099D02*
X27625D01*
X27525Y24399D02*
X27625D01*
X60614Y6539D02*
X60714D01*
X60614Y7839D02*
X60714D01*
X66024Y3033D02*
X66124D01*
X66024Y4333D02*
X66124D01*
X55060Y6564D02*
X55160D01*
X55060Y7914D02*
X55160D01*
X68133Y23177D02*
X68233D01*
X68133Y21827D02*
X68233D01*
X81382Y17359D02*
X81482D01*
X81382Y18659D02*
X81482D01*
X61580Y23352D02*
Y23452D01*
X62880Y23352D02*
Y23452D01*
X89901Y23352D02*
Y23452D01*
X91201Y23352D02*
Y23452D01*
X25186Y16206D02*
Y16306D01*
X23836Y16206D02*
Y16306D01*
X29061Y11801D02*
X32661D01*
X29061Y16901D02*
X32661D01*
Y11801D02*
Y16901D01*
X29061Y11801D02*
Y16901D01*
X21376Y9459D02*
Y9559D01*
X20026Y9459D02*
Y9559D01*
X24350Y9284D02*
X24450D01*
X24350Y7934D02*
X24450D01*
X28590Y9314D02*
Y9414D01*
X27290Y9314D02*
Y9414D01*
X40854Y23860D02*
Y23960D01*
X42204Y23860D02*
Y23960D01*
X37023Y17053D02*
Y17153D01*
X35723Y17053D02*
Y17153D01*
X36464Y23860D02*
Y23960D01*
X35164Y23860D02*
Y23960D01*
X40274Y17053D02*
Y17153D01*
X38974Y17053D02*
Y17153D01*
X51354Y8089D02*
Y8189D01*
X50054Y8089D02*
Y8189D01*
X37805Y10405D02*
Y10505D01*
X39155Y10405D02*
Y10505D01*
X41924Y10405D02*
Y10505D01*
X40624Y10405D02*
Y10505D01*
X45099Y10405D02*
Y10505D01*
X43799Y10405D02*
Y10505D01*
D32*
X60494Y1730D02*
G03*
X60494Y1730I-125J0D01*
G01*
X28161Y17026D02*
G03*
X28161Y17026I-125J0D01*
G01*
D33*
X30361Y15901D02*
G03*
X30361Y15901I-300J0D01*
G01*
D34*
X12351Y15282D02*
Y21782D01*
X2101Y15282D02*
X12351D01*
X2101D02*
Y21782D01*
X12351D01*
D35*
X58202Y4324D02*
D03*
D36*
X58241Y2958D02*
D03*
D37*
X58621Y3650D02*
D03*
M02*
