G04 Layer_Physical_Order=2*
G04 Layer_Color=16711680*
%FSLAX43Y43*%
%MOMM*%
G71*
G01*
G75*
%ADD21C,0.381*%
%ADD24C,0.100*%
%ADD25R,0.232X2.616*%
%ADD26C,1.524*%
%ADD27C,1.300*%
%ADD28C,0.900*%
%ADD29C,1.270*%
G36*
X99612Y388D02*
X388D01*
Y28850D01*
X99612D01*
Y388D01*
D02*
G37*
%LPC*%
G36*
X88976Y11732D02*
X88740Y11701D01*
X88520Y11610D01*
X88331Y11465D01*
X88187Y11276D01*
X88095Y11056D01*
X88064Y10820D01*
X88095Y10584D01*
X88187Y10365D01*
X88331Y10176D01*
X88520Y10031D01*
X88740Y9940D01*
X88976Y9909D01*
X89212Y9940D01*
X89432Y10031D01*
X89621Y10176D01*
X89766Y10365D01*
X89857Y10584D01*
X89888Y10820D01*
X89857Y11056D01*
X89766Y11276D01*
X89621Y11465D01*
X89432Y11610D01*
X89212Y11701D01*
X88976Y11732D01*
D02*
G37*
G36*
X16002Y11312D02*
X15737Y11277D01*
X15490Y11174D01*
X15277Y11012D01*
X15115Y10799D01*
X15012Y10552D01*
X14977Y10287D01*
X15012Y10022D01*
X15115Y9775D01*
X15277Y9562D01*
X15490Y9400D01*
X15737Y9297D01*
X16002Y9262D01*
X16267Y9297D01*
X16514Y9400D01*
X16727Y9562D01*
X16889Y9775D01*
X16992Y10022D01*
X17027Y10287D01*
X16992Y10552D01*
X16889Y10799D01*
X16727Y11012D01*
X16514Y11174D01*
X16267Y11277D01*
X16002Y11312D01*
D02*
G37*
G36*
X46989Y10303D02*
X46724Y10268D01*
X46477Y10166D01*
X46265Y10003D01*
X46102Y9791D01*
X45999Y9544D01*
X45964Y9278D01*
X45999Y9013D01*
X46102Y8766D01*
X46265Y8554D01*
X46477Y8391D01*
X46724Y8289D01*
X46989Y8254D01*
X47254Y8289D01*
X47502Y8391D01*
X47714Y8554D01*
X47877Y8766D01*
X47979Y9013D01*
X48014Y9278D01*
X47979Y9544D01*
X47877Y9791D01*
X47714Y10003D01*
X47502Y10166D01*
X47254Y10268D01*
X46989Y10303D01*
D02*
G37*
G36*
X90461Y13002D02*
X90225Y12971D01*
X90005Y12880D01*
X89816Y12735D01*
X89672Y12546D01*
X89580Y12326D01*
X89549Y12090D01*
X89580Y11854D01*
X89672Y11634D01*
X89816Y11446D01*
X90005Y11301D01*
X90225Y11210D01*
X90461Y11179D01*
X90697Y11210D01*
X90917Y11301D01*
X91106Y11446D01*
X91251Y11634D01*
X91342Y11854D01*
X91373Y12090D01*
X91342Y12326D01*
X91251Y12546D01*
X91106Y12735D01*
X90917Y12880D01*
X90697Y12971D01*
X90461Y13002D01*
D02*
G37*
G36*
X67158Y13115D02*
X66892Y13080D01*
X66645Y12978D01*
X66433Y12815D01*
X66270Y12603D01*
X66168Y12356D01*
X66133Y12090D01*
X66168Y11825D01*
X66270Y11578D01*
X66433Y11366D01*
X66645Y11203D01*
X66892Y11101D01*
X67158Y11066D01*
X67423Y11101D01*
X67670Y11203D01*
X67882Y11366D01*
X68045Y11578D01*
X68147Y11825D01*
X68182Y12090D01*
X68147Y12356D01*
X68045Y12603D01*
X67882Y12815D01*
X67670Y12978D01*
X67423Y13080D01*
X67158Y13115D01*
D02*
G37*
G36*
X42037Y16949D02*
X41805Y16919D01*
X41589Y16829D01*
X41403Y16687D01*
X41260Y16501D01*
X41171Y16285D01*
X41140Y16053D01*
X41171Y15821D01*
X41260Y15604D01*
X41403Y15419D01*
X41589Y15276D01*
X41805Y15187D01*
X42037Y15156D01*
X42269Y15187D01*
X42485Y15276D01*
X42671Y15419D01*
X42810Y15600D01*
X46020D01*
X49837Y11783D01*
X49807Y11557D01*
X49838Y11325D01*
X49927Y11109D01*
X50070Y10923D01*
X50256Y10780D01*
X50472Y10691D01*
X50704Y10660D01*
X50936Y10691D01*
X51152Y10780D01*
X51338Y10923D01*
X51481Y11109D01*
X51570Y11325D01*
X51601Y11557D01*
X51570Y11789D01*
X51481Y12005D01*
X51338Y12191D01*
X51152Y12334D01*
X50936Y12423D01*
X50704Y12454D01*
X50478Y12424D01*
X46529Y16373D01*
X46382Y16472D01*
X46208Y16506D01*
X42810D01*
X42671Y16687D01*
X42485Y16829D01*
X42269Y16919D01*
X42037Y16949D01*
D02*
G37*
G36*
X38354Y5597D02*
X38089Y5562D01*
X37842Y5459D01*
X37629Y5297D01*
X37467Y5084D01*
X37364Y4837D01*
X37329Y4572D01*
X37364Y4307D01*
X37467Y4060D01*
X37629Y3847D01*
X37842Y3685D01*
X38089Y3582D01*
X38354Y3547D01*
X38619Y3582D01*
X38866Y3685D01*
X39079Y3847D01*
X39241Y4060D01*
X39344Y4307D01*
X39379Y4572D01*
X39344Y4837D01*
X39241Y5084D01*
X39079Y5297D01*
X38866Y5459D01*
X38619Y5562D01*
X38354Y5597D01*
D02*
G37*
G36*
X25400Y4708D02*
X25135Y4673D01*
X24888Y4570D01*
X24675Y4408D01*
X24513Y4195D01*
X24410Y3948D01*
X24375Y3683D01*
X24410Y3418D01*
X24513Y3171D01*
X24675Y2958D01*
X24888Y2796D01*
X25135Y2693D01*
X25400Y2658D01*
X25665Y2693D01*
X25912Y2796D01*
X26125Y2958D01*
X26287Y3171D01*
X26390Y3418D01*
X26425Y3683D01*
X26390Y3948D01*
X26287Y4195D01*
X26125Y4408D01*
X25912Y4570D01*
X25665Y4673D01*
X25400Y4708D01*
D02*
G37*
G36*
X11430Y3057D02*
X11165Y3022D01*
X10918Y2919D01*
X10705Y2757D01*
X10543Y2544D01*
X10440Y2297D01*
X10405Y2032D01*
X10440Y1767D01*
X10543Y1520D01*
X10705Y1307D01*
X10918Y1145D01*
X11165Y1042D01*
X11430Y1007D01*
X11695Y1042D01*
X11942Y1145D01*
X12155Y1307D01*
X12317Y1520D01*
X12420Y1767D01*
X12455Y2032D01*
X12420Y2297D01*
X12317Y2544D01*
X12155Y2757D01*
X11942Y2919D01*
X11695Y3022D01*
X11430Y3057D01*
D02*
G37*
G36*
X16002Y8772D02*
X15737Y8737D01*
X15490Y8634D01*
X15277Y8472D01*
X15115Y8259D01*
X15012Y8012D01*
X14977Y7747D01*
X15012Y7482D01*
X15115Y7235D01*
X15277Y7022D01*
X15490Y6860D01*
X15737Y6757D01*
X16002Y6722D01*
X16267Y6757D01*
X16514Y6860D01*
X16727Y7022D01*
X16889Y7235D01*
X16992Y7482D01*
X17027Y7747D01*
X16992Y8012D01*
X16889Y8259D01*
X16727Y8472D01*
X16514Y8634D01*
X16267Y8737D01*
X16002Y8772D01*
D02*
G37*
G36*
X89078Y8391D02*
X88813Y8356D01*
X88565Y8253D01*
X88353Y8091D01*
X88190Y7878D01*
X88088Y7631D01*
X88053Y7366D01*
X88088Y7101D01*
X88190Y6854D01*
X88353Y6641D01*
X88565Y6479D01*
X88813Y6376D01*
X89078Y6341D01*
X89343Y6376D01*
X89590Y6479D01*
X89802Y6641D01*
X89965Y6854D01*
X90068Y7101D01*
X90103Y7366D01*
X90068Y7631D01*
X89965Y7878D01*
X89802Y8091D01*
X89590Y8253D01*
X89343Y8356D01*
X89078Y8391D01*
D02*
G37*
G36*
X16002Y6232D02*
X15737Y6197D01*
X15490Y6094D01*
X15277Y5932D01*
X15115Y5719D01*
X15012Y5472D01*
X14977Y5207D01*
X15012Y4942D01*
X15115Y4695D01*
X15277Y4482D01*
X15490Y4320D01*
X15737Y4217D01*
X16002Y4182D01*
X16267Y4217D01*
X16514Y4320D01*
X16727Y4482D01*
X16889Y4695D01*
X16992Y4942D01*
X17027Y5207D01*
X16992Y5472D01*
X16889Y5719D01*
X16727Y5932D01*
X16514Y6094D01*
X16267Y6197D01*
X16002Y6232D01*
D02*
G37*
G36*
X6426Y21442D02*
X6242Y21418D01*
X6071Y21347D01*
X5924Y21234D01*
X5811Y21087D01*
X5740Y20916D01*
X5716Y20732D01*
X5740Y20548D01*
X5811Y20377D01*
X5924Y20230D01*
X6071Y20117D01*
X6242Y20046D01*
X6426Y20022D01*
X6610Y20046D01*
X6781Y20117D01*
X6928Y20230D01*
X7041Y20377D01*
X7112Y20548D01*
X7136Y20732D01*
X7112Y20916D01*
X7041Y21087D01*
X6928Y21234D01*
X6781Y21347D01*
X6610Y21418D01*
X6426Y21442D01*
D02*
G37*
G36*
X75438Y19161D02*
X75202Y19130D01*
X74982Y19039D01*
X74793Y18894D01*
X74648Y18705D01*
X74558Y18487D01*
X72274D01*
X72135Y18668D01*
X71949Y18811D01*
X71733Y18900D01*
X71501Y18931D01*
X71269Y18900D01*
X71053Y18811D01*
X70867Y18668D01*
X70724Y18482D01*
X70635Y18266D01*
X70604Y18034D01*
X70635Y17802D01*
X70724Y17586D01*
X70867Y17400D01*
X71053Y17257D01*
X71269Y17168D01*
X71501Y17137D01*
X71733Y17168D01*
X71949Y17257D01*
X72135Y17400D01*
X72274Y17581D01*
X74824D01*
X74982Y17459D01*
X75202Y17368D01*
X75438Y17337D01*
X75674Y17368D01*
X75894Y17459D01*
X76083Y17604D01*
X76228Y17793D01*
X76319Y18013D01*
X76350Y18249D01*
X76319Y18485D01*
X76228Y18705D01*
X76083Y18894D01*
X75894Y19039D01*
X75674Y19130D01*
X75438Y19161D01*
D02*
G37*
G36*
X90424Y20329D02*
X90159Y20294D01*
X89912Y20191D01*
X89699Y20029D01*
X89537Y19816D01*
X89434Y19569D01*
X89399Y19304D01*
X89434Y19039D01*
X89537Y18792D01*
X89699Y18579D01*
X89912Y18417D01*
X90159Y18314D01*
X90424Y18279D01*
X90689Y18314D01*
X90936Y18417D01*
X91149Y18579D01*
X91311Y18792D01*
X91414Y19039D01*
X91449Y19304D01*
X91414Y19569D01*
X91311Y19816D01*
X91149Y20029D01*
X90936Y20191D01*
X90689Y20294D01*
X90424Y20329D01*
D02*
G37*
G36*
X44958Y23885D02*
X44693Y23850D01*
X44446Y23747D01*
X44233Y23585D01*
X44071Y23372D01*
X43968Y23125D01*
X43933Y22860D01*
X43968Y22595D01*
X44071Y22348D01*
X44233Y22135D01*
X44446Y21973D01*
X44693Y21870D01*
X44958Y21835D01*
X45223Y21870D01*
X45470Y21973D01*
X45683Y22135D01*
X45845Y22348D01*
X45948Y22595D01*
X45983Y22860D01*
X45948Y23125D01*
X45845Y23372D01*
X45683Y23585D01*
X45470Y23747D01*
X45223Y23850D01*
X44958Y23885D01*
D02*
G37*
G36*
X94005Y23377D02*
X93740Y23342D01*
X93493Y23239D01*
X93281Y23077D01*
X93118Y22864D01*
X93016Y22617D01*
X92981Y22352D01*
X93016Y22087D01*
X93118Y21840D01*
X93281Y21627D01*
X93493Y21465D01*
X93740Y21362D01*
X94005Y21327D01*
X94271Y21362D01*
X94518Y21465D01*
X94730Y21627D01*
X94893Y21840D01*
X94995Y22087D01*
X95030Y22352D01*
X94995Y22617D01*
X94893Y22864D01*
X94730Y23077D01*
X94518Y23239D01*
X94271Y23342D01*
X94005Y23377D01*
D02*
G37*
G36*
X20828Y22107D02*
X20563Y22072D01*
X20316Y21969D01*
X20103Y21807D01*
X19941Y21594D01*
X19838Y21347D01*
X19803Y21082D01*
X19838Y20817D01*
X19941Y20570D01*
X20103Y20357D01*
X20316Y20195D01*
X20563Y20092D01*
X20828Y20057D01*
X21093Y20092D01*
X21340Y20195D01*
X21553Y20357D01*
X21715Y20570D01*
X21818Y20817D01*
X21853Y21082D01*
X21818Y21347D01*
X21715Y21594D01*
X21553Y21807D01*
X21340Y21969D01*
X21093Y22072D01*
X20828Y22107D01*
D02*
G37*
G36*
X62103Y19249D02*
X61867Y19218D01*
X61647Y19127D01*
X61458Y18982D01*
X61313Y18793D01*
X61222Y18573D01*
X61191Y18337D01*
X61222Y18101D01*
X61313Y17881D01*
X61458Y17692D01*
X61647Y17547D01*
X61867Y17456D01*
X62103Y17425D01*
X62339Y17456D01*
X62559Y17547D01*
X62748Y17692D01*
X62893Y17881D01*
X62984Y18101D01*
X63015Y18337D01*
X62984Y18573D01*
X62893Y18793D01*
X62748Y18982D01*
X62559Y19127D01*
X62339Y19218D01*
X62103Y19249D01*
D02*
G37*
G36*
X90424Y17789D02*
X90159Y17754D01*
X89912Y17651D01*
X89699Y17489D01*
X89537Y17276D01*
X89434Y17029D01*
X89399Y16764D01*
X89434Y16499D01*
X89537Y16252D01*
X89699Y16039D01*
X89912Y15877D01*
X90159Y15774D01*
X90424Y15739D01*
X90689Y15774D01*
X90936Y15877D01*
X91149Y16039D01*
X91311Y16252D01*
X91414Y16499D01*
X91449Y16764D01*
X91414Y17029D01*
X91311Y17276D01*
X91149Y17489D01*
X90936Y17651D01*
X90689Y17754D01*
X90424Y17789D01*
D02*
G37*
G36*
X6426Y17042D02*
X6242Y17018D01*
X6071Y16947D01*
X5924Y16834D01*
X5811Y16687D01*
X5740Y16516D01*
X5716Y16332D01*
X5740Y16148D01*
X5811Y15977D01*
X5924Y15830D01*
X6071Y15717D01*
X6242Y15646D01*
X6426Y15622D01*
X6610Y15646D01*
X6781Y15717D01*
X6928Y15830D01*
X7041Y15977D01*
X7112Y16148D01*
X7136Y16332D01*
X7112Y16516D01*
X7041Y16687D01*
X6928Y16834D01*
X6781Y16947D01*
X6610Y17018D01*
X6426Y17042D01*
D02*
G37*
G36*
X20701Y14106D02*
X20436Y14071D01*
X20189Y13968D01*
X19976Y13806D01*
X19814Y13593D01*
X19711Y13346D01*
X19676Y13081D01*
X19711Y12816D01*
X19814Y12569D01*
X19976Y12356D01*
X20189Y12194D01*
X20436Y12091D01*
X20701Y12056D01*
X20966Y12091D01*
X21213Y12194D01*
X21426Y12356D01*
X21588Y12569D01*
X21691Y12816D01*
X21726Y13081D01*
X21691Y13346D01*
X21588Y13593D01*
X21426Y13806D01*
X21213Y13968D01*
X20966Y14071D01*
X20701Y14106D01*
D02*
G37*
G36*
X47955Y19237D02*
X47690Y19202D01*
X47443Y19099D01*
X47231Y18936D01*
X47068Y18724D01*
X46965Y18477D01*
X46930Y18212D01*
X46965Y17947D01*
X47068Y17699D01*
X47231Y17487D01*
X47443Y17324D01*
X47690Y17222D01*
X47955Y17187D01*
X48220Y17222D01*
X48468Y17324D01*
X48680Y17487D01*
X48843Y17699D01*
X48945Y17947D01*
X48980Y18212D01*
X48945Y18477D01*
X48843Y18724D01*
X48680Y18936D01*
X48468Y19099D01*
X48220Y19202D01*
X47955Y19237D01*
D02*
G37*
G36*
X63373Y17764D02*
X63137Y17733D01*
X62917Y17642D01*
X62728Y17497D01*
X62583Y17308D01*
X62492Y17088D01*
X62461Y16852D01*
X62492Y16616D01*
X62583Y16396D01*
X62728Y16207D01*
X62917Y16062D01*
X63137Y15971D01*
X63373Y15940D01*
X63609Y15971D01*
X63829Y16062D01*
X64018Y16207D01*
X64163Y16396D01*
X64254Y16616D01*
X64285Y16852D01*
X64254Y17088D01*
X64163Y17308D01*
X64018Y17497D01*
X63829Y17642D01*
X63609Y17733D01*
X63373Y17764D01*
D02*
G37*
G36*
X76708Y17676D02*
X76472Y17645D01*
X76252Y17554D01*
X76063Y17409D01*
X75918Y17220D01*
X75827Y17000D01*
X75796Y16764D01*
X75827Y16528D01*
X75918Y16308D01*
X76063Y16119D01*
X76252Y15974D01*
X76472Y15883D01*
X76708Y15852D01*
X76944Y15883D01*
X77164Y15974D01*
X77353Y16119D01*
X77498Y16308D01*
X77589Y16528D01*
X77620Y16764D01*
X77589Y17000D01*
X77498Y17220D01*
X77353Y17409D01*
X77164Y17554D01*
X76944Y17645D01*
X76708Y17676D01*
D02*
G37*
%LPD*%
D21*
X75223Y18034D02*
X75438Y18249D01*
X71501Y18034D02*
X75223D01*
X46208Y16053D02*
X50704Y11557D01*
X42037Y16053D02*
X46208D01*
D24*
X86541Y13702D02*
G03*
X87369Y14528I2435J-1611D01*
G01*
X91461Y12090D02*
G03*
X91461Y12090I-2485J0D01*
G01*
X60492Y14417D02*
G03*
X59665Y15245I1611J2435D01*
G01*
X64588Y16852D02*
G03*
X64588Y16852I-2485J0D01*
G01*
X73827Y14329D02*
G03*
X73000Y15157I1611J2435D01*
G01*
X77923Y16764D02*
G03*
X77923Y16764I-2485J0D01*
G01*
X30011Y16001D02*
G03*
X30011Y16001I-500J0D01*
G01*
X86513Y15384D02*
X87369Y14528D01*
X85686Y14557D02*
X86513Y15384D01*
X85686Y14557D02*
X86542Y13701D01*
X67083Y17359D02*
X69283D01*
X67083Y18709D02*
X69283D01*
Y17359D02*
Y18709D01*
X67083Y17359D02*
Y18709D01*
X58810Y14389D02*
X59665Y15245D01*
X58810Y14389D02*
X59637Y13562D01*
X60492Y14417D01*
X72145Y14301D02*
X73000Y15157D01*
X72145Y14301D02*
X72972Y13474D01*
X73827Y14329D01*
X73747Y22302D02*
Y24502D01*
X75097Y22302D02*
Y24502D01*
X73747Y22302D02*
X75097D01*
X73747Y24502D02*
X75097D01*
X76922Y22302D02*
Y24502D01*
X78272Y22302D02*
Y24502D01*
X76922Y22302D02*
X78272D01*
X76922Y24502D02*
X78272D01*
X94575Y16625D02*
X95925D01*
X94575Y18725D02*
X95925D01*
X94575Y16625D02*
Y18725D01*
X95925Y16625D02*
Y18725D01*
X56219Y4935D02*
X60519D01*
X56219Y2330D02*
Y4935D01*
X60519Y2330D02*
Y4935D01*
X56219Y2330D02*
X60519D01*
X30387Y18858D02*
X32587D01*
X30387Y20208D02*
X32587D01*
Y18858D02*
Y20208D01*
X30387Y18858D02*
Y20208D01*
X37933Y22810D02*
Y25010D01*
X39283Y22810D02*
Y25010D01*
X37933Y22810D02*
X39283D01*
X37933Y25010D02*
X39283D01*
X26475Y23074D02*
X28675D01*
X26475Y24424D02*
X28675D01*
Y23074D02*
Y24424D01*
X26475Y23074D02*
Y24424D01*
X59564Y6514D02*
X61764D01*
X59564Y7864D02*
X61764D01*
Y6514D02*
Y7864D01*
X59564Y6514D02*
Y7864D01*
X64974Y3008D02*
X67174D01*
X64974Y4358D02*
X67174D01*
Y3008D02*
Y4358D01*
X64974Y3008D02*
Y4358D01*
X54010Y6514D02*
X56210D01*
X54010Y7964D02*
X56210D01*
Y6514D02*
Y7964D01*
X54010Y6514D02*
Y7964D01*
X67083Y23227D02*
X69283D01*
X67083Y21777D02*
X69283D01*
X67083D02*
Y23227D01*
X69283Y21777D02*
Y23227D01*
X80332Y17334D02*
X82532D01*
X80332Y18684D02*
X82532D01*
Y17334D02*
Y18684D01*
X80332Y17334D02*
Y18684D01*
X61555Y22302D02*
Y24502D01*
X62905Y22302D02*
Y24502D01*
X61555Y22302D02*
X62905D01*
X61555Y24502D02*
X62905D01*
X89876Y22302D02*
Y24502D01*
X91226Y22302D02*
Y24502D01*
X89876Y22302D02*
X91226D01*
X89876Y24502D02*
X91226D01*
X25236Y15156D02*
Y17356D01*
X23786Y15156D02*
Y17356D01*
X25236D01*
X23786Y15156D02*
X25236D01*
X28611Y11801D02*
X33111D01*
X28611Y16901D02*
X33111D01*
Y11801D02*
Y16901D01*
X28611Y11801D02*
Y16901D01*
X21426Y8409D02*
Y10609D01*
X19976Y8409D02*
Y10609D01*
X21426D01*
X19976Y8409D02*
X21426D01*
X23300Y9334D02*
X25500D01*
X23300Y7884D02*
X25500D01*
X23300D02*
Y9334D01*
X25500Y7884D02*
Y9334D01*
X28615Y8264D02*
Y10464D01*
X27265Y8264D02*
Y10464D01*
X28615D01*
X27265Y8264D02*
X28615D01*
X40804Y22810D02*
Y25010D01*
X42254Y22810D02*
Y25010D01*
X40804Y22810D02*
X42254D01*
X40804Y25010D02*
X42254D01*
X37048Y16003D02*
Y18203D01*
X35698Y16003D02*
Y18203D01*
X37048D01*
X35698Y16003D02*
X37048D01*
X36489Y22810D02*
Y25010D01*
X35139Y22810D02*
Y25010D01*
X36489D01*
X35139Y22810D02*
X36489D01*
X40299Y16003D02*
Y18203D01*
X38949Y16003D02*
Y18203D01*
X40299D01*
X38949Y16003D02*
X40299D01*
X51379Y7039D02*
Y9239D01*
X50029Y7039D02*
Y9239D01*
X51379D01*
X50029Y7039D02*
X51379D01*
X37755Y9355D02*
Y11555D01*
X39205Y9355D02*
Y11555D01*
X37755Y9355D02*
X39205D01*
X37755Y11555D02*
X39205D01*
X41949Y9355D02*
Y11555D01*
X40599Y9355D02*
Y11555D01*
X41949D01*
X40599Y9355D02*
X41949D01*
X45124D02*
Y11555D01*
X43774Y9355D02*
Y11555D01*
X45124D01*
X43774Y9355D02*
X45124D01*
D25*
X60372Y3620D02*
D03*
D26*
X44958Y22860D02*
D03*
X90424Y16764D02*
D03*
Y19304D02*
D03*
X67158Y12090D02*
D03*
X20701Y13081D02*
D03*
Y15621D02*
D03*
X20828Y18542D02*
D03*
Y21082D02*
D03*
X89078Y7366D02*
D03*
X46989Y9278D02*
D03*
X94005Y22352D02*
D03*
X16002Y5207D02*
D03*
Y7747D02*
D03*
Y10287D02*
D03*
X11430Y2032D02*
D03*
X25400Y3683D02*
D03*
X47955Y18212D02*
D03*
X38354Y4572D02*
D03*
D27*
X90461Y12090D02*
D03*
X88976Y10820D02*
D03*
X87491Y12090D02*
D03*
X62103Y18337D02*
D03*
X63373Y16852D02*
D03*
X62103Y15367D02*
D03*
X75438Y18249D02*
D03*
X76708Y16764D02*
D03*
X75438Y15279D02*
D03*
D28*
X6426Y20732D02*
D03*
Y16332D02*
D03*
D29*
X61722Y9652D02*
D03*
X37973Y14859D02*
D03*
X41275Y13335D02*
D03*
X38608Y26543D02*
D03*
X4064Y21463D02*
D03*
X71501Y18034D02*
D03*
X50704Y11557D02*
D03*
X42037Y16053D02*
D03*
M02*
