G04 Layer_Physical_Order=2*
G04 Layer_Color=16711680*
%FSLAX43Y43*%
%MOMM*%
G71*
G01*
G75*
%ADD21C,0.381*%
%ADD22C,0.254*%
%ADD25C,0.900*%
%ADD26C,1.524*%
%ADD27C,1.300*%
%ADD28C,1.270*%
G36*
X99612Y388D02*
X388D01*
Y28850D01*
X99612D01*
Y388D01*
D02*
G37*
%LPC*%
G36*
X42037Y16873D02*
X41825Y16845D01*
X41627Y16763D01*
X41457Y16632D01*
X41327Y16463D01*
X41245Y16265D01*
X41217Y16053D01*
X41245Y15841D01*
X41327Y15643D01*
X41457Y15473D01*
X41627Y15343D01*
X41825Y15261D01*
X42037Y15233D01*
X42249Y15261D01*
X42447Y15343D01*
X42617Y15473D01*
X42747Y15643D01*
X42761Y15677D01*
X46053D01*
X49926Y11804D01*
X49912Y11769D01*
X49884Y11557D01*
X49912Y11345D01*
X49994Y11147D01*
X50124Y10977D01*
X50294Y10847D01*
X50492Y10765D01*
X50704Y10737D01*
X50916Y10765D01*
X51114Y10847D01*
X51284Y10977D01*
X51414Y11147D01*
X51496Y11345D01*
X51524Y11557D01*
X51496Y11769D01*
X51414Y11967D01*
X51284Y12137D01*
X51114Y12267D01*
X50916Y12349D01*
X50704Y12377D01*
X50492Y12349D01*
X50457Y12335D01*
X46474Y16318D01*
X46352Y16400D01*
X46208Y16428D01*
X42761D01*
X42747Y16463D01*
X42617Y16632D01*
X42447Y16763D01*
X42249Y16845D01*
X42037Y16873D01*
D02*
G37*
G36*
X90461Y12925D02*
X90245Y12897D01*
X90044Y12813D01*
X89871Y12681D01*
X89738Y12508D01*
X89655Y12307D01*
X89626Y12090D01*
X89655Y11874D01*
X89738Y11673D01*
X89871Y11500D01*
X90044Y11367D01*
X90245Y11284D01*
X90461Y11255D01*
X90677Y11284D01*
X90879Y11367D01*
X91052Y11500D01*
X91184Y11673D01*
X91268Y11874D01*
X91296Y12090D01*
X91268Y12307D01*
X91184Y12508D01*
X91052Y12681D01*
X90879Y12813D01*
X90677Y12897D01*
X90461Y12925D01*
D02*
G37*
G36*
X20701Y14029D02*
X20456Y13997D01*
X20227Y13902D01*
X20031Y13751D01*
X19880Y13555D01*
X19785Y13326D01*
X19753Y13081D01*
X19785Y12836D01*
X19880Y12607D01*
X20031Y12411D01*
X20227Y12260D01*
X20456Y12165D01*
X20701Y12133D01*
X20946Y12165D01*
X21175Y12260D01*
X21371Y12411D01*
X21522Y12607D01*
X21617Y12836D01*
X21649Y13081D01*
X21617Y13326D01*
X21522Y13555D01*
X21371Y13751D01*
X21175Y13902D01*
X20946Y13997D01*
X20701Y14029D01*
D02*
G37*
G36*
X88976Y11655D02*
X88760Y11627D01*
X88559Y11543D01*
X88386Y11411D01*
X88253Y11238D01*
X88170Y11036D01*
X88141Y10820D01*
X88170Y10604D01*
X88253Y10403D01*
X88386Y10230D01*
X88559Y10097D01*
X88760Y10014D01*
X88976Y9985D01*
X89192Y10014D01*
X89394Y10097D01*
X89567Y10230D01*
X89699Y10403D01*
X89783Y10604D01*
X89811Y10820D01*
X89783Y11036D01*
X89699Y11238D01*
X89567Y11411D01*
X89394Y11543D01*
X89192Y11627D01*
X88976Y11655D01*
D02*
G37*
G36*
X16002Y6155D02*
X15757Y6123D01*
X15528Y6028D01*
X15332Y5877D01*
X15181Y5681D01*
X15086Y5452D01*
X15054Y5207D01*
X15086Y4962D01*
X15181Y4733D01*
X15332Y4537D01*
X15528Y4386D01*
X15757Y4291D01*
X16002Y4259D01*
X16247Y4291D01*
X16476Y4386D01*
X16672Y4537D01*
X16823Y4733D01*
X16918Y4962D01*
X16950Y5207D01*
X16918Y5452D01*
X16823Y5681D01*
X16672Y5877D01*
X16476Y6028D01*
X16247Y6123D01*
X16002Y6155D01*
D02*
G37*
G36*
Y8695D02*
X15757Y8663D01*
X15528Y8568D01*
X15332Y8417D01*
X15181Y8221D01*
X15086Y7992D01*
X15054Y7747D01*
X15086Y7502D01*
X15181Y7273D01*
X15332Y7077D01*
X15528Y6926D01*
X15757Y6831D01*
X16002Y6799D01*
X16247Y6831D01*
X16476Y6926D01*
X16672Y7077D01*
X16823Y7273D01*
X16918Y7502D01*
X16950Y7747D01*
X16918Y7992D01*
X16823Y8221D01*
X16672Y8417D01*
X16476Y8568D01*
X16247Y8663D01*
X16002Y8695D01*
D02*
G37*
G36*
Y11235D02*
X15757Y11203D01*
X15528Y11108D01*
X15332Y10957D01*
X15181Y10761D01*
X15086Y10532D01*
X15054Y10287D01*
X15086Y10042D01*
X15181Y9813D01*
X15332Y9617D01*
X15528Y9466D01*
X15757Y9371D01*
X16002Y9339D01*
X16247Y9371D01*
X16476Y9466D01*
X16672Y9617D01*
X16823Y9813D01*
X16918Y10042D01*
X16950Y10287D01*
X16918Y10532D01*
X16823Y10761D01*
X16672Y10957D01*
X16476Y11108D01*
X16247Y11203D01*
X16002Y11235D01*
D02*
G37*
G36*
X6985Y14199D02*
X6813Y14176D01*
X6652Y14109D01*
X6514Y14003D01*
X6408Y13865D01*
X6342Y13705D01*
X6319Y13532D01*
X6342Y13360D01*
X6408Y13199D01*
X6514Y13061D01*
X6652Y12956D01*
X6813Y12889D01*
X6985Y12866D01*
X7157Y12889D01*
X7318Y12956D01*
X7456Y13061D01*
X7562Y13199D01*
X7628Y13360D01*
X7651Y13532D01*
X7628Y13705D01*
X7562Y13865D01*
X7456Y14003D01*
X7318Y14109D01*
X7157Y14176D01*
X6985Y14199D01*
D02*
G37*
G36*
X90424Y20252D02*
X90179Y20220D01*
X89950Y20125D01*
X89754Y19974D01*
X89603Y19778D01*
X89508Y19549D01*
X89476Y19304D01*
X89508Y19059D01*
X89603Y18830D01*
X89754Y18634D01*
X89950Y18483D01*
X90179Y18388D01*
X90424Y18356D01*
X90669Y18388D01*
X90898Y18483D01*
X91094Y18634D01*
X91245Y18830D01*
X91340Y19059D01*
X91372Y19304D01*
X91340Y19549D01*
X91245Y19778D01*
X91094Y19974D01*
X90898Y20125D01*
X90669Y20220D01*
X90424Y20252D01*
D02*
G37*
G36*
X62103Y19172D02*
X61887Y19143D01*
X61686Y19060D01*
X61513Y18927D01*
X61380Y18754D01*
X61297Y18553D01*
X61268Y18337D01*
X61297Y18121D01*
X61380Y17920D01*
X61513Y17747D01*
X61686Y17614D01*
X61887Y17531D01*
X62103Y17502D01*
X62319Y17531D01*
X62520Y17614D01*
X62693Y17747D01*
X62826Y17920D01*
X62909Y18121D01*
X62938Y18337D01*
X62909Y18553D01*
X62826Y18754D01*
X62693Y18927D01*
X62520Y19060D01*
X62319Y19143D01*
X62103Y19172D01*
D02*
G37*
G36*
X20828Y22030D02*
X20583Y21998D01*
X20354Y21903D01*
X20158Y21752D01*
X20007Y21556D01*
X19912Y21327D01*
X19880Y21082D01*
X19912Y20837D01*
X20007Y20608D01*
X20158Y20412D01*
X20354Y20261D01*
X20583Y20166D01*
X20828Y20134D01*
X21073Y20166D01*
X21302Y20261D01*
X21498Y20412D01*
X21649Y20608D01*
X21744Y20837D01*
X21776Y21082D01*
X21744Y21327D01*
X21649Y21556D01*
X21498Y21752D01*
X21302Y21903D01*
X21073Y21998D01*
X20828Y22030D01*
D02*
G37*
G36*
X75438Y19084D02*
X75222Y19055D01*
X75021Y18972D01*
X74848Y18839D01*
X74715Y18666D01*
X74632Y18465D01*
X74624Y18410D01*
X72225D01*
X72211Y18444D01*
X72081Y18614D01*
X71911Y18744D01*
X71713Y18826D01*
X71501Y18854D01*
X71289Y18826D01*
X71091Y18744D01*
X70921Y18614D01*
X70791Y18444D01*
X70709Y18246D01*
X70681Y18034D01*
X70709Y17822D01*
X70791Y17624D01*
X70921Y17454D01*
X71091Y17324D01*
X71289Y17242D01*
X71501Y17214D01*
X71713Y17242D01*
X71911Y17324D01*
X72081Y17454D01*
X72211Y17624D01*
X72225Y17658D01*
X74848D01*
X75021Y17526D01*
X75222Y17443D01*
X75438Y17414D01*
X75654Y17443D01*
X75855Y17526D01*
X76028Y17659D01*
X76161Y17832D01*
X76244Y18033D01*
X76273Y18249D01*
X76244Y18465D01*
X76161Y18666D01*
X76028Y18839D01*
X75855Y18972D01*
X75654Y19055D01*
X75438Y19084D01*
D02*
G37*
G36*
X76708Y17599D02*
X76492Y17570D01*
X76291Y17487D01*
X76118Y17354D01*
X75985Y17181D01*
X75902Y16980D01*
X75873Y16764D01*
X75902Y16548D01*
X75985Y16347D01*
X76118Y16174D01*
X76291Y16041D01*
X76492Y15958D01*
X76708Y15929D01*
X76924Y15958D01*
X77125Y16041D01*
X77298Y16174D01*
X77431Y16347D01*
X77514Y16548D01*
X77543Y16764D01*
X77514Y16980D01*
X77431Y17181D01*
X77298Y17354D01*
X77125Y17487D01*
X76924Y17570D01*
X76708Y17599D01*
D02*
G37*
G36*
X90424Y17712D02*
X90179Y17680D01*
X89950Y17585D01*
X89754Y17434D01*
X89603Y17238D01*
X89508Y17009D01*
X89476Y16764D01*
X89508Y16519D01*
X89603Y16290D01*
X89754Y16094D01*
X89950Y15943D01*
X90179Y15848D01*
X90424Y15816D01*
X90669Y15848D01*
X90898Y15943D01*
X91094Y16094D01*
X91245Y16290D01*
X91340Y16519D01*
X91372Y16764D01*
X91340Y17009D01*
X91245Y17238D01*
X91094Y17434D01*
X90898Y17585D01*
X90669Y17680D01*
X90424Y17712D01*
D02*
G37*
G36*
X6985Y18598D02*
X6813Y18576D01*
X6652Y18509D01*
X6514Y18403D01*
X6408Y18265D01*
X6342Y18105D01*
X6319Y17932D01*
X6342Y17760D01*
X6408Y17599D01*
X6514Y17461D01*
X6652Y17356D01*
X6813Y17289D01*
X6985Y17266D01*
X7157Y17289D01*
X7318Y17356D01*
X7456Y17461D01*
X7562Y17599D01*
X7628Y17760D01*
X7651Y17932D01*
X7628Y18105D01*
X7562Y18265D01*
X7456Y18403D01*
X7318Y18509D01*
X7157Y18576D01*
X6985Y18598D01*
D02*
G37*
G36*
X63373Y17687D02*
X63157Y17658D01*
X62956Y17575D01*
X62783Y17442D01*
X62650Y17269D01*
X62567Y17068D01*
X62538Y16852D01*
X62567Y16636D01*
X62650Y16435D01*
X62783Y16262D01*
X62956Y16129D01*
X63157Y16046D01*
X63373Y16017D01*
X63589Y16046D01*
X63790Y16129D01*
X63963Y16262D01*
X64096Y16435D01*
X64179Y16636D01*
X64208Y16852D01*
X64179Y17068D01*
X64096Y17269D01*
X63963Y17442D01*
X63790Y17575D01*
X63589Y17658D01*
X63373Y17687D01*
D02*
G37*
%LPD*%
D21*
X75223Y18034D02*
X75438Y18249D01*
X71501Y18034D02*
X75223D01*
X46208Y16053D02*
X50704Y11557D01*
X42037Y16053D02*
X46208D01*
D22*
X508Y0D02*
X100000D01*
Y29238D01*
X0D02*
X100000D01*
X0Y0D02*
Y29238D01*
Y0D02*
X508D01*
D25*
X6985Y13532D02*
D03*
Y17932D02*
D03*
D26*
X20701Y13081D02*
D03*
Y15621D02*
D03*
X20828Y18542D02*
D03*
Y21082D02*
D03*
X90424Y16764D02*
D03*
Y19304D02*
D03*
X16002Y5207D02*
D03*
Y7747D02*
D03*
Y10287D02*
D03*
D27*
X90461Y12090D02*
D03*
X88976Y10820D02*
D03*
X87491Y12090D02*
D03*
X62103Y18337D02*
D03*
X63373Y16852D02*
D03*
X62103Y15367D02*
D03*
X75438Y18249D02*
D03*
X76708Y16764D02*
D03*
X75438Y15279D02*
D03*
D28*
X12776Y14122D02*
D03*
X61722Y9652D02*
D03*
X37973Y14859D02*
D03*
X41275Y13335D02*
D03*
X38608Y26543D02*
D03*
X71501Y18034D02*
D03*
X50704Y11557D02*
D03*
X42037Y16053D02*
D03*
M02*
