G04 Layer_Physical_Order=2*
G04 Layer_Color=16711680*
%FSLAX43Y43*%
%MOMM*%
G71*
G01*
G75*
%ADD22C,0.381*%
%ADD24C,0.254*%
%ADD25C,0.100*%
%ADD26R,0.232X2.616*%
%ADD27C,0.900*%
%ADD28C,1.524*%
%ADD29C,1.300*%
%ADD30C,1.270*%
G36*
X99612Y388D02*
X388D01*
Y28850D01*
X99612D01*
Y388D01*
D02*
G37*
%LPC*%
G36*
X42037Y16949D02*
X41805Y16919D01*
X41589Y16829D01*
X41403Y16687D01*
X41260Y16501D01*
X41171Y16285D01*
X41140Y16053D01*
X41171Y15821D01*
X41260Y15604D01*
X41403Y15419D01*
X41589Y15276D01*
X41805Y15187D01*
X42037Y15156D01*
X42269Y15187D01*
X42485Y15276D01*
X42671Y15419D01*
X42810Y15600D01*
X46020D01*
X49837Y11783D01*
X49807Y11557D01*
X49838Y11325D01*
X49927Y11109D01*
X50070Y10923D01*
X50256Y10780D01*
X50472Y10691D01*
X50704Y10660D01*
X50936Y10691D01*
X51152Y10780D01*
X51338Y10923D01*
X51481Y11109D01*
X51570Y11325D01*
X51601Y11557D01*
X51570Y11789D01*
X51481Y12005D01*
X51338Y12191D01*
X51152Y12334D01*
X50936Y12423D01*
X50704Y12454D01*
X50478Y12424D01*
X46529Y16373D01*
X46382Y16472D01*
X46208Y16506D01*
X42810D01*
X42671Y16687D01*
X42485Y16829D01*
X42269Y16919D01*
X42037Y16949D01*
D02*
G37*
G36*
X90461Y13002D02*
X90225Y12971D01*
X90005Y12880D01*
X89816Y12735D01*
X89672Y12546D01*
X89580Y12326D01*
X89549Y12090D01*
X89580Y11854D01*
X89672Y11634D01*
X89816Y11446D01*
X90005Y11301D01*
X90225Y11210D01*
X90461Y11179D01*
X90697Y11210D01*
X90917Y11301D01*
X91106Y11446D01*
X91251Y11634D01*
X91342Y11854D01*
X91373Y12090D01*
X91342Y12326D01*
X91251Y12546D01*
X91106Y12735D01*
X90917Y12880D01*
X90697Y12971D01*
X90461Y13002D01*
D02*
G37*
G36*
X20701Y14106D02*
X20436Y14071D01*
X20189Y13968D01*
X19976Y13806D01*
X19814Y13593D01*
X19711Y13346D01*
X19676Y13081D01*
X19711Y12816D01*
X19814Y12569D01*
X19976Y12356D01*
X20189Y12194D01*
X20436Y12091D01*
X20701Y12056D01*
X20966Y12091D01*
X21213Y12194D01*
X21426Y12356D01*
X21588Y12569D01*
X21691Y12816D01*
X21726Y13081D01*
X21691Y13346D01*
X21588Y13593D01*
X21426Y13806D01*
X21213Y13968D01*
X20966Y14071D01*
X20701Y14106D01*
D02*
G37*
G36*
X88976Y11732D02*
X88740Y11701D01*
X88520Y11610D01*
X88331Y11465D01*
X88187Y11276D01*
X88095Y11056D01*
X88064Y10820D01*
X88095Y10584D01*
X88187Y10365D01*
X88331Y10176D01*
X88520Y10031D01*
X88740Y9940D01*
X88976Y9909D01*
X89212Y9940D01*
X89432Y10031D01*
X89621Y10176D01*
X89766Y10365D01*
X89857Y10584D01*
X89888Y10820D01*
X89857Y11056D01*
X89766Y11276D01*
X89621Y11465D01*
X89432Y11610D01*
X89212Y11701D01*
X88976Y11732D01*
D02*
G37*
G36*
X16002Y6232D02*
X15737Y6197D01*
X15490Y6094D01*
X15277Y5932D01*
X15115Y5719D01*
X15012Y5472D01*
X14977Y5207D01*
X15012Y4942D01*
X15115Y4695D01*
X15277Y4482D01*
X15490Y4320D01*
X15737Y4217D01*
X16002Y4182D01*
X16267Y4217D01*
X16514Y4320D01*
X16727Y4482D01*
X16889Y4695D01*
X16992Y4942D01*
X17027Y5207D01*
X16992Y5472D01*
X16889Y5719D01*
X16727Y5932D01*
X16514Y6094D01*
X16267Y6197D01*
X16002Y6232D01*
D02*
G37*
G36*
Y8772D02*
X15737Y8737D01*
X15490Y8634D01*
X15277Y8472D01*
X15115Y8259D01*
X15012Y8012D01*
X14977Y7747D01*
X15012Y7482D01*
X15115Y7235D01*
X15277Y7022D01*
X15490Y6860D01*
X15737Y6757D01*
X16002Y6722D01*
X16267Y6757D01*
X16514Y6860D01*
X16727Y7022D01*
X16889Y7235D01*
X16992Y7482D01*
X17027Y7747D01*
X16992Y8012D01*
X16889Y8259D01*
X16727Y8472D01*
X16514Y8634D01*
X16267Y8737D01*
X16002Y8772D01*
D02*
G37*
G36*
Y11312D02*
X15737Y11277D01*
X15490Y11174D01*
X15277Y11012D01*
X15115Y10799D01*
X15012Y10552D01*
X14977Y10287D01*
X15012Y10022D01*
X15115Y9775D01*
X15277Y9562D01*
X15490Y9400D01*
X15737Y9297D01*
X16002Y9262D01*
X16267Y9297D01*
X16514Y9400D01*
X16727Y9562D01*
X16889Y9775D01*
X16992Y10022D01*
X17027Y10287D01*
X16992Y10552D01*
X16889Y10799D01*
X16727Y11012D01*
X16514Y11174D01*
X16267Y11277D01*
X16002Y11312D01*
D02*
G37*
G36*
X6426Y17075D02*
X6234Y17050D01*
X6055Y16976D01*
X5901Y16858D01*
X5783Y16704D01*
X5709Y16524D01*
X5683Y16332D01*
X5709Y16140D01*
X5783Y15961D01*
X5901Y15807D01*
X6055Y15689D01*
X6234Y15615D01*
X6426Y15589D01*
X6618Y15615D01*
X6798Y15689D01*
X6952Y15807D01*
X7070Y15961D01*
X7144Y16140D01*
X7169Y16332D01*
X7144Y16524D01*
X7070Y16704D01*
X6952Y16858D01*
X6798Y16976D01*
X6618Y17050D01*
X6426Y17075D01*
D02*
G37*
G36*
X75438Y19161D02*
X75202Y19130D01*
X74982Y19039D01*
X74793Y18894D01*
X74648Y18705D01*
X74558Y18487D01*
X72274D01*
X72135Y18668D01*
X71949Y18811D01*
X71733Y18900D01*
X71501Y18931D01*
X71269Y18900D01*
X71053Y18811D01*
X70867Y18668D01*
X70724Y18482D01*
X70635Y18266D01*
X70604Y18034D01*
X70635Y17802D01*
X70724Y17586D01*
X70867Y17400D01*
X71053Y17257D01*
X71269Y17168D01*
X71501Y17137D01*
X71733Y17168D01*
X71949Y17257D01*
X72135Y17400D01*
X72274Y17581D01*
X74824D01*
X74982Y17459D01*
X75202Y17368D01*
X75438Y17337D01*
X75674Y17368D01*
X75894Y17459D01*
X76083Y17604D01*
X76228Y17793D01*
X76319Y18013D01*
X76350Y18249D01*
X76319Y18485D01*
X76228Y18705D01*
X76083Y18894D01*
X75894Y19039D01*
X75674Y19130D01*
X75438Y19161D01*
D02*
G37*
G36*
X90424Y20329D02*
X90159Y20294D01*
X89912Y20191D01*
X89699Y20029D01*
X89537Y19816D01*
X89434Y19569D01*
X89399Y19304D01*
X89434Y19039D01*
X89537Y18792D01*
X89699Y18579D01*
X89912Y18417D01*
X90159Y18314D01*
X90424Y18279D01*
X90689Y18314D01*
X90936Y18417D01*
X91149Y18579D01*
X91311Y18792D01*
X91414Y19039D01*
X91449Y19304D01*
X91414Y19569D01*
X91311Y19816D01*
X91149Y20029D01*
X90936Y20191D01*
X90689Y20294D01*
X90424Y20329D01*
D02*
G37*
G36*
X20828Y22107D02*
X20563Y22072D01*
X20316Y21969D01*
X20103Y21807D01*
X19941Y21594D01*
X19838Y21347D01*
X19803Y21082D01*
X19838Y20817D01*
X19941Y20570D01*
X20103Y20357D01*
X20316Y20195D01*
X20563Y20092D01*
X20828Y20057D01*
X21093Y20092D01*
X21340Y20195D01*
X21553Y20357D01*
X21715Y20570D01*
X21818Y20817D01*
X21853Y21082D01*
X21818Y21347D01*
X21715Y21594D01*
X21553Y21807D01*
X21340Y21969D01*
X21093Y22072D01*
X20828Y22107D01*
D02*
G37*
G36*
X6426Y21475D02*
X6234Y21450D01*
X6055Y21376D01*
X5901Y21258D01*
X5783Y21104D01*
X5709Y20924D01*
X5683Y20732D01*
X5709Y20540D01*
X5783Y20361D01*
X5901Y20207D01*
X6055Y20089D01*
X6234Y20015D01*
X6426Y19989D01*
X6618Y20015D01*
X6798Y20089D01*
X6952Y20207D01*
X7070Y20361D01*
X7144Y20540D01*
X7169Y20732D01*
X7144Y20924D01*
X7070Y21104D01*
X6952Y21258D01*
X6798Y21376D01*
X6618Y21450D01*
X6426Y21475D01*
D02*
G37*
G36*
X76708Y17676D02*
X76472Y17645D01*
X76252Y17554D01*
X76063Y17409D01*
X75918Y17220D01*
X75827Y17000D01*
X75796Y16764D01*
X75827Y16528D01*
X75918Y16308D01*
X76063Y16119D01*
X76252Y15974D01*
X76472Y15883D01*
X76708Y15852D01*
X76944Y15883D01*
X77164Y15974D01*
X77353Y16119D01*
X77498Y16308D01*
X77589Y16528D01*
X77620Y16764D01*
X77589Y17000D01*
X77498Y17220D01*
X77353Y17409D01*
X77164Y17554D01*
X76944Y17645D01*
X76708Y17676D01*
D02*
G37*
G36*
X90424Y17789D02*
X90159Y17754D01*
X89912Y17651D01*
X89699Y17489D01*
X89537Y17276D01*
X89434Y17029D01*
X89399Y16764D01*
X89434Y16499D01*
X89537Y16252D01*
X89699Y16039D01*
X89912Y15877D01*
X90159Y15774D01*
X90424Y15739D01*
X90689Y15774D01*
X90936Y15877D01*
X91149Y16039D01*
X91311Y16252D01*
X91414Y16499D01*
X91449Y16764D01*
X91414Y17029D01*
X91311Y17276D01*
X91149Y17489D01*
X90936Y17651D01*
X90689Y17754D01*
X90424Y17789D01*
D02*
G37*
G36*
X62103Y19249D02*
X61867Y19218D01*
X61647Y19127D01*
X61458Y18982D01*
X61313Y18793D01*
X61222Y18573D01*
X61191Y18337D01*
X61222Y18101D01*
X61313Y17881D01*
X61458Y17692D01*
X61647Y17547D01*
X61867Y17456D01*
X62103Y17425D01*
X62339Y17456D01*
X62559Y17547D01*
X62748Y17692D01*
X62893Y17881D01*
X62984Y18101D01*
X63015Y18337D01*
X62984Y18573D01*
X62893Y18793D01*
X62748Y18982D01*
X62559Y19127D01*
X62339Y19218D01*
X62103Y19249D01*
D02*
G37*
G36*
X63373Y17764D02*
X63137Y17733D01*
X62917Y17642D01*
X62728Y17497D01*
X62583Y17308D01*
X62492Y17088D01*
X62461Y16852D01*
X62492Y16616D01*
X62583Y16396D01*
X62728Y16207D01*
X62917Y16062D01*
X63137Y15971D01*
X63373Y15940D01*
X63609Y15971D01*
X63829Y16062D01*
X64018Y16207D01*
X64163Y16396D01*
X64254Y16616D01*
X64285Y16852D01*
X64254Y17088D01*
X64163Y17308D01*
X64018Y17497D01*
X63829Y17642D01*
X63609Y17733D01*
X63373Y17764D01*
D02*
G37*
%LPD*%
D22*
X42037Y16053D02*
X46208D01*
X50704Y11557D01*
X71501Y18034D02*
X75223D01*
X75438Y18249D01*
D24*
X0Y0D02*
X508D01*
X0D02*
Y29238D01*
X100000D01*
Y0D02*
Y29238D01*
X508Y0D02*
X100000D01*
D25*
X30011Y16001D02*
G03*
X30011Y16001I-500J0D01*
G01*
X77923Y16764D02*
G03*
X77923Y16764I-2485J0D01*
G01*
X73827Y14329D02*
G03*
X73000Y15157I1611J2435D01*
G01*
X64588Y16852D02*
G03*
X64588Y16852I-2485J0D01*
G01*
X60492Y14417D02*
G03*
X59665Y15245I1611J2435D01*
G01*
X91461Y12090D02*
G03*
X91461Y12090I-2485J0D01*
G01*
X86541Y13702D02*
G03*
X87369Y14528I2435J-1611D01*
G01*
X43774Y9355D02*
X45124D01*
X43774Y11555D02*
X45124D01*
X43774Y9355D02*
Y11555D01*
X45124Y9355D02*
Y11555D01*
X40599Y9355D02*
X41949D01*
X40599Y11555D02*
X41949D01*
X40599Y9355D02*
Y11555D01*
X41949Y9355D02*
Y11555D01*
X37755D02*
X39205D01*
X37755Y9355D02*
X39205D01*
Y11555D01*
X37755Y9355D02*
Y11555D01*
X50029Y7039D02*
X51379D01*
X50029Y9239D02*
X51379D01*
X50029Y7039D02*
Y9239D01*
X51379Y7039D02*
Y9239D01*
X38949Y16003D02*
X40299D01*
X38949Y18203D02*
X40299D01*
X38949Y16003D02*
Y18203D01*
X40299Y16003D02*
Y18203D01*
X35139Y22810D02*
X36489D01*
X35139Y25010D02*
X36489D01*
X35139Y22810D02*
Y25010D01*
X36489Y22810D02*
Y25010D01*
X35698Y16003D02*
X37048D01*
X35698Y18203D02*
X37048D01*
X35698Y16003D02*
Y18203D01*
X37048Y16003D02*
Y18203D01*
X40804Y25010D02*
X42254D01*
X40804Y22810D02*
X42254D01*
Y25010D01*
X40804Y22810D02*
Y25010D01*
X27265Y8264D02*
X28615D01*
X27265Y10464D02*
X28615D01*
X27265Y8264D02*
Y10464D01*
X28615Y8264D02*
Y10464D01*
X25500Y7884D02*
Y9334D01*
X23300Y7884D02*
Y9334D01*
Y7884D02*
X25500D01*
X23300Y9334D02*
X25500D01*
X19976Y8409D02*
X21426D01*
X19976Y10609D02*
X21426D01*
X19976Y8409D02*
Y10609D01*
X21426Y8409D02*
Y10609D01*
X28611Y11801D02*
Y16901D01*
X33111Y11801D02*
Y16901D01*
X28611D02*
X33111D01*
X28611Y11801D02*
X33111D01*
X23786Y15156D02*
X25236D01*
X23786Y17356D02*
X25236D01*
X23786Y15156D02*
Y17356D01*
X25236Y15156D02*
Y17356D01*
X89876Y24502D02*
X91226D01*
X89876Y22302D02*
X91226D01*
Y24502D01*
X89876Y22302D02*
Y24502D01*
X61555D02*
X62905D01*
X61555Y22302D02*
X62905D01*
Y24502D01*
X61555Y22302D02*
Y24502D01*
X80332Y17334D02*
Y18684D01*
X82532Y17334D02*
Y18684D01*
X80332D02*
X82532D01*
X80332Y17334D02*
X82532D01*
X69283Y21777D02*
Y23227D01*
X67083Y21777D02*
Y23227D01*
Y21777D02*
X69283D01*
X67083Y23227D02*
X69283D01*
X54010Y6514D02*
Y7964D01*
X56210Y6514D02*
Y7964D01*
X54010D02*
X56210D01*
X54010Y6514D02*
X56210D01*
X64974Y3008D02*
Y4358D01*
X67174Y3008D02*
Y4358D01*
X64974D02*
X67174D01*
X64974Y3008D02*
X67174D01*
X59564Y6514D02*
Y7864D01*
X61764Y6514D02*
Y7864D01*
X59564D02*
X61764D01*
X59564Y6514D02*
X61764D01*
X26475Y23074D02*
Y24424D01*
X28675Y23074D02*
Y24424D01*
X26475D02*
X28675D01*
X26475Y23074D02*
X28675D01*
X37933Y25010D02*
X39283D01*
X37933Y22810D02*
X39283D01*
Y25010D01*
X37933Y22810D02*
Y25010D01*
X30387Y18858D02*
Y20208D01*
X32587Y18858D02*
Y20208D01*
X30387D02*
X32587D01*
X30387Y18858D02*
X32587D01*
X56219Y2330D02*
X60519D01*
Y4935D01*
X56219Y2330D02*
Y4935D01*
X60519D01*
X95925Y16625D02*
Y18725D01*
X94575Y16625D02*
Y18725D01*
X95925D01*
X94575Y16625D02*
X95925D01*
X76922Y24502D02*
X78272D01*
X76922Y22302D02*
X78272D01*
Y24502D01*
X76922Y22302D02*
Y24502D01*
X73747D02*
X75097D01*
X73747Y22302D02*
X75097D01*
Y24502D01*
X73747Y22302D02*
Y24502D01*
X72972Y13474D02*
X73827Y14329D01*
X72145Y14301D02*
X72972Y13474D01*
X72145Y14301D02*
X73000Y15157D01*
X59637Y13562D02*
X60492Y14417D01*
X58810Y14389D02*
X59637Y13562D01*
X58810Y14389D02*
X59665Y15245D01*
X67083Y17359D02*
Y18709D01*
X69283Y17359D02*
Y18709D01*
X67083D02*
X69283D01*
X67083Y17359D02*
X69283D01*
X85686Y14557D02*
X86542Y13701D01*
X85686Y14557D02*
X86513Y15384D01*
X87369Y14528D01*
D26*
X60372Y3620D02*
D03*
D27*
X6426Y16332D02*
D03*
Y20732D02*
D03*
D28*
X16002Y10287D02*
D03*
Y7747D02*
D03*
Y5207D02*
D03*
X20828Y21082D02*
D03*
Y18542D02*
D03*
X20701Y15621D02*
D03*
Y13081D02*
D03*
X90424Y19304D02*
D03*
Y16764D02*
D03*
D29*
X75438Y15279D02*
D03*
X76708Y16764D02*
D03*
X75438Y18249D02*
D03*
X62103Y15367D02*
D03*
X63373Y16852D02*
D03*
X62103Y18337D02*
D03*
X87491Y12090D02*
D03*
X88976Y10820D02*
D03*
X90461Y12090D02*
D03*
D30*
X42037Y16053D02*
D03*
X50704Y11557D02*
D03*
X71501Y18034D02*
D03*
X4064Y21463D02*
D03*
X38608Y26543D02*
D03*
X41275Y13335D02*
D03*
X37973Y14859D02*
D03*
X61722Y9652D02*
D03*
M02*
