G04 Layer_Physical_Order=1*
G04 Layer_Color=255*
%FSLAX43Y43*%
%MOMM*%
G71*
G01*
G75*
G04:AMPARAMS|DCode=10|XSize=3.5mm|YSize=2.05mm|CornerRadius=0.512mm|HoleSize=0mm|Usage=FLASHONLY|Rotation=0.000|XOffset=0mm|YOffset=0mm|HoleType=Round|Shape=RoundedRectangle|*
%AMROUNDEDRECTD10*
21,1,3.500,1.025,0,0,0.0*
21,1,2.475,2.050,0,0,0.0*
1,1,1.025,1.238,-0.512*
1,1,1.025,-1.238,-0.512*
1,1,1.025,-1.238,0.512*
1,1,1.025,1.238,0.512*
%
%ADD10ROUNDEDRECTD10*%
G04:AMPARAMS|DCode=11|XSize=4mm|YSize=2.05mm|CornerRadius=0.512mm|HoleSize=0mm|Usage=FLASHONLY|Rotation=0.000|XOffset=0mm|YOffset=0mm|HoleType=Round|Shape=RoundedRectangle|*
%AMROUNDEDRECTD11*
21,1,4.000,1.025,0,0,0.0*
21,1,2.975,2.050,0,0,0.0*
1,1,1.025,1.488,-0.512*
1,1,1.025,-1.488,-0.512*
1,1,1.025,-1.488,0.512*
1,1,1.025,1.488,0.512*
%
%ADD11ROUNDEDRECTD11*%
G04:AMPARAMS|DCode=12|XSize=3.5mm|YSize=2.05mm|CornerRadius=0.512mm|HoleSize=0mm|Usage=FLASHONLY|Rotation=0.000|XOffset=0mm|YOffset=0mm|HoleType=Round|Shape=RoundedRectangle|*
%AMROUNDEDRECTD12*
21,1,3.500,1.025,0,0,0.0*
21,1,2.475,2.050,0,0,0.0*
1,1,1.025,1.238,-0.512*
1,1,1.025,-1.238,-0.512*
1,1,1.025,-1.238,0.512*
1,1,1.025,1.238,0.512*
%
%ADD12ROUNDEDRECTD12*%
G04:AMPARAMS|DCode=13|XSize=2.8mm|YSize=0.5mm|CornerRadius=0.125mm|HoleSize=0mm|Usage=FLASHONLY|Rotation=0.000|XOffset=0mm|YOffset=0mm|HoleType=Round|Shape=RoundedRectangle|*
%AMROUNDEDRECTD13*
21,1,2.800,0.250,0,0,0.0*
21,1,2.550,0.500,0,0,0.0*
1,1,0.250,1.275,-0.125*
1,1,0.250,-1.275,-0.125*
1,1,0.250,-1.275,0.125*
1,1,0.250,1.275,0.125*
%
%ADD13ROUNDEDRECTD13*%
%ADD14R,1.500X1.250*%
%ADD15R,1.550X1.350*%
%ADD16R,1.350X1.550*%
%ADD17O,1.250X0.350*%
%ADD18R,1.250X1.500*%
%ADD19R,2.500X1.700*%
%ADD20R,1.200X1.100*%
%ADD21C,0.025*%
%ADD22C,0.381*%
%ADD23C,0.762*%
%ADD24C,0.254*%
%ADD25C,0.100*%
%ADD26R,0.232X2.616*%
%ADD27C,0.900*%
%ADD28C,1.524*%
%ADD29C,1.300*%
%ADD30C,1.270*%
D10*
X4076Y13607D02*
D03*
D11*
X8326D02*
D03*
Y23457D02*
D03*
D12*
X4076D02*
D03*
D13*
X4101Y17732D02*
D03*
Y16932D02*
D03*
Y19332D02*
D03*
Y20132D02*
D03*
Y18532D02*
D03*
D14*
X44449Y9405D02*
D03*
Y11505D02*
D03*
X41274Y9405D02*
D03*
Y11505D02*
D03*
X50704Y7089D02*
D03*
Y9189D02*
D03*
X39624Y16053D02*
D03*
Y18153D02*
D03*
X35814Y22860D02*
D03*
Y24960D02*
D03*
X36373Y16053D02*
D03*
Y18153D02*
D03*
X27940Y8314D02*
D03*
Y10414D02*
D03*
X90551Y24452D02*
D03*
Y22352D02*
D03*
X62230Y24452D02*
D03*
Y22352D02*
D03*
X38608Y24960D02*
D03*
Y22860D02*
D03*
X77597Y24452D02*
D03*
Y22352D02*
D03*
X74422Y24452D02*
D03*
Y22352D02*
D03*
D15*
X38480Y11455D02*
D03*
Y9455D02*
D03*
X41529Y24910D02*
D03*
Y22910D02*
D03*
X20701Y8509D02*
D03*
Y10509D02*
D03*
X24511Y15256D02*
D03*
Y17256D02*
D03*
D16*
X25400Y8609D02*
D03*
X23400D02*
D03*
X69183Y22502D02*
D03*
X67183D02*
D03*
X54110Y7239D02*
D03*
X56110D02*
D03*
D17*
X28036Y16301D02*
D03*
Y15651D02*
D03*
Y15001D02*
D03*
Y14351D02*
D03*
Y13701D02*
D03*
Y13051D02*
D03*
Y12401D02*
D03*
X33686Y16301D02*
D03*
Y15651D02*
D03*
Y15001D02*
D03*
Y14351D02*
D03*
Y13701D02*
D03*
Y13051D02*
D03*
Y12401D02*
D03*
D18*
X80382Y18009D02*
D03*
X82482D02*
D03*
X65024Y3683D02*
D03*
X67124D02*
D03*
X59614Y7189D02*
D03*
X61714D02*
D03*
X26525Y23749D02*
D03*
X28625D02*
D03*
X30437Y19533D02*
D03*
X32537D02*
D03*
X67133Y18034D02*
D03*
X69233D02*
D03*
D19*
X60369Y3632D02*
D03*
X56369D02*
D03*
D20*
X95250Y18725D02*
D03*
Y16625D02*
D03*
D21*
X147510Y4793D02*
X148689Y5971D01*
X147510Y3269D02*
X150213Y5971D01*
X147510Y1745D02*
X151737Y5971D01*
X147510Y221D02*
X153261Y5971D01*
X147510Y-1303D02*
X154785Y5971D01*
X147510Y-2827D02*
X156309Y5971D01*
X147510Y-4351D02*
X157833Y5971D01*
X147510Y-5875D02*
X159357Y5971D01*
X147510Y-7399D02*
X160881Y5971D01*
X147510Y-8923D02*
X162405Y5971D01*
X147510Y-10447D02*
X163929Y5971D01*
X147510Y-11971D02*
X165453Y5971D01*
X147510Y-13495D02*
X166977Y5971D01*
X147510Y-15019D02*
X168501Y5971D01*
X147510Y-16543D02*
X170025Y5971D01*
X147510Y-18067D02*
X171549Y5971D01*
X147510Y-19591D02*
X173073Y5971D01*
X147510Y-21115D02*
X174597Y5971D01*
X147510Y-22639D02*
X176121Y5971D01*
X147510Y-24163D02*
X177645Y5971D01*
X147510Y-25687D02*
X179169Y5971D01*
X147510Y-27211D02*
X180693Y5971D01*
X148482Y-27763D02*
X182217Y5971D01*
X150006Y-27763D02*
X183741Y5971D01*
X151530Y-27763D02*
X185265Y5971D01*
X153054Y-27763D02*
X186789Y5971D01*
X154578Y-27763D02*
X188313Y5971D01*
X156102Y-27763D02*
X189837Y5971D01*
X157626Y-27763D02*
X191361Y5971D01*
X159150Y-27763D02*
X192885Y5971D01*
X160674Y-27763D02*
X194409Y5971D01*
X162198Y-27763D02*
X195933Y5971D01*
X163722Y-27763D02*
X197457Y5971D01*
X165246Y-27763D02*
X198981Y5971D01*
X166770Y-27763D02*
X200505Y5971D01*
X168294Y-27763D02*
X202029Y5971D01*
X169818Y-27763D02*
X203553Y5971D01*
X171342Y-27763D02*
X205077Y5971D01*
X172866Y-27763D02*
X206601Y5971D01*
X174390Y-27763D02*
X208125Y5971D01*
X175914Y-27763D02*
X209649Y5971D01*
X177438Y-27763D02*
X211173Y5971D01*
X178962Y-27763D02*
X212697Y5971D01*
X180486Y-27763D02*
X214221Y5971D01*
X182010Y-27763D02*
X215745Y5971D01*
X183534Y-27763D02*
X217269Y5971D01*
X185058Y-27763D02*
X218793Y5971D01*
X186582Y-27763D02*
X220317Y5971D01*
X188106Y-27763D02*
X221841Y5971D01*
X189630Y-27763D02*
X223365Y5971D01*
X191154Y-27763D02*
X224889Y5971D01*
X192678Y-27763D02*
X226413Y5971D01*
X194202Y-27763D02*
X227937Y5971D01*
X195726Y-27763D02*
X229461Y5971D01*
X197250Y-27763D02*
X230985Y5971D01*
X198774Y-27763D02*
X232509Y5971D01*
X200298Y-27763D02*
X234033Y5971D01*
X201822Y-27763D02*
X235557Y5971D01*
X203346Y-27763D02*
X237081Y5971D01*
X204870Y-27763D02*
X238605Y5971D01*
X206394Y-27763D02*
X240129Y5971D01*
X207918Y-27763D02*
X241653Y5971D01*
X209442Y-27763D02*
X243177Y5971D01*
X210966Y-27763D02*
X244701Y5971D01*
X212490Y-27763D02*
X246225Y5971D01*
X214014Y-27763D02*
X247749Y5971D01*
X215538Y-27763D02*
X249273Y5971D01*
X217062Y-27763D02*
X250797Y5971D01*
X218586Y-27763D02*
X252321Y5971D01*
X220110Y-27763D02*
X253845Y5971D01*
X221634Y-27763D02*
X255369Y5971D01*
X223158Y-27763D02*
X256893Y5971D01*
X224682Y-27763D02*
X258417Y5971D01*
X226206Y-27763D02*
X259941Y5971D01*
X227730Y-27763D02*
X261465Y5971D01*
X229254Y-27763D02*
X262796Y5779D01*
X230778Y-27763D02*
X262796Y4254D01*
X232302Y-27763D02*
X262796Y2730D01*
X233826Y-27763D02*
X262796Y1207D01*
X235350Y-27763D02*
X262796Y-317D01*
X236874Y-27763D02*
X262796Y-1842D01*
X238398Y-27763D02*
X262796Y-3365D01*
X239922Y-27763D02*
X262796Y-4890D01*
X241446Y-27763D02*
X262796Y-6413D01*
X242970Y-27763D02*
X262796Y-7938D01*
X244494Y-27763D02*
X262796Y-9462D01*
X246018Y-27763D02*
X262796Y-10986D01*
X247542Y-27763D02*
X262796Y-12509D01*
X249066Y-27763D02*
X262796Y-14033D01*
X250590Y-27763D02*
X262796Y-15557D01*
X252114Y-27763D02*
X262796Y-17081D01*
X253638Y-27763D02*
X262796Y-18605D01*
X255162Y-27763D02*
X262796Y-20129D01*
X256686Y-27763D02*
X262796Y-21653D01*
X258210Y-27763D02*
X262796Y-23177D01*
X259734Y-27763D02*
X262796Y-24701D01*
X261258Y-27763D02*
X262796Y-26226D01*
X234356Y27048D02*
X235364Y28056D01*
X234356Y25524D02*
X236888Y28056D01*
X235364Y25008D02*
X238412Y28056D01*
X236888Y25008D02*
X239936Y28056D01*
X238412Y25008D02*
X241460Y28056D01*
X239936Y25008D02*
X242984Y28056D01*
X241460Y25008D02*
X244508Y28056D01*
X242984Y25008D02*
X246032Y28056D01*
X244508Y25008D02*
X247556Y28056D01*
X246032Y25008D02*
X249080Y28056D01*
X247556Y25008D02*
X250604Y28056D01*
X249080Y25008D02*
X252128Y28056D01*
X250604Y25008D02*
X253652Y28056D01*
X252128Y25008D02*
X255176Y28056D01*
X253652Y25008D02*
X256700Y28056D01*
X255176Y25008D02*
X258224Y28056D01*
X256700Y25008D02*
X259748Y28056D01*
X258224Y25008D02*
X261272Y28056D01*
X259748Y25008D02*
X262796Y28056D01*
X261272Y25008D02*
X262796Y26532D01*
X234356Y24000D02*
X235364Y25008D01*
X234356Y22476D02*
X236888Y25008D01*
X235364Y21960D02*
X238412Y25008D01*
X236888Y21960D02*
X239936Y25008D01*
X238412Y21960D02*
X241460Y25008D01*
X239936Y21960D02*
X242984Y25008D01*
X241460Y21960D02*
X244508Y25008D01*
X242984Y21960D02*
X246032Y25008D01*
X244508Y21960D02*
X247556Y25008D01*
X246032Y21960D02*
X249080Y25008D01*
X247556Y21960D02*
X250604Y25008D01*
X249080Y21960D02*
X252128Y25008D01*
X250604Y21960D02*
X253652Y25008D01*
X252128Y21960D02*
X255176Y25008D01*
X253652Y21960D02*
X256700Y25008D01*
X255176Y21960D02*
X258224Y25008D01*
X256700Y21960D02*
X259748Y25008D01*
X258224Y21960D02*
X261272Y25008D01*
X259748Y21960D02*
X262796Y25008D01*
X261272Y21960D02*
X262796Y23484D01*
X234356Y20952D02*
X235364Y21960D01*
X234356Y19428D02*
X236888Y21960D01*
X235364Y18912D02*
X238412Y21960D01*
X236888Y18912D02*
X239936Y21960D01*
X238412Y18912D02*
X241460Y21960D01*
X239936Y18912D02*
X242984Y21960D01*
X241460Y18912D02*
X244508Y21960D01*
X242984Y18912D02*
X246032Y21960D01*
X244508Y18912D02*
X247556Y21960D01*
X246032Y18912D02*
X249080Y21960D01*
X247556Y18912D02*
X250604Y21960D01*
X249080Y18912D02*
X252128Y21960D01*
X250604Y18912D02*
X253652Y21960D01*
X252128Y18912D02*
X255176Y21960D01*
X253652Y18912D02*
X256700Y21960D01*
X255176Y18912D02*
X258224Y21960D01*
X256700Y18912D02*
X259748Y21960D01*
X258224Y18912D02*
X261272Y21960D01*
X259748Y18912D02*
X262796Y21960D01*
X261272Y18912D02*
X262796Y20436D01*
X234356Y17904D02*
X235364Y18912D01*
X234356Y16380D02*
X236888Y18912D01*
X235364Y15864D02*
X238412Y18912D01*
X236888Y15864D02*
X239936Y18912D01*
X238412Y15864D02*
X241460Y18912D01*
X239936Y15864D02*
X242984Y18912D01*
X241460Y15864D02*
X244508Y18912D01*
X242984Y15864D02*
X246032Y18912D01*
X244508Y15864D02*
X247556Y18912D01*
X246032Y15864D02*
X249080Y18912D01*
X247556Y15864D02*
X250604Y18912D01*
X249080Y15864D02*
X252128Y18912D01*
X250604Y15864D02*
X253652Y18912D01*
X252128Y15864D02*
X255176Y18912D01*
X253652Y15864D02*
X256700Y18912D01*
X255176Y15864D02*
X258224Y18912D01*
X256700Y15864D02*
X259748Y18912D01*
X258224Y15864D02*
X261272Y18912D01*
X259748Y15864D02*
X262796Y18912D01*
X261272Y15864D02*
X262796Y17388D01*
X234356Y14856D02*
X235364Y15864D01*
X234356Y13332D02*
X236888Y15864D01*
X235364Y12816D02*
X238412Y15864D01*
X236888Y12816D02*
X239936Y15864D01*
X238412Y12816D02*
X241460Y15864D01*
X239936Y12816D02*
X242984Y15864D01*
X241460Y12816D02*
X244508Y15864D01*
X242984Y12816D02*
X246032Y15864D01*
X244508Y12816D02*
X247556Y15864D01*
X246032Y12816D02*
X249080Y15864D01*
X247556Y12816D02*
X250604Y15864D01*
X249080Y12816D02*
X252128Y15864D01*
X250604Y12816D02*
X253652Y15864D01*
X252128Y12816D02*
X255176Y15864D01*
X253652Y12816D02*
X256700Y15864D01*
X255176Y12816D02*
X258224Y15864D01*
X256700Y12816D02*
X259748Y15864D01*
X258224Y12816D02*
X261272Y15864D01*
X259748Y12816D02*
X262796Y15864D01*
X261272Y12816D02*
X262796Y14340D01*
X234356Y11808D02*
X235364Y12816D01*
X234356Y10284D02*
X236888Y12816D01*
X235364Y9768D02*
X238412Y12816D01*
X236888Y9768D02*
X239936Y12816D01*
X238412Y9768D02*
X241460Y12816D01*
X239936Y9768D02*
X242984Y12816D01*
X241460Y9768D02*
X244508Y12816D01*
X242984Y9768D02*
X246032Y12816D01*
X244508Y9768D02*
X247556Y12816D01*
X246032Y9768D02*
X249080Y12816D01*
X247556Y9768D02*
X250604Y12816D01*
X249080Y9768D02*
X252128Y12816D01*
X250604Y9768D02*
X253652Y12816D01*
X252128Y9768D02*
X255176Y12816D01*
X253652Y9768D02*
X256700Y12816D01*
X255176Y9768D02*
X258224Y12816D01*
X256700Y9768D02*
X259748Y12816D01*
X258224Y9768D02*
X261272Y12816D01*
X259748Y9768D02*
X262796Y12816D01*
X261272Y9768D02*
X262796Y11292D01*
X234356Y8760D02*
X235364Y9768D01*
X234356Y7236D02*
X236888Y9768D01*
X235364Y6720D02*
X238412Y9768D01*
X236888Y6720D02*
X239936Y9768D01*
X238412Y6720D02*
X241460Y9768D01*
X239936Y6720D02*
X242984Y9768D01*
X241460Y6720D02*
X244508Y9768D01*
X242984Y6720D02*
X246032Y9768D01*
X244508Y6720D02*
X247556Y9768D01*
X246032Y6720D02*
X249080Y9768D01*
X247556Y6720D02*
X250604Y9768D01*
X249080Y6720D02*
X252128Y9768D01*
X250604Y6720D02*
X253652Y9768D01*
X252128Y6720D02*
X255176Y9768D01*
X253652Y6720D02*
X256700Y9768D01*
X255176Y6720D02*
X258224Y9768D01*
X256700Y6720D02*
X259748Y9768D01*
X258224Y6720D02*
X261272Y9768D01*
X259748Y6720D02*
X262796Y9768D01*
X261272Y6720D02*
X262796Y8244D01*
D22*
X147510Y-27750D02*
Y5958D01*
X262796D01*
Y-27750D02*
Y5958D01*
X147510Y-27750D02*
X262796D01*
X262796Y6720D02*
Y31104D01*
X234356Y25008D02*
X262796D01*
X234356Y21960D02*
X262796D01*
X234356Y18912D02*
X262796D01*
X234356Y15864D02*
X262796D01*
X234356Y12816D02*
X262796D01*
X234356Y9768D02*
X262796D01*
X234356Y6720D02*
X262796D01*
X234356D02*
Y31104D01*
X219882Y25008D02*
X234356D01*
X219882Y21960D02*
X234356D01*
X219882Y18912D02*
X234356D01*
X219882Y15864D02*
X234356D01*
X219882Y12816D02*
X234356D01*
X219882Y9768D02*
X234356D01*
X219882Y6720D02*
X234356D01*
X219882D02*
Y31104D01*
X203376Y25008D02*
X219882D01*
X203376Y21960D02*
X219882D01*
X203376Y18912D02*
X219882D01*
X203376Y15864D02*
X219882D01*
X203376Y12816D02*
X219882D01*
X203376Y9768D02*
X219882D01*
X203376Y6720D02*
X219882D01*
X203376D02*
Y31104D01*
X181538Y25008D02*
X203376D01*
X181538Y21960D02*
X203376D01*
X181538Y18912D02*
X203376D01*
X181538Y15864D02*
X203376D01*
X181538Y12816D02*
X203376D01*
X181538Y9768D02*
X203376D01*
X181538Y6720D02*
X203376D01*
X181538D02*
Y31104D01*
X157922Y25008D02*
X181538D01*
X157922Y21960D02*
X181538D01*
X157922Y18912D02*
X181538D01*
X157922Y15864D02*
X181538D01*
X157922Y12816D02*
X181538D01*
X157922Y9768D02*
X181538D01*
X157922Y6720D02*
X181538D01*
X157922D02*
Y31104D01*
X147511Y25008D02*
X157922D01*
X147511Y21960D02*
X157922D01*
X147511Y18912D02*
X157922D01*
X147511Y15864D02*
X157922D01*
X147511Y12816D02*
X157922D01*
X147511Y9768D02*
X157922D01*
X147511Y6720D02*
X157922D01*
X147511D02*
Y31104D01*
X262796D01*
X147511Y28056D02*
X262796D01*
X20731Y13051D02*
X28036D01*
X20701Y13081D02*
X20731Y13051D01*
X24847Y12401D02*
X28036D01*
X23400Y10954D02*
X24847Y12401D01*
X23400Y8609D02*
Y10954D01*
X20701Y8509D02*
X23300D01*
X23400Y8609D01*
X16224Y10509D02*
X20701D01*
X16002Y10287D02*
X16224Y10509D01*
X20701D02*
Y13081D01*
X18542Y8509D02*
X20701D01*
X17780Y7747D02*
X18542Y8509D01*
X16002Y7747D02*
X17780D01*
X27940Y10414D02*
X29591D01*
X25695Y8314D02*
X27940D01*
X25400Y8609D02*
X25695Y8314D01*
X27940D02*
X29396D01*
X31623Y10541D01*
Y14351D01*
X32273Y15001D01*
X33686D01*
X32617Y16044D02*
X33010Y15651D01*
X33706Y17704D02*
X34417Y18415D01*
X33706Y16319D02*
Y17704D01*
X33010Y15651D02*
X33686D01*
X34417Y18415D02*
X36322D01*
X33686Y15651D02*
X35971D01*
X36373Y16053D01*
Y18153D02*
X39624D01*
X35814Y22860D02*
X38608D01*
X38658Y22910D02*
X41529D01*
X38608Y22860D02*
X38658Y22910D01*
X38608Y24960D02*
X41479D01*
X41529Y24910D01*
X28625Y23749D02*
X30099D01*
X31310Y24960D01*
X35814D01*
X33686Y13051D02*
X35311D01*
X35916Y12446D01*
Y10338D02*
Y12446D01*
X41274Y9405D02*
X44449D01*
X38530D02*
X41274D01*
X38480Y9455D02*
X38530Y9405D01*
X50704Y7089D02*
X53960D01*
X54110Y7239D01*
X56110Y3891D02*
Y7239D01*
Y3891D02*
X56369Y3632D01*
X56110Y7239D02*
X59564D01*
X59614Y7189D01*
X33686Y10231D02*
X36828Y7089D01*
X33686Y10231D02*
Y12401D01*
X38329Y7089D02*
X38354Y7064D01*
X36828Y7089D02*
X38329D01*
X50704D01*
X23622Y23749D02*
X26525D01*
X39624Y14808D02*
Y16053D01*
X33686Y13701D02*
X38517D01*
X39624Y14808D01*
X32617Y16044D02*
Y19428D01*
X32512Y19533D02*
X32617Y19428D01*
X62103Y18337D02*
Y22225D01*
X62380Y22502D02*
X67183D01*
X62103Y22225D02*
X62230Y22352D01*
X62380Y22502D01*
X62230Y24452D02*
X74422D01*
X77597D01*
X69183Y22502D02*
X69333Y22352D01*
X63373Y16852D02*
X64555Y18034D01*
X67133D01*
X75223D02*
X75438Y18249D01*
X77597Y20408D01*
Y22352D01*
X75438Y18249D02*
X80142D01*
X80382Y18009D01*
X77597Y24452D02*
X90551D01*
X90424Y19304D02*
Y22225D01*
X90551Y22352D01*
X90563Y16625D02*
X95250D01*
X93162Y18725D02*
X95250D01*
X92583Y19304D02*
X93162Y18725D01*
X90424Y19304D02*
X92583D01*
X90500Y12102D02*
Y16688D01*
X90424Y16764D02*
X90500Y16688D01*
X90563Y16625D01*
X88976Y10820D02*
Y13792D01*
X84760Y18009D02*
X88976Y13792D01*
X82482Y18009D02*
X84760D01*
X67133Y12115D02*
Y18034D01*
X26803Y16301D02*
X28036D01*
X39624Y16053D02*
X42037D01*
X50704Y9189D02*
Y11557D01*
Y11932D01*
X25848Y17256D02*
X26803Y16301D01*
X24511Y17256D02*
X25848D01*
X32131Y22860D02*
X35814D01*
X67124Y3683D02*
Y12106D01*
X67133Y12115D01*
X60420Y3683D02*
X65024D01*
X60369Y3632D02*
X60420Y3683D01*
X69233Y18034D02*
X71501D01*
X75184Y16764D02*
X76708D01*
X74343Y17604D02*
X75184Y16764D01*
X74343Y22352D02*
X74422D01*
X69333D02*
X74343D01*
X28036Y14351D02*
Y15001D01*
Y15651D01*
Y16301D01*
Y19273D01*
X28625Y19862D01*
Y23749D01*
X4064Y21463D02*
X4101D01*
X38608Y24960D02*
Y26543D01*
X38480Y11455D02*
Y11505D01*
X41274Y13335D02*
X41275D01*
X24511Y15256D02*
Y15621D01*
X33686Y14351D02*
X35687D01*
X36195Y14859D01*
X37973D01*
X36798Y9455D02*
X38480D01*
X35916Y10338D02*
X36798Y9455D01*
X24511Y14224D02*
Y15256D01*
Y14224D02*
X25034Y13701D01*
X28036D01*
X61714Y7189D02*
Y9644D01*
X61722Y9652D01*
X4101Y16932D02*
X4207Y17038D01*
X5612D01*
X74343Y17604D02*
Y22352D01*
X20828Y20955D02*
X23622Y23749D01*
X4101Y20132D02*
Y21463D01*
X20701Y15621D02*
X24511D01*
X38480Y11505D02*
X41274D01*
Y13335D01*
X5612Y17038D02*
X5910Y17336D01*
X24402D01*
X30353Y21082D02*
X32131Y22860D01*
X29591Y10414D02*
X30353Y11176D01*
Y21082D01*
X24402Y17336D02*
X24511Y17227D01*
D23*
X44449Y11505D02*
X47700D01*
X52705Y16510D01*
X35814Y24960D02*
Y26289D01*
X58098Y24452D02*
X62230D01*
X54534Y28016D02*
X58098Y24452D01*
X52705Y28016D02*
X54534D01*
X52705Y16510D02*
Y28016D01*
X35814Y26289D02*
X37541Y28016D01*
X52705D01*
D24*
X235880Y30341D02*
Y28818D01*
X236642D01*
X236896Y29072D01*
Y29326D01*
X236642Y29579D01*
X235880D01*
X236642D01*
X236896Y29833D01*
Y30087D01*
X236642Y30341D01*
X235880D01*
X237658Y28818D02*
X238165D01*
X238419Y29072D01*
Y29579D01*
X238165Y29833D01*
X237658D01*
X237404Y29579D01*
Y29072D01*
X237658Y28818D01*
X239181Y29833D02*
X239689D01*
X239943Y29579D01*
Y28818D01*
X239181D01*
X238927Y29072D01*
X239181Y29326D01*
X239943D01*
X240451Y29833D02*
Y28818D01*
Y29326D01*
X240705Y29579D01*
X240959Y29833D01*
X241212D01*
X242990Y30341D02*
Y28818D01*
X242228D01*
X241974Y29072D01*
Y29579D01*
X242228Y29833D01*
X242990D01*
X245021Y30341D02*
Y28818D01*
X246037D01*
X246799Y29833D02*
X247306D01*
X247560Y29579D01*
Y28818D01*
X246799D01*
X246545Y29072D01*
X246799Y29326D01*
X247560D01*
X248068Y29833D02*
Y29072D01*
X248322Y28818D01*
X249084D01*
Y28564D01*
X248830Y28310D01*
X248576D01*
X249084Y28818D02*
Y29833D01*
X250353Y28818D02*
X249846D01*
X249592Y29072D01*
Y29579D01*
X249846Y29833D01*
X250353D01*
X250607Y29579D01*
Y29326D01*
X249592D01*
X251115Y29833D02*
Y28818D01*
Y29326D01*
X251369Y29579D01*
X251623Y29833D01*
X251877D01*
X255178Y30087D02*
X254924Y30341D01*
X254416D01*
X254162Y30087D01*
Y29833D01*
X254416Y29579D01*
X254924D01*
X255178Y29326D01*
Y29072D01*
X254924Y28818D01*
X254416D01*
X254162Y29072D01*
X255940Y30087D02*
Y29833D01*
X255686D01*
X256194D01*
X255940D01*
Y29072D01*
X256194Y28818D01*
X257209Y29833D02*
X257717D01*
X257971Y29579D01*
Y28818D01*
X257209D01*
X256955Y29072D01*
X257209Y29326D01*
X257971D01*
X259495Y29833D02*
X258733D01*
X258479Y29579D01*
Y29072D01*
X258733Y28818D01*
X259495D01*
X260002D02*
Y30341D01*
Y29326D02*
X260764Y29833D01*
X260002Y29326D02*
X260764Y28818D01*
X221406Y23991D02*
X221660Y24245D01*
X222167D01*
X222421Y23991D01*
Y23737D01*
X222167Y23483D01*
X221914D01*
X222167D01*
X222421Y23230D01*
Y22976D01*
X222167Y22722D01*
X221660D01*
X221406Y22976D01*
X222929Y22722D02*
Y22976D01*
X223183D01*
Y22722D01*
X222929D01*
X225214Y24245D02*
X224199D01*
Y23483D01*
X224707Y23737D01*
X224961D01*
X225214Y23483D01*
Y22976D01*
X224961Y22722D01*
X224453D01*
X224199Y22976D01*
X222167Y16626D02*
Y18149D01*
X221406Y17387D01*
X222421D01*
X222929Y16626D02*
Y16880D01*
X223183D01*
Y16626D01*
X222929D01*
X224199Y17895D02*
X224453Y18149D01*
X224961D01*
X225214Y17895D01*
Y17641D01*
X224961Y17387D01*
X225214Y17134D01*
Y16880D01*
X224961Y16626D01*
X224453D01*
X224199Y16880D01*
Y17134D01*
X224453Y17387D01*
X224199Y17641D01*
Y17895D01*
X224453Y17387D02*
X224961D01*
X221406Y11799D02*
X221660Y12053D01*
X222167D01*
X222421Y11799D01*
Y11545D01*
X222167Y11291D01*
X221914D01*
X222167D01*
X222421Y11038D01*
Y10784D01*
X222167Y10530D01*
X221660D01*
X221406Y10784D01*
X222929Y10530D02*
Y10784D01*
X223183D01*
Y10530D01*
X222929D01*
X225214Y12053D02*
X224199D01*
Y11291D01*
X224707Y11545D01*
X224961D01*
X225214Y11291D01*
Y10784D01*
X224961Y10530D01*
X224453D01*
X224199Y10784D01*
X222421Y30087D02*
X222167Y30341D01*
X221660D01*
X221406Y30087D01*
Y29072D01*
X221660Y28818D01*
X222167D01*
X222421Y29072D01*
X223183Y28818D02*
X223691D01*
X223945Y29072D01*
Y29579D01*
X223691Y29833D01*
X223183D01*
X222929Y29579D01*
Y29072D01*
X223183Y28818D01*
X224453D02*
Y29833D01*
X225214D01*
X225468Y29579D01*
Y28818D01*
X225976D02*
X226738D01*
X226992Y29072D01*
X226738Y29326D01*
X226230D01*
X225976Y29579D01*
X226230Y29833D01*
X226992D01*
X227754Y30087D02*
Y29833D01*
X227500D01*
X228008D01*
X227754D01*
Y29072D01*
X228008Y28818D01*
X229023Y29833D02*
X229531D01*
X229785Y29579D01*
Y28818D01*
X229023D01*
X228769Y29072D01*
X229023Y29326D01*
X229785D01*
X230293Y28818D02*
Y29833D01*
X231055D01*
X231309Y29579D01*
Y28818D01*
X232070Y30087D02*
Y29833D01*
X231816D01*
X232324D01*
X232070D01*
Y29072D01*
X232324Y28818D01*
X204900Y23991D02*
X205154Y24245D01*
X205662D01*
X205916Y23991D01*
Y22976D01*
X205662Y22722D01*
X205154D01*
X204900Y22976D01*
Y23991D01*
X206423Y22722D02*
Y22976D01*
X206677D01*
Y22722D01*
X206423D01*
X208455D02*
Y24245D01*
X207693Y23483D01*
X208709D01*
X209217Y23991D02*
X209470Y24245D01*
X209978D01*
X210232Y23991D01*
Y22976D01*
X209978Y22722D01*
X209470D01*
X209217Y22976D01*
Y23991D01*
X210740Y22722D02*
Y23737D01*
X210994D01*
X211248Y23483D01*
Y22722D01*
Y23483D01*
X211502Y23737D01*
X211756Y23483D01*
Y22722D01*
X212264D02*
X212771D01*
X212517D01*
Y23737D01*
X212264D01*
X213533Y22722D02*
X214041D01*
X213787D01*
Y24245D01*
X213533D01*
X204900Y19674D02*
X205408D01*
X205154D01*
Y21197D01*
X204900Y20943D01*
X206169Y19674D02*
Y19928D01*
X206423D01*
Y19674D01*
X206169D01*
X208201D02*
Y21197D01*
X207439Y20435D01*
X208455D01*
X208963Y20943D02*
X209217Y21197D01*
X209724D01*
X209978Y20943D01*
Y19928D01*
X209724Y19674D01*
X209217D01*
X208963Y19928D01*
Y20943D01*
X210486Y19674D02*
Y20689D01*
X210740D01*
X210994Y20435D01*
Y19674D01*
Y20435D01*
X211248Y20689D01*
X211502Y20435D01*
Y19674D01*
X212010D02*
X212517D01*
X212264D01*
Y20689D01*
X212010D01*
X213279Y19674D02*
X213787D01*
X213533D01*
Y21197D01*
X213279D01*
X204900Y16626D02*
X205408D01*
X205154D01*
Y18149D01*
X204900Y17895D01*
X207185Y16626D02*
X206169D01*
X207185Y17641D01*
Y17895D01*
X206931Y18149D01*
X206423D01*
X206169Y17895D01*
X207693Y16626D02*
Y16880D01*
X207947D01*
Y16626D01*
X207693D01*
X209978Y18149D02*
X209470Y17895D01*
X208963Y17387D01*
Y16880D01*
X209217Y16626D01*
X209724D01*
X209978Y16880D01*
Y17134D01*
X209724Y17387D01*
X208963D01*
X210486Y17895D02*
X210740Y18149D01*
X211248D01*
X211502Y17895D01*
Y16880D01*
X211248Y16626D01*
X210740D01*
X210486Y16880D01*
Y17895D01*
X212010Y16626D02*
Y17641D01*
X212264D01*
X212517Y17387D01*
Y16626D01*
Y17387D01*
X212771Y17641D01*
X213025Y17387D01*
Y16626D01*
X213533D02*
X214041D01*
X213787D01*
Y17641D01*
X213533D01*
X214803Y16626D02*
X215311D01*
X215057D01*
Y18149D01*
X214803D01*
X204900Y13578D02*
X205408D01*
X205154D01*
Y15101D01*
X204900Y14847D01*
X206169Y13578D02*
Y13832D01*
X206423D01*
Y13578D01*
X206169D01*
X208201D02*
Y15101D01*
X207439Y14339D01*
X208455D01*
X208963Y14847D02*
X209217Y15101D01*
X209724D01*
X209978Y14847D01*
Y13832D01*
X209724Y13578D01*
X209217D01*
X208963Y13832D01*
Y14847D01*
X210486Y13578D02*
Y14593D01*
X210740D01*
X210994Y14339D01*
Y13578D01*
Y14339D01*
X211248Y14593D01*
X211502Y14339D01*
Y13578D01*
X212010D02*
X212517D01*
X212264D01*
Y14593D01*
X212010D01*
X213279Y13578D02*
X213787D01*
X213533D01*
Y15101D01*
X213279D01*
X204900Y11799D02*
X205154Y12053D01*
X205662D01*
X205916Y11799D01*
Y10784D01*
X205662Y10530D01*
X205154D01*
X204900Y10784D01*
Y11799D01*
X206423Y10530D02*
Y10784D01*
X206677D01*
Y10530D01*
X206423D01*
X208455D02*
Y12053D01*
X207693Y11291D01*
X208709D01*
X209217Y11799D02*
X209470Y12053D01*
X209978D01*
X210232Y11799D01*
Y10784D01*
X209978Y10530D01*
X209470D01*
X209217Y10784D01*
Y11799D01*
X210740Y10530D02*
Y11545D01*
X210994D01*
X211248Y11291D01*
Y10530D01*
Y11291D01*
X211502Y11545D01*
X211756Y11291D01*
Y10530D01*
X212264D02*
X212771D01*
X212517D01*
Y11545D01*
X212264D01*
X213533Y10530D02*
X214041D01*
X213787D01*
Y12053D01*
X213533D01*
X204900Y30341D02*
X205916D01*
X205408D01*
Y28818D01*
X206423Y30341D02*
Y28818D01*
Y29579D01*
X206677Y29833D01*
X207185D01*
X207439Y29579D01*
Y28818D01*
X207947D02*
X208455D01*
X208201D01*
Y29833D01*
X207947D01*
X210232D02*
X209470D01*
X209217Y29579D01*
Y29072D01*
X209470Y28818D01*
X210232D01*
X210740D02*
Y30341D01*
Y29326D02*
X211502Y29833D01*
X210740Y29326D02*
X211502Y28818D01*
X212264D02*
Y29833D01*
X213025D01*
X213279Y29579D01*
Y28818D01*
X214549D02*
X214041D01*
X213787Y29072D01*
Y29579D01*
X214041Y29833D01*
X214549D01*
X214803Y29579D01*
Y29326D01*
X213787D01*
X215311Y28818D02*
X216072D01*
X216326Y29072D01*
X216072Y29326D01*
X215564D01*
X215311Y29579D01*
X215564Y29833D01*
X216326D01*
X216834Y28818D02*
X217596D01*
X217850Y29072D01*
X217596Y29326D01*
X217088D01*
X216834Y29579D01*
X217088Y29833D01*
X217850D01*
X184077Y23991D02*
X183824Y24245D01*
X183316D01*
X183062Y23991D01*
Y23737D01*
X183316Y23483D01*
X183824D01*
X184077Y23230D01*
Y22976D01*
X183824Y22722D01*
X183316D01*
X183062Y22976D01*
X184839Y22722D02*
X185347D01*
X185601Y22976D01*
Y23483D01*
X185347Y23737D01*
X184839D01*
X184585Y23483D01*
Y22976D01*
X184839Y22722D01*
X186109D02*
X186617D01*
X186363D01*
Y24245D01*
X186109D01*
X188394D02*
Y22722D01*
X187632D01*
X187378Y22976D01*
Y23483D01*
X187632Y23737D01*
X188394D01*
X189664Y22722D02*
X189156D01*
X188902Y22976D01*
Y23483D01*
X189156Y23737D01*
X189664D01*
X189918Y23483D01*
Y23230D01*
X188902D01*
X190425Y23737D02*
Y22722D01*
Y23230D01*
X190679Y23483D01*
X190933Y23737D01*
X191187D01*
X193472Y22722D02*
Y24245D01*
X194234D01*
X194488Y23991D01*
Y23483D01*
X194234Y23230D01*
X193472D01*
X193980D02*
X194488Y22722D01*
X195758D02*
X195250D01*
X194996Y22976D01*
Y23483D01*
X195250Y23737D01*
X195758D01*
X196012Y23483D01*
Y23230D01*
X194996D01*
X196519Y22722D02*
X197281D01*
X197535Y22976D01*
X197281Y23230D01*
X196773D01*
X196519Y23483D01*
X196773Y23737D01*
X197535D01*
X198043Y22722D02*
X198551D01*
X198297D01*
Y23737D01*
X198043D01*
X199313Y22722D02*
X200074D01*
X200328Y22976D01*
X200074Y23230D01*
X199566D01*
X199313Y23483D01*
X199566Y23737D01*
X200328D01*
X201090Y23991D02*
Y23737D01*
X200836D01*
X201344D01*
X201090D01*
Y22976D01*
X201344Y22722D01*
X184077Y20943D02*
X183824Y21197D01*
X183316D01*
X183062Y20943D01*
Y19928D01*
X183316Y19674D01*
X183824D01*
X184077Y19928D01*
X184839Y19674D02*
X185347D01*
X185601Y19928D01*
Y20435D01*
X185347Y20689D01*
X184839D01*
X184585Y20435D01*
Y19928D01*
X184839Y19674D01*
X186109Y19166D02*
Y20689D01*
X186871D01*
X187124Y20435D01*
Y19928D01*
X186871Y19674D01*
X186109D01*
X187632Y19166D02*
Y20689D01*
X188394D01*
X188648Y20435D01*
Y19928D01*
X188394Y19674D01*
X187632D01*
X189918D02*
X189410D01*
X189156Y19928D01*
Y20435D01*
X189410Y20689D01*
X189918D01*
X190172Y20435D01*
Y20182D01*
X189156D01*
X190679Y20689D02*
Y19674D01*
Y20182D01*
X190933Y20435D01*
X191187Y20689D01*
X191441D01*
X184077Y18149D02*
X183062D01*
Y17387D01*
X183570D01*
X183062D01*
Y16626D01*
X184585D02*
Y18149D01*
X185347D01*
X185601Y17895D01*
Y17387D01*
X185347Y17134D01*
X184585D01*
X185093D02*
X185601Y16626D01*
X186109Y17387D02*
X187124D01*
X188394Y16626D02*
Y18149D01*
X187632Y17387D01*
X188648D01*
X184077Y14847D02*
X183824Y15101D01*
X183316D01*
X183062Y14847D01*
Y13832D01*
X183316Y13578D01*
X183824D01*
X184077Y13832D01*
X184839Y13578D02*
X185347D01*
X185601Y13832D01*
Y14339D01*
X185347Y14593D01*
X184839D01*
X184585Y14339D01*
Y13832D01*
X184839Y13578D01*
X186109Y13070D02*
Y14593D01*
X186871D01*
X187124Y14339D01*
Y13832D01*
X186871Y13578D01*
X186109D01*
X187632Y13070D02*
Y14593D01*
X188394D01*
X188648Y14339D01*
Y13832D01*
X188394Y13578D01*
X187632D01*
X189918D02*
X189410D01*
X189156Y13832D01*
Y14339D01*
X189410Y14593D01*
X189918D01*
X190172Y14339D01*
Y14086D01*
X189156D01*
X190679Y14593D02*
Y13578D01*
Y14086D01*
X190933Y14339D01*
X191187Y14593D01*
X191441D01*
X184077Y11799D02*
X183824Y12053D01*
X183316D01*
X183062Y11799D01*
Y11545D01*
X183316Y11291D01*
X183824D01*
X184077Y11038D01*
Y10784D01*
X183824Y10530D01*
X183316D01*
X183062Y10784D01*
X184839Y10530D02*
X185347D01*
X185601Y10784D01*
Y11291D01*
X185347Y11545D01*
X184839D01*
X184585Y11291D01*
Y10784D01*
X184839Y10530D01*
X186109D02*
X186617D01*
X186363D01*
Y12053D01*
X186109D01*
X188394D02*
Y10530D01*
X187632D01*
X187378Y10784D01*
Y11291D01*
X187632Y11545D01*
X188394D01*
X189664Y10530D02*
X189156D01*
X188902Y10784D01*
Y11291D01*
X189156Y11545D01*
X189664D01*
X189918Y11291D01*
Y11038D01*
X188902D01*
X190425Y11545D02*
Y10530D01*
Y11038D01*
X190679Y11291D01*
X190933Y11545D01*
X191187D01*
X193472Y10530D02*
Y12053D01*
X194234D01*
X194488Y11799D01*
Y11291D01*
X194234Y11038D01*
X193472D01*
X193980D02*
X194488Y10530D01*
X195758D02*
X195250D01*
X194996Y10784D01*
Y11291D01*
X195250Y11545D01*
X195758D01*
X196012Y11291D01*
Y11038D01*
X194996D01*
X196519Y10530D02*
X197281D01*
X197535Y10784D01*
X197281Y11038D01*
X196773D01*
X196519Y11291D01*
X196773Y11545D01*
X197535D01*
X198043Y10530D02*
X198551D01*
X198297D01*
Y11545D01*
X198043D01*
X199313Y10530D02*
X200074D01*
X200328Y10784D01*
X200074Y11038D01*
X199566D01*
X199313Y11291D01*
X199566Y11545D01*
X200328D01*
X201090Y11799D02*
Y11545D01*
X200836D01*
X201344D01*
X201090D01*
Y10784D01*
X201344Y10530D01*
X183062Y28818D02*
Y30341D01*
X183570Y29833D01*
X184077Y30341D01*
Y28818D01*
X184839Y29833D02*
X185347D01*
X185601Y29579D01*
Y28818D01*
X184839D01*
X184585Y29072D01*
X184839Y29326D01*
X185601D01*
X186363Y30087D02*
Y29833D01*
X186109D01*
X186617D01*
X186363D01*
Y29072D01*
X186617Y28818D01*
X188140D02*
X187632D01*
X187378Y29072D01*
Y29579D01*
X187632Y29833D01*
X188140D01*
X188394Y29579D01*
Y29326D01*
X187378D01*
X188902Y29833D02*
Y28818D01*
Y29326D01*
X189156Y29579D01*
X189410Y29833D01*
X189664D01*
X190425Y28818D02*
X190933D01*
X190679D01*
Y29833D01*
X190425D01*
X191949D02*
X192457D01*
X192711Y29579D01*
Y28818D01*
X191949D01*
X191695Y29072D01*
X191949Y29326D01*
X192711D01*
X193219Y28818D02*
X193726D01*
X193472D01*
Y30341D01*
X193219D01*
X159446Y27293D02*
X160462D01*
X159954D01*
Y25770D01*
X161224D02*
X161732D01*
X161985Y26024D01*
Y26531D01*
X161732Y26785D01*
X161224D01*
X160970Y26531D01*
Y26024D01*
X161224Y25770D01*
X162493Y25262D02*
Y26785D01*
X163255D01*
X163509Y26531D01*
Y26024D01*
X163255Y25770D01*
X162493D01*
X166302Y27293D02*
X165794D01*
X165540Y27039D01*
Y26024D01*
X165794Y25770D01*
X166302D01*
X166556Y26024D01*
Y27039D01*
X166302Y27293D01*
X167064Y26785D02*
X167572Y25770D01*
X168080Y26785D01*
X169349Y25770D02*
X168841D01*
X168587Y26024D01*
Y26531D01*
X168841Y26785D01*
X169349D01*
X169603Y26531D01*
Y26278D01*
X168587D01*
X170111Y26785D02*
Y25770D01*
Y26278D01*
X170365Y26531D01*
X170619Y26785D01*
X170873D01*
X171634Y25770D02*
X172142D01*
X171888D01*
Y27293D01*
X171634D01*
X173158Y26785D02*
X173666D01*
X173920Y26531D01*
Y25770D01*
X173158D01*
X172904Y26024D01*
X173158Y26278D01*
X173920D01*
X174427Y26785D02*
Y26024D01*
X174681Y25770D01*
X175443D01*
Y25516D01*
X175189Y25262D01*
X174935D01*
X175443Y25770D02*
Y26785D01*
X159446Y24245D02*
X160462D01*
X159954D01*
Y22722D01*
X161224D02*
X161732D01*
X161985Y22976D01*
Y23483D01*
X161732Y23737D01*
X161224D01*
X160970Y23483D01*
Y22976D01*
X161224Y22722D01*
X162493Y22214D02*
Y23737D01*
X163255D01*
X163509Y23483D01*
Y22976D01*
X163255Y22722D01*
X162493D01*
X166556Y23991D02*
X166302Y24245D01*
X165794D01*
X165540Y23991D01*
Y23737D01*
X165794Y23483D01*
X166302D01*
X166556Y23230D01*
Y22976D01*
X166302Y22722D01*
X165794D01*
X165540Y22976D01*
X167318Y22722D02*
X167826D01*
X168080Y22976D01*
Y23483D01*
X167826Y23737D01*
X167318D01*
X167064Y23483D01*
Y22976D01*
X167318Y22722D01*
X168587D02*
X169095D01*
X168841D01*
Y24245D01*
X168587D01*
X170873D02*
Y22722D01*
X170111D01*
X169857Y22976D01*
Y23483D01*
X170111Y23737D01*
X170873D01*
X172142Y22722D02*
X171634D01*
X171380Y22976D01*
Y23483D01*
X171634Y23737D01*
X172142D01*
X172396Y23483D01*
Y23230D01*
X171380D01*
X172904Y23737D02*
Y22722D01*
Y23230D01*
X173158Y23483D01*
X173412Y23737D01*
X173666D01*
X159446Y21197D02*
X160462D01*
X159954D01*
Y19674D01*
X161224D02*
X161732D01*
X161985Y19928D01*
Y20435D01*
X161732Y20689D01*
X161224D01*
X160970Y20435D01*
Y19928D01*
X161224Y19674D01*
X162493Y19166D02*
Y20689D01*
X163255D01*
X163509Y20435D01*
Y19928D01*
X163255Y19674D01*
X162493D01*
X165540Y21197D02*
Y19674D01*
X166556D01*
X167318Y20689D02*
X167826D01*
X168080Y20435D01*
Y19674D01*
X167318D01*
X167064Y19928D01*
X167318Y20182D01*
X168080D01*
X168587Y20689D02*
Y19928D01*
X168841Y19674D01*
X169603D01*
Y19420D01*
X169349Y19166D01*
X169095D01*
X169603Y19674D02*
Y20689D01*
X170873Y19674D02*
X170365D01*
X170111Y19928D01*
Y20435D01*
X170365Y20689D01*
X170873D01*
X171127Y20435D01*
Y20182D01*
X170111D01*
X171634Y20689D02*
Y19674D01*
Y20182D01*
X171888Y20435D01*
X172142Y20689D01*
X172396D01*
X159446Y18149D02*
Y16626D01*
X160208D01*
X160462Y16880D01*
Y17895D01*
X160208Y18149D01*
X159446D01*
X160970Y16626D02*
X161478D01*
X161224D01*
Y17641D01*
X160970D01*
X163001Y16626D02*
X162493D01*
X162239Y16880D01*
Y17387D01*
X162493Y17641D01*
X163001D01*
X163255Y17387D01*
Y17134D01*
X162239D01*
X163763Y16626D02*
X164271D01*
X164017D01*
Y18149D01*
X163763D01*
X165794Y16626D02*
X165286D01*
X165032Y16880D01*
Y17387D01*
X165286Y17641D01*
X165794D01*
X166048Y17387D01*
Y17134D01*
X165032D01*
X167572Y17641D02*
X166810D01*
X166556Y17387D01*
Y16880D01*
X166810Y16626D01*
X167572D01*
X168333Y17895D02*
Y17641D01*
X168079D01*
X168587D01*
X168333D01*
Y16880D01*
X168587Y16626D01*
X169349Y17641D02*
Y16626D01*
Y17134D01*
X169603Y17387D01*
X169857Y17641D01*
X170111D01*
X170873Y16626D02*
X171380D01*
X171127D01*
Y17641D01*
X170873D01*
X173158D02*
X172396D01*
X172142Y17387D01*
Y16880D01*
X172396Y16626D01*
X173158D01*
X175189D02*
X175697D01*
X175443D01*
Y18149D01*
X175189Y17895D01*
X159446Y15101D02*
Y13578D01*
X160208D01*
X160462Y13832D01*
Y14086D01*
X160208Y14339D01*
X159446D01*
X160208D01*
X160462Y14593D01*
Y14847D01*
X160208Y15101D01*
X159446D01*
X161224Y13578D02*
X161732D01*
X161985Y13832D01*
Y14339D01*
X161732Y14593D01*
X161224D01*
X160970Y14339D01*
Y13832D01*
X161224Y13578D01*
X162747Y14847D02*
Y14593D01*
X162493D01*
X163001D01*
X162747D01*
Y13832D01*
X163001Y13578D01*
X164017Y14847D02*
Y14593D01*
X163763D01*
X164271D01*
X164017D01*
Y13832D01*
X164271Y13578D01*
X165286D02*
X165794D01*
X166048Y13832D01*
Y14339D01*
X165794Y14593D01*
X165286D01*
X165032Y14339D01*
Y13832D01*
X165286Y13578D01*
X166556D02*
Y14593D01*
X166810D01*
X167064Y14339D01*
Y13578D01*
Y14339D01*
X167318Y14593D01*
X167572Y14339D01*
Y13578D01*
X169603Y15101D02*
Y13578D01*
X170619D01*
X171380Y14593D02*
X171888D01*
X172142Y14339D01*
Y13578D01*
X171380D01*
X171127Y13832D01*
X171380Y14086D01*
X172142D01*
X172650Y14593D02*
Y13832D01*
X172904Y13578D01*
X173666D01*
Y13324D01*
X173412Y13070D01*
X173158D01*
X173666Y13578D02*
Y14593D01*
X174935Y13578D02*
X174427D01*
X174174Y13832D01*
Y14339D01*
X174427Y14593D01*
X174935D01*
X175189Y14339D01*
Y14086D01*
X174174D01*
X175697Y14593D02*
Y13578D01*
Y14086D01*
X175951Y14339D01*
X176205Y14593D01*
X176459D01*
X159446Y12053D02*
Y10530D01*
X160208D01*
X160462Y10784D01*
Y11038D01*
X160208Y11291D01*
X159446D01*
X160208D01*
X160462Y11545D01*
Y11799D01*
X160208Y12053D01*
X159446D01*
X161224Y10530D02*
X161732D01*
X161985Y10784D01*
Y11291D01*
X161732Y11545D01*
X161224D01*
X160970Y11291D01*
Y10784D01*
X161224Y10530D01*
X162747Y11799D02*
Y11545D01*
X162493D01*
X163001D01*
X162747D01*
Y10784D01*
X163001Y10530D01*
X164017Y11799D02*
Y11545D01*
X163763D01*
X164271D01*
X164017D01*
Y10784D01*
X164271Y10530D01*
X165286D02*
X165794D01*
X166048Y10784D01*
Y11291D01*
X165794Y11545D01*
X165286D01*
X165032Y11291D01*
Y10784D01*
X165286Y10530D01*
X166556D02*
Y11545D01*
X166810D01*
X167064Y11291D01*
Y10530D01*
Y11291D01*
X167318Y11545D01*
X167572Y11291D01*
Y10530D01*
X170619Y11799D02*
X170365Y12053D01*
X169857D01*
X169603Y11799D01*
Y11545D01*
X169857Y11291D01*
X170365D01*
X170619Y11038D01*
Y10784D01*
X170365Y10530D01*
X169857D01*
X169603Y10784D01*
X171380Y10530D02*
X171888D01*
X172142Y10784D01*
Y11291D01*
X171888Y11545D01*
X171380D01*
X171127Y11291D01*
Y10784D01*
X171380Y10530D01*
X172650D02*
X173158D01*
X172904D01*
Y12053D01*
X172650D01*
X174935D02*
Y10530D01*
X174174D01*
X173920Y10784D01*
Y11291D01*
X174174Y11545D01*
X174935D01*
X176205Y10530D02*
X175697D01*
X175443Y10784D01*
Y11291D01*
X175697Y11545D01*
X176205D01*
X176459Y11291D01*
Y11038D01*
X175443D01*
X176967Y11545D02*
Y10530D01*
Y11038D01*
X177221Y11291D01*
X177474Y11545D01*
X177728D01*
X159446Y9005D02*
Y7482D01*
X160208D01*
X160462Y7736D01*
Y7990D01*
X160208Y8243D01*
X159446D01*
X160208D01*
X160462Y8497D01*
Y8751D01*
X160208Y9005D01*
X159446D01*
X161224Y7482D02*
X161732D01*
X161985Y7736D01*
Y8243D01*
X161732Y8497D01*
X161224D01*
X160970Y8243D01*
Y7736D01*
X161224Y7482D01*
X162747Y8751D02*
Y8497D01*
X162493D01*
X163001D01*
X162747D01*
Y7736D01*
X163001Y7482D01*
X164017Y8751D02*
Y8497D01*
X163763D01*
X164271D01*
X164017D01*
Y7736D01*
X164271Y7482D01*
X165286D02*
X165794D01*
X166048Y7736D01*
Y8243D01*
X165794Y8497D01*
X165286D01*
X165032Y8243D01*
Y7736D01*
X165286Y7482D01*
X166556D02*
Y8497D01*
X166810D01*
X167064Y8243D01*
Y7482D01*
Y8243D01*
X167318Y8497D01*
X167572Y8243D01*
Y7482D01*
X170365Y9005D02*
X169857D01*
X169603Y8751D01*
Y7736D01*
X169857Y7482D01*
X170365D01*
X170619Y7736D01*
Y8751D01*
X170365Y9005D01*
X171127Y8497D02*
X171634Y7482D01*
X172142Y8497D01*
X173412Y7482D02*
X172904D01*
X172650Y7736D01*
Y8243D01*
X172904Y8497D01*
X173412D01*
X173666Y8243D01*
Y7990D01*
X172650D01*
X174174Y8497D02*
Y7482D01*
Y7990D01*
X174427Y8243D01*
X174681Y8497D01*
X174935D01*
X175697Y7482D02*
X176205D01*
X175951D01*
Y9005D01*
X175697D01*
X177221Y8497D02*
X177728D01*
X177982Y8243D01*
Y7482D01*
X177221D01*
X176967Y7736D01*
X177221Y7990D01*
X177982D01*
X178490Y8497D02*
Y7736D01*
X178744Y7482D01*
X179506D01*
Y7228D01*
X179252Y6974D01*
X178998D01*
X179506Y7482D02*
Y8497D01*
X159446Y28818D02*
Y30341D01*
X160462Y28818D01*
Y30341D01*
X161224Y29833D02*
X161732D01*
X161985Y29579D01*
Y28818D01*
X161224D01*
X160970Y29072D01*
X161224Y29326D01*
X161985D01*
X162493Y28818D02*
Y29833D01*
X162747D01*
X163001Y29579D01*
Y28818D01*
Y29579D01*
X163255Y29833D01*
X163509Y29579D01*
Y28818D01*
X164779D02*
X164271D01*
X164017Y29072D01*
Y29579D01*
X164271Y29833D01*
X164779D01*
X165032Y29579D01*
Y29326D01*
X164017D01*
X149035Y25770D02*
X149542D01*
X149288D01*
Y27293D01*
X149035Y27039D01*
X150050Y22722D02*
X149035D01*
X150050Y23737D01*
Y23991D01*
X149796Y24245D01*
X149288D01*
X149035Y23991D01*
Y20943D02*
X149288Y21197D01*
X149796D01*
X150050Y20943D01*
Y20689D01*
X149796Y20435D01*
X149542D01*
X149796D01*
X150050Y20182D01*
Y19928D01*
X149796Y19674D01*
X149288D01*
X149035Y19928D01*
X149796Y16626D02*
Y18149D01*
X149035Y17387D01*
X150050D01*
Y15101D02*
X149035D01*
Y14339D01*
X149542Y14593D01*
X149796D01*
X150050Y14339D01*
Y13832D01*
X149796Y13578D01*
X149288D01*
X149035Y13832D01*
X150050Y12053D02*
X149542Y11799D01*
X149035Y11291D01*
Y10784D01*
X149288Y10530D01*
X149796D01*
X150050Y10784D01*
Y11038D01*
X149796Y11291D01*
X149035D01*
Y9005D02*
X150050D01*
Y8751D01*
X149035Y7736D01*
Y7482D01*
Y30341D02*
Y28818D01*
X150050D01*
X150812Y29833D02*
X151320D01*
X151574Y29579D01*
Y28818D01*
X150812D01*
X150558Y29072D01*
X150812Y29326D01*
X151574D01*
X152082Y29833D02*
Y29072D01*
X152335Y28818D01*
X153097D01*
Y28564D01*
X152843Y28310D01*
X152589D01*
X153097Y28818D02*
Y29833D01*
X154367Y28818D02*
X153859D01*
X153605Y29072D01*
Y29579D01*
X153859Y29833D01*
X154367D01*
X154621Y29579D01*
Y29326D01*
X153605D01*
X155129Y29833D02*
Y28818D01*
Y29326D01*
X155382Y29579D01*
X155636Y29833D01*
X155890D01*
X0Y0D02*
X508D01*
X0D02*
Y29238D01*
X100000D01*
Y0D02*
Y29238D01*
X508Y0D02*
X100000D01*
D25*
X30011Y16001D02*
G03*
X30011Y16001I-500J0D01*
G01*
X77923Y16764D02*
G03*
X77923Y16764I-2485J0D01*
G01*
X73827Y14329D02*
G03*
X73000Y15157I1611J2435D01*
G01*
X64588Y16852D02*
G03*
X64588Y16852I-2485J0D01*
G01*
X60492Y14417D02*
G03*
X59665Y15245I1611J2435D01*
G01*
X91461Y12090D02*
G03*
X91461Y12090I-2485J0D01*
G01*
X86541Y13702D02*
G03*
X87369Y14528I2435J-1611D01*
G01*
X43774Y9355D02*
X45124D01*
X43774Y11555D02*
X45124D01*
X43774Y9355D02*
Y11555D01*
X45124Y9355D02*
Y11555D01*
X40599Y9355D02*
X41949D01*
X40599Y11555D02*
X41949D01*
X40599Y9355D02*
Y11555D01*
X41949Y9355D02*
Y11555D01*
X37755D02*
X39205D01*
X37755Y9355D02*
X39205D01*
Y11555D01*
X37755Y9355D02*
Y11555D01*
X50029Y7039D02*
X51379D01*
X50029Y9239D02*
X51379D01*
X50029Y7039D02*
Y9239D01*
X51379Y7039D02*
Y9239D01*
X38949Y16003D02*
X40299D01*
X38949Y18203D02*
X40299D01*
X38949Y16003D02*
Y18203D01*
X40299Y16003D02*
Y18203D01*
X35139Y22810D02*
X36489D01*
X35139Y25010D02*
X36489D01*
X35139Y22810D02*
Y25010D01*
X36489Y22810D02*
Y25010D01*
X35698Y16003D02*
X37048D01*
X35698Y18203D02*
X37048D01*
X35698Y16003D02*
Y18203D01*
X37048Y16003D02*
Y18203D01*
X40804Y25010D02*
X42254D01*
X40804Y22810D02*
X42254D01*
Y25010D01*
X40804Y22810D02*
Y25010D01*
X27265Y8264D02*
X28615D01*
X27265Y10464D02*
X28615D01*
X27265Y8264D02*
Y10464D01*
X28615Y8264D02*
Y10464D01*
X25500Y7884D02*
Y9334D01*
X23300Y7884D02*
Y9334D01*
Y7884D02*
X25500D01*
X23300Y9334D02*
X25500D01*
X19976Y8409D02*
X21426D01*
X19976Y10609D02*
X21426D01*
X19976Y8409D02*
Y10609D01*
X21426Y8409D02*
Y10609D01*
X28611Y11801D02*
Y16901D01*
X33111Y11801D02*
Y16901D01*
X28611D02*
X33111D01*
X28611Y11801D02*
X33111D01*
X23786Y15156D02*
X25236D01*
X23786Y17356D02*
X25236D01*
X23786Y15156D02*
Y17356D01*
X25236Y15156D02*
Y17356D01*
X89876Y24502D02*
X91226D01*
X89876Y22302D02*
X91226D01*
Y24502D01*
X89876Y22302D02*
Y24502D01*
X61555D02*
X62905D01*
X61555Y22302D02*
X62905D01*
Y24502D01*
X61555Y22302D02*
Y24502D01*
X80332Y17334D02*
Y18684D01*
X82532Y17334D02*
Y18684D01*
X80332D02*
X82532D01*
X80332Y17334D02*
X82532D01*
X69283Y21777D02*
Y23227D01*
X67083Y21777D02*
Y23227D01*
Y21777D02*
X69283D01*
X67083Y23227D02*
X69283D01*
X54010Y6514D02*
Y7964D01*
X56210Y6514D02*
Y7964D01*
X54010D02*
X56210D01*
X54010Y6514D02*
X56210D01*
X64974Y3008D02*
Y4358D01*
X67174Y3008D02*
Y4358D01*
X64974D02*
X67174D01*
X64974Y3008D02*
X67174D01*
X59564Y6514D02*
Y7864D01*
X61764Y6514D02*
Y7864D01*
X59564D02*
X61764D01*
X59564Y6514D02*
X61764D01*
X26475Y23074D02*
Y24424D01*
X28675Y23074D02*
Y24424D01*
X26475D02*
X28675D01*
X26475Y23074D02*
X28675D01*
X37933Y25010D02*
X39283D01*
X37933Y22810D02*
X39283D01*
Y25010D01*
X37933Y22810D02*
Y25010D01*
X30387Y18858D02*
Y20208D01*
X32587Y18858D02*
Y20208D01*
X30387D02*
X32587D01*
X30387Y18858D02*
X32587D01*
X56219Y2330D02*
X60519D01*
Y4935D01*
X56219Y2330D02*
Y4935D01*
X60519D01*
X95925Y16625D02*
Y18725D01*
X94575Y16625D02*
Y18725D01*
X95925D01*
X94575Y16625D02*
X95925D01*
X76922Y24502D02*
X78272D01*
X76922Y22302D02*
X78272D01*
Y24502D01*
X76922Y22302D02*
Y24502D01*
X73747D02*
X75097D01*
X73747Y22302D02*
X75097D01*
Y24502D01*
X73747Y22302D02*
Y24502D01*
X72972Y13474D02*
X73827Y14329D01*
X72145Y14301D02*
X72972Y13474D01*
X72145Y14301D02*
X73000Y15157D01*
X59637Y13562D02*
X60492Y14417D01*
X58810Y14389D02*
X59637Y13562D01*
X58810Y14389D02*
X59665Y15245D01*
X67083Y17359D02*
Y18709D01*
X69283Y17359D02*
Y18709D01*
X67083D02*
X69283D01*
X67083Y17359D02*
X69283D01*
X85686Y14557D02*
X86542Y13701D01*
X85686Y14557D02*
X86513Y15384D01*
X87369Y14528D01*
D26*
X60372Y3620D02*
D03*
D27*
X6426Y16332D02*
D03*
Y20732D02*
D03*
D28*
X16002Y10287D02*
D03*
Y7747D02*
D03*
Y5207D02*
D03*
X20828Y21082D02*
D03*
Y18542D02*
D03*
X20701Y15621D02*
D03*
Y13081D02*
D03*
X90424Y19304D02*
D03*
Y16764D02*
D03*
D29*
X75438Y15279D02*
D03*
X76708Y16764D02*
D03*
X75438Y18249D02*
D03*
X62103Y15367D02*
D03*
X63373Y16852D02*
D03*
X62103Y18337D02*
D03*
X87491Y12090D02*
D03*
X88976Y10820D02*
D03*
X90461Y12090D02*
D03*
D30*
X42037Y16053D02*
D03*
X50704Y11557D02*
D03*
X71501Y18034D02*
D03*
X4064Y21463D02*
D03*
X38608Y26543D02*
D03*
X41275Y13335D02*
D03*
X37973Y14859D02*
D03*
X61722Y9652D02*
D03*
M02*
