G04 Layer_Physical_Order=1*
G04 Layer_Color=255*
%FSLAX43Y43*%
%MOMM*%
G71*
G01*
G75*
%ADD10R,1.500X1.250*%
%ADD11R,1.250X1.500*%
%ADD12R,1.350X1.550*%
%ADD13R,1.550X1.350*%
%ADD14R,1.700X2.500*%
%ADD15C,0.762*%
%ADD16C,0.508*%
%ADD17C,0.381*%
%ADD18C,0.254*%
%ADD19C,1.524*%
%ADD20C,2.100*%
%ADD21C,1.500*%
%ADD22R,1.500X1.500*%
%ADD23C,1.300*%
%ADD24R,1.500X1.500*%
G36*
X84247Y259D02*
X259D01*
Y48788D01*
X84247D01*
Y259D01*
D02*
G37*
%LPC*%
G36*
X16688Y46997D02*
X7188D01*
X6989Y46970D01*
X6804Y46894D01*
X6645Y46771D01*
X2149Y42276D01*
X2027Y42116D01*
X1950Y41931D01*
X1924Y41732D01*
Y17704D01*
X1950Y17505D01*
X2027Y17320D01*
X2149Y17160D01*
X3343Y15967D01*
X3343Y15967D01*
X3502Y15844D01*
X3687Y15768D01*
X3886Y15741D01*
X6743D01*
X7766Y14718D01*
Y10148D01*
X7149Y9532D01*
X6383D01*
X6169Y9696D01*
X5852Y9827D01*
X5512Y9872D01*
X5171Y9827D01*
X4967Y9742D01*
X4945D01*
X4746Y9716D01*
X4561Y9639D01*
X4402Y9517D01*
X4280Y9358D01*
X4203Y9173D01*
X4177Y8974D01*
X4203Y8775D01*
X4220Y8734D01*
X4197Y8557D01*
X4241Y8216D01*
X4373Y7899D01*
X4438Y7813D01*
Y6858D01*
X4465Y6659D01*
X4541Y6474D01*
X4664Y6315D01*
X7915Y3063D01*
X7915Y3063D01*
X8074Y2941D01*
X8259Y2864D01*
X8458Y2838D01*
X37452D01*
Y2795D01*
X39714D01*
Y2864D01*
X42520D01*
X42719Y2890D01*
X42904Y2967D01*
X43063Y3089D01*
X45632Y5658D01*
X49201D01*
Y5270D01*
X49416D01*
Y4826D01*
X49465Y4578D01*
X49606Y4368D01*
X51079Y2895D01*
X51289Y2755D01*
X51537Y2705D01*
X74295D01*
X74543Y2755D01*
X74753Y2895D01*
X82398Y10540D01*
X82539Y10750D01*
X82588Y10998D01*
Y21844D01*
X82539Y22092D01*
X82398Y22302D01*
X81128Y23572D01*
X80918Y23712D01*
X80670Y23761D01*
X78498D01*
Y26669D01*
X77883D01*
Y28028D01*
X78163D01*
Y30290D01*
X77883D01*
Y34012D01*
X78270D01*
Y36012D01*
Y38124D01*
X77883D01*
Y39040D01*
X77883Y39040D01*
X77857Y39239D01*
X77780Y39424D01*
X77658Y39583D01*
X77658Y39583D01*
X76413Y40828D01*
X76254Y40950D01*
X76069Y41027D01*
X75870Y41053D01*
X74482D01*
X74426Y41096D01*
X74179Y41198D01*
X73914Y41233D01*
X73649Y41198D01*
X73402Y41096D01*
X73346Y41053D01*
X70915D01*
Y41415D01*
X68903D01*
Y41415D01*
X68815D01*
Y41415D01*
X66803D01*
Y41053D01*
X63168D01*
Y41415D01*
X61195D01*
X61068Y41415D01*
X61029Y41415D01*
X60560D01*
Y42335D01*
X60679Y42490D01*
X60781Y42737D01*
X60816Y43002D01*
X60781Y43267D01*
X60679Y43515D01*
X60516Y43727D01*
X60304Y43890D01*
X60057Y43992D01*
X59792Y44027D01*
X59526Y43992D01*
X59279Y43890D01*
X59067Y43727D01*
X58904Y43515D01*
X58802Y43267D01*
X58767Y43002D01*
X58802Y42737D01*
X58904Y42490D01*
X59023Y42335D01*
Y41053D01*
X56413D01*
X56214Y41027D01*
X56029Y40950D01*
X55870Y40828D01*
X55870Y40828D01*
X54317Y39275D01*
X45769D01*
Y39637D01*
X45371D01*
Y40633D01*
X45490Y40788D01*
X45592Y41035D01*
X45627Y41300D01*
X45592Y41566D01*
X45490Y41813D01*
X45327Y42025D01*
X45115Y42188D01*
X44868Y42290D01*
X44602Y42325D01*
X44337Y42290D01*
X44090Y42188D01*
X43878Y42025D01*
X43715Y41813D01*
X43671Y41707D01*
X43534D01*
X43490Y41813D01*
X43327Y42025D01*
X43115Y42188D01*
X42868Y42290D01*
X42602Y42325D01*
X42337Y42290D01*
X42090Y42188D01*
X41878Y42025D01*
X41715Y41813D01*
X41613Y41566D01*
X41578Y41300D01*
X41613Y41035D01*
X41715Y40788D01*
X41834Y40633D01*
Y39637D01*
X41657D01*
Y39275D01*
X39260D01*
X39171Y39343D01*
X38924Y39445D01*
X38659Y39480D01*
X38394Y39445D01*
X38146Y39343D01*
X37934Y39180D01*
X37771Y38968D01*
X37769Y38963D01*
X37714Y38891D01*
X37577Y38893D01*
X37546Y38968D01*
X37383Y39180D01*
X37171Y39343D01*
X36924Y39445D01*
X36659Y39480D01*
X36394Y39445D01*
X36146Y39343D01*
X35934Y39180D01*
X35771Y38968D01*
X35669Y38721D01*
X35634Y38456D01*
X35669Y38190D01*
X35771Y37943D01*
X35789Y37921D01*
Y36589D01*
X35561D01*
Y36166D01*
X33414D01*
Y36303D01*
X31152D01*
Y36166D01*
X30656D01*
Y36528D01*
X30419D01*
Y37179D01*
X30538Y37334D01*
X30640Y37581D01*
X30675Y37846D01*
X30640Y38111D01*
X30538Y38358D01*
X30375Y38571D01*
X30163Y38733D01*
X29916Y38836D01*
X29650Y38871D01*
X29385Y38836D01*
X29138Y38733D01*
X28926Y38571D01*
X28763Y38358D01*
X28755Y38339D01*
X28671Y38230D01*
X28595Y38045D01*
X28568Y37846D01*
X28595Y37647D01*
X28671Y37462D01*
X28755Y37353D01*
X28763Y37334D01*
X28882Y37179D01*
Y36618D01*
X28792Y36528D01*
X28556Y36528D01*
X28517Y36528D01*
X26544D01*
Y36166D01*
X26025D01*
X26025Y36166D01*
X25826Y36140D01*
X25641Y36063D01*
X25481Y35941D01*
X23843Y34303D01*
X21501D01*
X21360Y34411D01*
X21115Y34512D01*
X20939Y34536D01*
X20463Y35012D01*
X20535Y35119D01*
X20591Y35096D01*
X20853Y35061D01*
X21115Y35096D01*
X21360Y35197D01*
X21569Y35358D01*
X21730Y35568D01*
X21832Y35812D01*
X21866Y36074D01*
X21832Y36336D01*
X21730Y36580D01*
X21569Y36790D01*
X21360Y36951D01*
X21115Y37052D01*
X20853Y37087D01*
X20591Y37052D01*
X20347Y36951D01*
X20137Y36790D01*
X19976Y36580D01*
X19875Y36336D01*
X19841Y36074D01*
X19875Y35812D01*
X19899Y35755D01*
X19791Y35683D01*
X18608Y36867D01*
Y38443D01*
X18896D01*
Y40755D01*
X18608D01*
Y42201D01*
X18845D01*
Y44463D01*
X18608D01*
Y45076D01*
X18608Y45076D01*
X18582Y45275D01*
X18505Y45461D01*
X18383Y45620D01*
X18383Y45620D01*
X17231Y46771D01*
X17072Y46894D01*
X16887Y46970D01*
X16688Y46997D01*
D02*
G37*
%LPD*%
G36*
X69081Y16104D02*
X69128Y15957D01*
X69035Y15837D01*
X68944Y15617D01*
X68913Y15381D01*
X68944Y15145D01*
X69035Y14925D01*
X69180Y14736D01*
X69242Y14688D01*
Y10122D01*
X65951Y6831D01*
X59932D01*
Y8304D01*
X59510D01*
Y11747D01*
X59748D01*
Y11747D01*
X59836D01*
Y11747D01*
X61848D01*
Y12109D01*
X64211D01*
X64410Y12135D01*
X64595Y12212D01*
X64755Y12334D01*
X68395Y15975D01*
X68555Y15954D01*
X68791Y15985D01*
X69010Y16076D01*
X69057Y16111D01*
X69081Y16104D01*
D02*
G37*
G36*
X81293Y21576D02*
Y11266D01*
X74027Y4000D01*
X59448D01*
Y4192D01*
X59932D01*
Y5666D01*
X66192D01*
X66415Y5710D01*
X66604Y5836D01*
X70237Y9469D01*
X70363Y9658D01*
X70407Y9881D01*
Y14688D01*
X70469Y14736D01*
X70614Y14925D01*
X70705Y15145D01*
X70736Y15381D01*
X70705Y15617D01*
X70614Y15837D01*
X70469Y16025D01*
X70438Y16050D01*
X70478Y16170D01*
X74449D01*
Y15989D01*
X74746D01*
Y14536D01*
X74627Y14381D01*
X74524Y14134D01*
X74489Y13868D01*
X74524Y13603D01*
X74627Y13356D01*
X74790Y13144D01*
X75002Y12981D01*
X75249Y12879D01*
X75514Y12844D01*
X75779Y12879D01*
X76027Y12981D01*
X76239Y13144D01*
X76402Y13356D01*
X76504Y13603D01*
X76539Y13868D01*
X76504Y14134D01*
X76402Y14381D01*
X76283Y14536D01*
Y15989D01*
X76461D01*
Y15989D01*
X76549D01*
Y15989D01*
X78561D01*
Y18251D01*
X78323D01*
Y19407D01*
X78498D01*
Y22467D01*
X80402D01*
X81293Y21576D01*
D02*
G37*
G36*
X59047Y31529D02*
X59006Y31475D01*
X58903Y31228D01*
X58868Y30963D01*
X58903Y30697D01*
X59006Y30450D01*
X59169Y30238D01*
X59381Y30075D01*
X59538Y30010D01*
X59513Y29883D01*
X58891D01*
X58363Y30411D01*
Y32383D01*
X58453Y32473D01*
X58769Y32473D01*
X58808Y32473D01*
X59047D01*
Y31529D01*
D02*
G37*
G36*
X51549Y10536D02*
Y8536D01*
X51657D01*
Y7532D01*
X51301D01*
Y7532D01*
X51213D01*
Y7532D01*
X50711D01*
Y8536D01*
X50763D01*
Y10548D01*
X50763D01*
Y10636D01*
X50763D01*
Y10873D01*
X51549D01*
Y10536D01*
D02*
G37*
G36*
X76346Y38721D02*
Y38124D01*
X75958D01*
Y36012D01*
Y34012D01*
X76346D01*
Y30290D01*
X76151D01*
Y28028D01*
X76346D01*
Y26669D01*
X76036D01*
Y23761D01*
X74766D01*
X73977Y24551D01*
Y25240D01*
X75423Y26685D01*
X75545Y26845D01*
X75622Y27030D01*
X75648Y27229D01*
Y33223D01*
X75622Y33422D01*
X75545Y33607D01*
X75423Y33767D01*
X74477Y34713D01*
X74318Y34835D01*
X74132Y34912D01*
X73933Y34938D01*
X73190D01*
X73049Y35046D01*
X72804Y35147D01*
X72542Y35182D01*
X72280Y35147D01*
X72036Y35046D01*
X71826Y34885D01*
X71665Y34675D01*
X71564Y34431D01*
X71530Y34169D01*
X71564Y33907D01*
X71588Y33850D01*
X71480Y33778D01*
X70678Y34581D01*
Y39153D01*
X70915D01*
Y39516D01*
X73165D01*
X73189Y39484D01*
X73402Y39321D01*
X73649Y39218D01*
X73914Y39183D01*
X74179Y39218D01*
X74426Y39321D01*
X74639Y39484D01*
X74663Y39516D01*
X75551D01*
X76346Y38721D01*
D02*
G37*
G36*
X17071Y44758D02*
Y44553D01*
X16981Y44463D01*
X16745Y44463D01*
X16706Y44463D01*
X14733D01*
Y44101D01*
X13894D01*
X13894Y44101D01*
X13695Y44075D01*
X13510Y43998D01*
X13350Y43876D01*
X13350Y43876D01*
X9715Y40240D01*
X9143D01*
X9021Y40334D01*
X8774Y40436D01*
X8509Y40471D01*
X8244Y40436D01*
X7997Y40334D01*
X7875Y40240D01*
X6807D01*
X6608Y40214D01*
X6423Y40137D01*
X6264Y40015D01*
X4740Y38491D01*
X4618Y38332D01*
X4541Y38147D01*
X4515Y37948D01*
Y29648D01*
X4410Y29543D01*
X4287Y29383D01*
X4211Y29198D01*
X4184Y28999D01*
X4211Y28800D01*
X4224Y28767D01*
X4197Y28557D01*
X4241Y28216D01*
X4373Y27899D01*
X4582Y27627D01*
X4854Y27418D01*
X5171Y27286D01*
X5512Y27241D01*
X5852Y27286D01*
X6169Y27418D01*
X6442Y27627D01*
X6651Y27899D01*
X6782Y28216D01*
X6827Y28557D01*
X6782Y28897D01*
X6651Y29214D01*
X6442Y29487D01*
X6169Y29696D01*
X6052Y29744D01*
Y37629D01*
X7126Y38703D01*
X7809D01*
X7997Y38559D01*
X8244Y38456D01*
X8509Y38421D01*
X8774Y38456D01*
X9021Y38559D01*
X9209Y38703D01*
X10033D01*
X10232Y38729D01*
X10417Y38806D01*
X10576Y38928D01*
X14212Y42564D01*
X14733D01*
Y42201D01*
X16706D01*
X16833Y42201D01*
X16872Y42201D01*
X17071D01*
Y40755D01*
X16784D01*
Y38443D01*
X17071D01*
Y36548D01*
X17097Y36349D01*
X17174Y36164D01*
X17296Y36005D01*
X19852Y33449D01*
X19875Y33272D01*
X19976Y33028D01*
X20137Y32818D01*
X20347Y32657D01*
X20591Y32556D01*
X20853Y32521D01*
X21115Y32556D01*
X21360Y32657D01*
X21501Y32766D01*
X24162D01*
X24360Y32792D01*
X24546Y32869D01*
X24705Y32991D01*
X26343Y34629D01*
X26544D01*
Y34266D01*
X28517D01*
X28644Y34266D01*
X28683Y34266D01*
X30656D01*
Y34629D01*
X31152D01*
Y34291D01*
X33414D01*
Y34629D01*
X35561D01*
Y34327D01*
X35833D01*
Y33813D01*
X35470D01*
Y33576D01*
X35047D01*
X34955Y33647D01*
X34708Y33749D01*
X34442Y33784D01*
X34177Y33749D01*
X33930Y33647D01*
X33718Y33484D01*
X33555Y33272D01*
X33453Y33025D01*
X33418Y32759D01*
X33453Y32494D01*
X33555Y32247D01*
X33718Y32035D01*
X33930Y31872D01*
X34036Y31828D01*
Y31691D01*
X33930Y31647D01*
X33775Y31528D01*
X33069D01*
Y31915D01*
X28957D01*
Y31655D01*
X28232D01*
Y31952D01*
X25920D01*
Y31705D01*
X25286D01*
Y31952D01*
X23024D01*
Y31763D01*
X21501D01*
X21360Y31871D01*
X21115Y31972D01*
X20853Y32007D01*
X20591Y31972D01*
X20347Y31871D01*
X20137Y31710D01*
X19976Y31500D01*
X19875Y31256D01*
X19841Y30994D01*
X19875Y30732D01*
X19976Y30488D01*
X20137Y30278D01*
X20347Y30117D01*
X20591Y30016D01*
X20853Y29981D01*
X21115Y30016D01*
X21360Y30117D01*
X21501Y30226D01*
X23024D01*
Y29940D01*
X23024D01*
Y29852D01*
X23024D01*
Y27840D01*
X23387D01*
Y27039D01*
X22973Y26626D01*
X9506D01*
Y32988D01*
X12387D01*
X12517Y32818D01*
X12727Y32657D01*
X12971Y32556D01*
X13233Y32521D01*
X13495Y32556D01*
X13740Y32657D01*
X13949Y32818D01*
X14110Y33028D01*
X14212Y33272D01*
X14246Y33534D01*
X14212Y33796D01*
X14110Y34040D01*
X13949Y34250D01*
X13740Y34411D01*
X13495Y34512D01*
X13233Y34547D01*
X13040Y34521D01*
X13011Y34525D01*
X9093D01*
X9023Y34516D01*
X9021Y34517D01*
X8774Y34619D01*
X8509Y34654D01*
X8244Y34619D01*
X7997Y34517D01*
X7784Y34354D01*
X7622Y34142D01*
X7519Y33895D01*
X7484Y33630D01*
X7519Y33364D01*
X7622Y33117D01*
X7784Y32905D01*
X7969Y32763D01*
Y26176D01*
X6536Y24742D01*
X6057D01*
X5852Y24827D01*
X5512Y24872D01*
X5171Y24827D01*
X4854Y24696D01*
X4582Y24487D01*
X4373Y24214D01*
X4241Y23897D01*
X4197Y23557D01*
X4241Y23216D01*
X4373Y22899D01*
X4582Y22627D01*
X4854Y22418D01*
X5171Y22286D01*
X5512Y22241D01*
X5852Y22286D01*
X6169Y22418D01*
X6442Y22627D01*
X6651Y22899D01*
X6778Y23205D01*
X6854D01*
X7053Y23231D01*
X7238Y23308D01*
X7398Y23430D01*
X9056Y25089D01*
X23292D01*
X23491Y25115D01*
X23676Y25192D01*
X23835Y25314D01*
X24699Y26177D01*
X24699Y26177D01*
X24821Y26337D01*
X24898Y26522D01*
X24924Y26721D01*
X24924Y26721D01*
Y27840D01*
X25286D01*
Y28127D01*
X25920D01*
Y27840D01*
X26705D01*
Y23664D01*
X26586Y23509D01*
X26484Y23262D01*
X26449Y22996D01*
X26484Y22731D01*
X26586Y22484D01*
X26749Y22272D01*
X26961Y22109D01*
X27208Y22007D01*
X27473Y21972D01*
X27739Y22007D01*
X27986Y22109D01*
X28198Y22272D01*
X28361Y22484D01*
X28463Y22731D01*
X28498Y22996D01*
X28463Y23262D01*
X28361Y23509D01*
X28242Y23664D01*
Y28499D01*
X28232Y28572D01*
Y30118D01*
X28957D01*
Y29603D01*
X29245D01*
Y28445D01*
X29212Y28402D01*
X29109Y28154D01*
X29074Y27889D01*
X29109Y27624D01*
X29212Y27377D01*
X29245Y27333D01*
Y23664D01*
X29126Y23509D01*
X29024Y23262D01*
X28989Y22996D01*
X29024Y22731D01*
X29126Y22484D01*
X29289Y22272D01*
X29501Y22109D01*
X29748Y22007D01*
X30013Y21972D01*
X30279Y22007D01*
X30526Y22109D01*
X30738Y22272D01*
X30901Y22484D01*
X31003Y22731D01*
X31038Y22996D01*
X31003Y23262D01*
X30901Y23509D01*
X30782Y23664D01*
Y27133D01*
X30824Y27165D01*
X30986Y27377D01*
X31089Y27624D01*
X31124Y27889D01*
X31089Y28154D01*
X30986Y28402D01*
X30824Y28614D01*
X30782Y28646D01*
Y29603D01*
X33069D01*
Y29991D01*
X33775D01*
X33930Y29872D01*
X34177Y29770D01*
X34442Y29735D01*
X34708Y29770D01*
X34955Y29872D01*
X35110Y29991D01*
X35470D01*
Y29701D01*
X35833D01*
Y27381D01*
X35859Y27182D01*
X35936Y26997D01*
X36058Y26838D01*
X39893Y23002D01*
X39893Y23002D01*
X40053Y22880D01*
X40238Y22803D01*
X40437Y22777D01*
X48717D01*
X48916Y22803D01*
X49101Y22880D01*
X49261Y23002D01*
X49467Y23209D01*
X49719Y23242D01*
X49966Y23344D01*
X50178Y23507D01*
X50341Y23719D01*
X50444Y23966D01*
X50477Y24219D01*
X51369Y25111D01*
X51491Y25270D01*
X51568Y25455D01*
X51594Y25654D01*
Y27445D01*
X51702Y27586D01*
X51804Y27830D01*
X51838Y28092D01*
X51804Y28354D01*
X51702Y28599D01*
X51541Y28808D01*
X51332Y28969D01*
X51088Y29071D01*
X50825Y29105D01*
X50563Y29071D01*
X50319Y28969D01*
X50109Y28808D01*
X49948Y28599D01*
X49847Y28354D01*
X49813Y28092D01*
X49847Y27830D01*
X49948Y27586D01*
X50057Y27445D01*
Y25972D01*
X49324Y25239D01*
X49189Y25221D01*
X48941Y25119D01*
X48729Y24956D01*
X48566Y24744D01*
X48464Y24497D01*
X48446Y24362D01*
X48399Y24314D01*
X40755D01*
X37370Y27700D01*
Y29701D01*
X37732D01*
Y31713D01*
X37732D01*
Y31801D01*
X37732D01*
Y33813D01*
X37370D01*
Y34327D01*
X37573D01*
Y34327D01*
X37661D01*
Y34327D01*
X37890D01*
Y28245D01*
X37916Y28046D01*
X37993Y27861D01*
X38115Y27701D01*
X40935Y24882D01*
X41094Y24760D01*
X41279Y24683D01*
X41478Y24657D01*
X47346D01*
X47545Y24683D01*
X47730Y24760D01*
X47889Y24882D01*
X48829Y25822D01*
X48951Y25981D01*
X49028Y26166D01*
X49054Y26365D01*
Y27445D01*
X49162Y27586D01*
X49264Y27830D01*
X49298Y28092D01*
X49264Y28354D01*
X49162Y28599D01*
X49001Y28808D01*
X48792Y28969D01*
X48548Y29071D01*
X48285Y29105D01*
X48023Y29071D01*
X47779Y28969D01*
X47569Y28808D01*
X47408Y28599D01*
X47307Y28354D01*
X47273Y28092D01*
X47307Y27830D01*
X47408Y27586D01*
X47517Y27445D01*
Y26684D01*
X47027Y26194D01*
X41797D01*
X39427Y28563D01*
Y34327D01*
X39673D01*
Y36589D01*
X39427D01*
Y37738D01*
X41657D01*
Y37375D01*
X43669D01*
Y37375D01*
X43757D01*
Y37375D01*
X45769D01*
Y37738D01*
X50057D01*
Y36360D01*
X49948Y36219D01*
X49847Y35974D01*
X49813Y35712D01*
X49847Y35450D01*
X49948Y35206D01*
X50109Y34996D01*
X50319Y34835D01*
X50563Y34734D01*
X50825Y34700D01*
X51088Y34734D01*
X51332Y34835D01*
X51541Y34996D01*
X51702Y35206D01*
X51804Y35450D01*
X51838Y35712D01*
X51804Y35974D01*
X51702Y36219D01*
X51594Y36360D01*
Y37738D01*
X54635D01*
X54834Y37764D01*
X55020Y37841D01*
X55179Y37963D01*
X56732Y39516D01*
X59056D01*
Y39153D01*
X61029D01*
X61156Y39153D01*
X61195Y39153D01*
X63168D01*
Y39516D01*
X66803D01*
Y39153D01*
X67041D01*
Y34092D01*
X65444Y32495D01*
X65429Y32506D01*
X65185Y32607D01*
X64922Y32642D01*
X64660Y32607D01*
X64416Y32506D01*
X64206Y32345D01*
X64045Y32135D01*
X63944Y31891D01*
X63910Y31629D01*
X63944Y31367D01*
X64045Y31123D01*
X64052Y31114D01*
X63996Y31000D01*
X63195D01*
X62947Y30951D01*
X62737Y30811D01*
X61809Y29883D01*
X60273D01*
X60248Y30010D01*
X60406Y30075D01*
X60618Y30238D01*
X60781Y30450D01*
X60883Y30697D01*
X60918Y30963D01*
X60883Y31228D01*
X60781Y31475D01*
X60618Y31687D01*
X60584Y31713D01*
Y32473D01*
X60781D01*
Y33140D01*
X64662D01*
X64853Y33166D01*
X64922Y33156D01*
X65185Y33191D01*
X65429Y33292D01*
X65638Y33453D01*
X65799Y33663D01*
X65901Y33907D01*
X65935Y34169D01*
X65901Y34431D01*
X65799Y34675D01*
X65638Y34885D01*
X65429Y35046D01*
X65185Y35147D01*
X64922Y35182D01*
X64871Y35175D01*
X64848Y35185D01*
X64649Y35211D01*
X64450Y35185D01*
X64265Y35108D01*
X64106Y34986D01*
X63984Y34827D01*
X63922Y34678D01*
X60781D01*
Y34735D01*
X60535D01*
Y35445D01*
X60832D01*
Y37707D01*
X58820D01*
Y35445D01*
X58998D01*
Y34825D01*
X58908Y34735D01*
X58681Y34735D01*
X58642Y34735D01*
X56669D01*
Y34144D01*
X48902D01*
Y34920D01*
X49001Y34996D01*
X49162Y35206D01*
X49264Y35450D01*
X49298Y35712D01*
X49264Y35974D01*
X49162Y36219D01*
X49001Y36428D01*
X48792Y36589D01*
X48548Y36691D01*
X48285Y36725D01*
X48023Y36691D01*
X47779Y36589D01*
X47569Y36428D01*
X47408Y36219D01*
X47307Y35974D01*
X47273Y35712D01*
X47307Y35450D01*
X47364Y35312D01*
Y33923D01*
X46859Y33417D01*
X43472D01*
Y33704D01*
X41160D01*
Y31592D01*
X43472D01*
Y31880D01*
X47177D01*
X47376Y31906D01*
X47561Y31983D01*
X47721Y32105D01*
X48223Y32607D01*
X56669D01*
Y32473D01*
X57068D01*
Y30143D01*
X57117Y29895D01*
X57258Y29685D01*
X58165Y28778D01*
X58375Y28637D01*
X58623Y28588D01*
X62078D01*
X62325Y28637D01*
X62535Y28778D01*
X63463Y29706D01*
X66991D01*
X69212Y27485D01*
Y26835D01*
X68803D01*
Y24523D01*
X70915D01*
Y24911D01*
X72682D01*
Y24282D01*
X72732Y24035D01*
X72872Y23825D01*
X74040Y22656D01*
X74250Y22516D01*
X74498Y22467D01*
X76036D01*
Y19407D01*
X76786D01*
Y18251D01*
X76549D01*
Y18251D01*
X76461D01*
Y18251D01*
X74449D01*
Y17707D01*
X68885D01*
X68791Y17746D01*
X68555Y17777D01*
X68319Y17746D01*
X68099Y17655D01*
X68045Y17614D01*
X68000Y17608D01*
X67815Y17531D01*
X67656Y17409D01*
X63893Y13646D01*
X61848D01*
Y14009D01*
X59836D01*
Y14009D01*
X59748D01*
Y14009D01*
X59510D01*
Y14451D01*
X59600Y14541D01*
X59836Y14541D01*
X59875Y14541D01*
X61848D01*
Y16803D01*
X61424D01*
Y18433D01*
X61543Y18588D01*
X61645Y18836D01*
X61680Y19101D01*
X61645Y19366D01*
X61543Y19613D01*
X61380Y19825D01*
X61168Y19988D01*
X60920Y20091D01*
X60721Y20117D01*
X60582Y20224D01*
X60397Y20300D01*
X60198Y20327D01*
X47879D01*
X47680Y20300D01*
X47495Y20224D01*
X47336Y20101D01*
X44894Y17660D01*
X37796D01*
X37769Y17681D01*
X37549Y17772D01*
X37313Y17803D01*
X37077Y17772D01*
X36857Y17681D01*
X36668Y17536D01*
X36523Y17347D01*
X36432Y17127D01*
X36401Y16891D01*
X36432Y16655D01*
X36523Y16435D01*
X36668Y16246D01*
X36857Y16101D01*
X37077Y16010D01*
X37313Y15979D01*
X37549Y16010D01*
X37769Y16101D01*
X37804Y16078D01*
X37837Y15919D01*
X37793Y15862D01*
X37702Y15642D01*
X37671Y15406D01*
X37702Y15170D01*
X37793Y14950D01*
X37865Y14856D01*
Y12224D01*
X37746Y12069D01*
X37644Y11822D01*
X37609Y11557D01*
X37644Y11292D01*
X37746Y11045D01*
X37909Y10832D01*
X38121Y10670D01*
X38368Y10567D01*
X38633Y10532D01*
X38899Y10567D01*
X39146Y10670D01*
X39358Y10832D01*
X39521Y11045D01*
X39623Y11292D01*
X39658Y11557D01*
X39623Y11822D01*
X39521Y12069D01*
X39402Y12224D01*
Y15022D01*
X39463Y15170D01*
X39494Y15406D01*
X39463Y15642D01*
X39372Y15862D01*
X39270Y15995D01*
X39332Y16122D01*
X45212D01*
X45411Y16149D01*
X45596Y16225D01*
X45755Y16348D01*
X48197Y18789D01*
X59684D01*
X59768Y18588D01*
X59887Y18433D01*
Y16925D01*
X59760Y16803D01*
X59709Y16803D01*
X57736D01*
Y16440D01*
X53238D01*
X53039Y16414D01*
X52854Y16337D01*
X52695Y16215D01*
X51989Y15510D01*
X51910Y15499D01*
X51690Y15408D01*
X51501Y15263D01*
X51357Y15075D01*
X51265Y14855D01*
X51234Y14619D01*
X51265Y14383D01*
X51357Y14163D01*
X51501Y13974D01*
X51690Y13829D01*
X51910Y13738D01*
X52146Y13707D01*
X52382Y13738D01*
X52602Y13829D01*
X52791Y13974D01*
X52936Y14163D01*
X53020Y14367D01*
X53557Y14903D01*
X57736D01*
Y14541D01*
X57973D01*
Y14009D01*
X57736D01*
Y11747D01*
X57973D01*
Y8304D01*
X57670D01*
Y6831D01*
X53313D01*
Y7532D01*
X53194D01*
Y8536D01*
X53861D01*
Y10536D01*
Y12648D01*
X51549D01*
Y12410D01*
X50763D01*
Y12648D01*
X50400D01*
Y15060D01*
X50585Y15246D01*
X50640Y15223D01*
X50876Y15192D01*
X51112Y15223D01*
X51332Y15314D01*
X51521Y15459D01*
X51666Y15648D01*
X51757Y15868D01*
X51788Y16104D01*
X51757Y16340D01*
X51666Y16559D01*
X51521Y16748D01*
X51332Y16893D01*
X51112Y16984D01*
X50876Y17015D01*
X50640Y16984D01*
X50420Y16893D01*
X50393Y16872D01*
X50356D01*
X50157Y16846D01*
X49972Y16769D01*
X49813Y16647D01*
X49813Y16647D01*
X49088Y15922D01*
X48966Y15763D01*
X48889Y15578D01*
X48863Y15379D01*
Y12648D01*
X48501D01*
Y10636D01*
X48501D01*
Y10548D01*
X48501D01*
Y8536D01*
X49416D01*
Y7532D01*
X49201D01*
Y7195D01*
X45314D01*
X45115Y7169D01*
X44929Y7092D01*
X44770Y6970D01*
X42201Y4401D01*
X39803D01*
X39714Y4491D01*
X39714Y4895D01*
X39714Y4934D01*
Y6907D01*
X39360D01*
Y8295D01*
X39521Y8505D01*
X39623Y8752D01*
X39658Y9017D01*
X39623Y9282D01*
X39521Y9529D01*
X39358Y9742D01*
X39146Y9904D01*
X38899Y10007D01*
X38633Y10042D01*
X38368Y10007D01*
X38121Y9904D01*
X37909Y9742D01*
X37746Y9529D01*
X37644Y9282D01*
X37609Y9017D01*
X37644Y8752D01*
X37746Y8505D01*
X37823Y8405D01*
Y6907D01*
X37452D01*
Y6611D01*
X35846D01*
X35691Y6729D01*
X35444Y6832D01*
X35179Y6867D01*
X34914Y6832D01*
X34667Y6729D01*
X34454Y6567D01*
X34292Y6354D01*
X34189Y6107D01*
X34154Y5842D01*
X34189Y5577D01*
X34292Y5330D01*
X34454Y5117D01*
X34667Y4955D01*
X34914Y4852D01*
X35179Y4817D01*
X35444Y4852D01*
X35691Y4955D01*
X35846Y5073D01*
X37362D01*
X37452Y4984D01*
X37452Y4807D01*
X37452Y4768D01*
Y4375D01*
X8777D01*
X5976Y7176D01*
Y7337D01*
X6169Y7418D01*
X6442Y7627D01*
X6651Y7899D01*
X6690Y7994D01*
X7468D01*
X7667Y8021D01*
X7852Y8097D01*
X8011Y8220D01*
X9078Y9286D01*
X9200Y9446D01*
X9277Y9631D01*
X9303Y9830D01*
X9303Y9830D01*
Y15037D01*
X9277Y15236D01*
X9200Y15421D01*
X9078Y15580D01*
X7605Y17053D01*
X7445Y17176D01*
X7260Y17252D01*
X7061Y17279D01*
X4205D01*
X3461Y18022D01*
Y41414D01*
X7507Y45459D01*
X16369D01*
X17071Y44758D01*
D02*
G37*
G36*
X57670Y4192D02*
X58154D01*
Y4000D01*
X51805D01*
X50711Y5094D01*
Y5270D01*
X51213D01*
Y5270D01*
X51301D01*
Y5270D01*
X53313D01*
Y5666D01*
X57670D01*
Y4192D01*
D02*
G37*
G36*
X69141Y34262D02*
X69167Y34063D01*
X69244Y33878D01*
X69366Y33719D01*
X71541Y31544D01*
X71564Y31367D01*
X71665Y31123D01*
X71826Y30913D01*
X72036Y30752D01*
X72280Y30651D01*
X72542Y30616D01*
X72804Y30651D01*
X73049Y30752D01*
X73258Y30913D01*
X73419Y31123D01*
X73521Y31367D01*
X73555Y31629D01*
X73521Y31891D01*
X73419Y32135D01*
X73258Y32345D01*
X73049Y32506D01*
X72804Y32607D01*
X72628Y32631D01*
X72152Y33107D01*
X72224Y33214D01*
X72280Y33191D01*
X72542Y33156D01*
X72804Y33191D01*
X73049Y33292D01*
X73190Y33401D01*
X73615D01*
X74111Y32905D01*
Y27547D01*
X73011Y26448D01*
X70915D01*
Y26835D01*
X70507D01*
Y27753D01*
X70458Y28001D01*
X70317Y28211D01*
X67717Y30811D01*
X67507Y30951D01*
X67259Y31000D01*
X66289D01*
X66241Y31118D01*
X68353Y33230D01*
X68475Y33389D01*
X68552Y33574D01*
X68578Y33773D01*
Y39153D01*
X68815D01*
Y39153D01*
X68903D01*
Y39153D01*
X69141D01*
Y34262D01*
D02*
G37*
%LPC*%
G36*
X72542Y37722D02*
X72280Y37687D01*
X72036Y37586D01*
X71826Y37425D01*
X71665Y37215D01*
X71564Y36971D01*
X71530Y36709D01*
X71564Y36447D01*
X71665Y36203D01*
X71826Y35993D01*
X72036Y35832D01*
X72280Y35731D01*
X72542Y35696D01*
X72804Y35731D01*
X73049Y35832D01*
X73258Y35993D01*
X73419Y36203D01*
X73521Y36447D01*
X73555Y36709D01*
X73521Y36971D01*
X73419Y37215D01*
X73258Y37425D01*
X73049Y37586D01*
X72804Y37687D01*
X72542Y37722D01*
D02*
G37*
G36*
X32553Y24021D02*
X32288Y23986D01*
X32041Y23884D01*
X31829Y23721D01*
X31666Y23509D01*
X31564Y23262D01*
X31529Y22996D01*
X31564Y22731D01*
X31666Y22484D01*
X31829Y22272D01*
X32041Y22109D01*
X32288Y22007D01*
X32553Y21972D01*
X32819Y22007D01*
X33066Y22109D01*
X33278Y22272D01*
X33441Y22484D01*
X33543Y22731D01*
X33578Y22996D01*
X33543Y23262D01*
X33441Y23509D01*
X33278Y23721D01*
X33066Y23884D01*
X32819Y23986D01*
X32553Y24021D01*
D02*
G37*
G36*
X46749Y29096D02*
X44741D01*
Y27088D01*
X46749D01*
Y29096D01*
D02*
G37*
G36*
X14237Y37078D02*
X12229D01*
Y35070D01*
X14237D01*
Y37078D01*
D02*
G37*
G36*
X65926Y37713D02*
X63918D01*
Y35705D01*
X65926D01*
Y37713D01*
D02*
G37*
G36*
X53365Y36725D02*
X53103Y36691D01*
X52859Y36589D01*
X52649Y36428D01*
X52488Y36219D01*
X52387Y35974D01*
X52353Y35712D01*
X52387Y35450D01*
X52488Y35206D01*
X52649Y34996D01*
X52859Y34835D01*
X53103Y34734D01*
X53365Y34700D01*
X53627Y34734D01*
X53872Y34835D01*
X54081Y34996D01*
X54242Y35206D01*
X54344Y35450D01*
X54378Y35712D01*
X54344Y35974D01*
X54242Y36219D01*
X54081Y36428D01*
X53872Y36589D01*
X53627Y36691D01*
X53365Y36725D01*
D02*
G37*
G36*
X20853Y29467D02*
X20591Y29432D01*
X20347Y29331D01*
X20137Y29170D01*
X19976Y28960D01*
X19875Y28716D01*
X19841Y28454D01*
X19875Y28192D01*
X19976Y27948D01*
X20137Y27738D01*
X20347Y27577D01*
X20591Y27476D01*
X20853Y27441D01*
X21115Y27476D01*
X21360Y27577D01*
X21569Y27738D01*
X21730Y27948D01*
X21832Y28192D01*
X21866Y28454D01*
X21832Y28716D01*
X21730Y28960D01*
X21569Y29170D01*
X21360Y29331D01*
X21115Y29432D01*
X20853Y29467D01*
D02*
G37*
G36*
X45745Y36725D02*
X45483Y36691D01*
X45239Y36589D01*
X45029Y36428D01*
X44868Y36219D01*
X44767Y35974D01*
X44733Y35712D01*
X44767Y35450D01*
X44868Y35206D01*
X45029Y34996D01*
X45239Y34835D01*
X45483Y34734D01*
X45745Y34700D01*
X46007Y34734D01*
X46252Y34835D01*
X46461Y34996D01*
X46622Y35206D01*
X46724Y35450D01*
X46758Y35712D01*
X46724Y35974D01*
X46622Y36219D01*
X46461Y36428D01*
X46252Y36589D01*
X46007Y36691D01*
X45745Y36725D01*
D02*
G37*
G36*
X72542Y30102D02*
X72280Y30067D01*
X72036Y29966D01*
X71826Y29805D01*
X71665Y29595D01*
X71564Y29351D01*
X71530Y29089D01*
X71564Y28827D01*
X71665Y28583D01*
X71826Y28373D01*
X72036Y28212D01*
X72280Y28111D01*
X72542Y28076D01*
X72804Y28111D01*
X73049Y28212D01*
X73258Y28373D01*
X73419Y28583D01*
X73521Y28827D01*
X73555Y29089D01*
X73521Y29351D01*
X73419Y29595D01*
X73258Y29805D01*
X73049Y29966D01*
X72804Y30067D01*
X72542Y30102D01*
D02*
G37*
%LPD*%
D10*
X38583Y5901D02*
D03*
Y3801D02*
D03*
X49632Y9542D02*
D03*
Y11642D02*
D03*
X58801Y5198D02*
D03*
Y7298D02*
D03*
X36601Y30707D02*
D03*
Y32807D02*
D03*
X32283Y37397D02*
D03*
Y35297D02*
D03*
X24155Y28846D02*
D03*
Y30946D02*
D03*
D11*
X62162Y40284D02*
D03*
X60062D02*
D03*
X58742Y15672D02*
D03*
X60842D02*
D03*
Y12878D02*
D03*
X58742D02*
D03*
X50207Y6401D02*
D03*
X52307D02*
D03*
X42663Y38506D02*
D03*
X44763D02*
D03*
X36567Y35458D02*
D03*
X38667D02*
D03*
X77157Y29159D02*
D03*
X79257D02*
D03*
X77555Y17120D02*
D03*
X75455D02*
D03*
X69909Y40284D02*
D03*
X67809D02*
D03*
X59775Y33604D02*
D03*
X57675D02*
D03*
X59826Y36576D02*
D03*
X57726D02*
D03*
X29650Y35397D02*
D03*
X27550D02*
D03*
X15739Y43332D02*
D03*
X17839D02*
D03*
D12*
X32013Y30759D02*
D03*
X30013D02*
D03*
X67859Y25679D02*
D03*
X69859D02*
D03*
X15840Y39599D02*
D03*
X17840D02*
D03*
D13*
X52705Y11592D02*
D03*
Y9592D02*
D03*
X77114Y37068D02*
D03*
Y35068D02*
D03*
X42316Y30648D02*
D03*
Y32648D02*
D03*
X27076Y30896D02*
D03*
Y28896D02*
D03*
D14*
X77267Y21038D02*
D03*
Y25038D02*
D03*
D15*
X57182Y33376D02*
X57715Y33909D01*
X17839Y36548D02*
Y43332D01*
X38621Y3680D02*
X38684Y3700D01*
X38388Y3607D02*
X38621Y3680D01*
X5207Y8763D02*
X7468D01*
X5207Y6858D02*
Y8763D01*
X6807Y39472D02*
X10033D01*
X4953Y28999D02*
X5283Y29329D01*
X8738Y33401D02*
X9093Y33757D01*
X5207Y23974D02*
X6854D01*
X69909Y40284D02*
X75870D01*
X48717Y23546D02*
X50825Y25654D01*
X36331Y30759D02*
X36440Y30868D01*
X30013Y22996D02*
Y30759D01*
X24098Y30994D02*
X24155Y30936D01*
X27407D01*
X36557Y35384D02*
Y38405D01*
X29650Y35397D02*
X36525D01*
X52426Y6248D02*
Y9592D01*
X59766Y33909D02*
Y36830D01*
X59815Y31040D02*
Y33909D01*
X59766D02*
X59815D01*
X68628Y16939D02*
X75455D01*
X38591Y5664D02*
Y8975D01*
X38236Y5842D02*
X38583Y6189D01*
X58742Y7137D02*
Y12878D01*
X59792Y40284D02*
Y43002D01*
X77114Y25673D02*
Y35068D01*
Y25673D02*
X77648Y25139D01*
X38379Y38506D02*
X42663D01*
X38379D02*
X38659Y38227D01*
Y28245D02*
Y38227D01*
X36539Y35391D02*
X36539Y35391D01*
X36525Y35397D02*
X36539Y35391D01*
X5207Y8763D02*
Y8974D01*
X8458Y3607D02*
X38388D01*
X5207Y6858D02*
X8458Y3607D01*
X2692Y41732D02*
X7188Y46228D01*
X2692Y17704D02*
Y41732D01*
Y17704D02*
X3886Y16510D01*
X5283Y37948D02*
X6807Y39472D01*
X5283Y29329D02*
Y37948D01*
X13011Y33757D02*
X13233Y33534D01*
X9093Y33757D02*
X13011D01*
X36539Y35391D02*
X36539D01*
X68199Y16866D02*
X68555D01*
X64211Y12878D02*
X68199Y16866D01*
X60842Y12878D02*
X64211D01*
X17839Y43332D02*
Y45076D01*
X16688Y46228D02*
X17839Y45076D01*
X7188Y46228D02*
X16688D01*
X52375Y6079D02*
X52426Y6130D01*
X52185Y14619D02*
X53238Y15672D01*
X52146Y14619D02*
X52185D01*
X38684Y3700D02*
X38752Y3632D01*
X38583Y3801D02*
X38684Y3700D01*
X42520Y3632D02*
X45314Y6426D01*
X38752Y3632D02*
X42520D01*
X60198Y19558D02*
X60655Y19101D01*
X47879Y19558D02*
X60198D01*
X45212Y16891D02*
X47879Y19558D01*
X49632Y15379D02*
X50356Y16104D01*
X50876D01*
X3886Y16510D02*
X7061D01*
X7468Y8763D02*
X8534Y9830D01*
Y15037D01*
X7061Y16510D02*
X8534Y15037D01*
X38583Y5901D02*
Y6189D01*
X35179Y5842D02*
X38236D01*
X48133Y33604D02*
Y35560D01*
Y33376D02*
Y33604D01*
Y33376D02*
X57182D01*
X45314Y6426D02*
X49979D01*
X50055Y6350D01*
X52426Y6130D02*
Y6248D01*
X38621Y3680D02*
X38621D01*
X35179Y5842D02*
X35270Y5933D01*
X75455Y17120D02*
X75514Y17060D01*
Y13868D02*
Y17060D01*
X4945Y8974D02*
X5207D01*
X60655Y15858D02*
X60842Y15672D01*
X60655Y15858D02*
Y19101D01*
X37313Y16891D02*
X45212D01*
X68555Y16866D02*
X68628Y16939D01*
X75455D02*
Y17120D01*
X38583Y15406D02*
X38633Y15355D01*
Y11557D02*
Y15355D01*
X38591Y8975D02*
X38633Y9017D01*
X53238Y15672D02*
X58742D01*
Y12878D02*
Y15672D01*
X52376Y11642D02*
X52426Y11592D01*
X49632Y11642D02*
X52376D01*
X49632D02*
Y15379D01*
X13894Y43332D02*
X15739D01*
X10033Y39472D02*
X13894Y43332D01*
X73330Y25679D02*
X74879Y27229D01*
X48133Y35560D02*
X48285Y35712D01*
X47177Y32648D02*
X48133Y33604D01*
X59766Y33809D02*
Y33909D01*
X59715Y33809D02*
Y33909D01*
X59815Y31040D02*
X59893Y30963D01*
X40437Y23546D02*
X48717D01*
X36601Y27381D02*
X40437Y23546D01*
X36601Y27381D02*
Y30707D01*
X47346Y25425D02*
X48285Y26365D01*
X41478Y25425D02*
X47346D01*
X38659Y28245D02*
X41478Y25425D01*
X48285Y26365D02*
Y28092D01*
X42316Y32648D02*
X47177D01*
X17839Y36548D02*
X20853Y33534D01*
X24162D01*
X26025Y35397D01*
X27550D01*
X77267Y21038D02*
X77555Y20750D01*
Y17120D02*
Y20750D01*
X77114Y37068D02*
Y39040D01*
X75870Y40284D02*
X77114Y39040D01*
X69859Y25679D02*
X73330D01*
X74879Y27229D02*
Y33223D01*
X73933Y34169D02*
X74879Y33223D01*
X72542Y34169D02*
X73933D01*
X69909Y34262D02*
X72542Y31629D01*
X69909Y34262D02*
Y40284D01*
X8738Y25857D02*
Y33401D01*
X8509Y33630D02*
X8738Y33401D01*
X6854Y23974D02*
X8738Y25857D01*
X23292D01*
X24155Y26721D01*
Y28846D01*
X24205Y28896D01*
X27076D01*
X27473Y28499D01*
Y22996D02*
Y28499D01*
X29650Y35458D02*
Y37846D01*
X29337D02*
X29650D01*
X59715Y33909D02*
X59766D01*
X59715Y33809D02*
X59766D01*
X59792Y40284D02*
X60062D01*
X56413D02*
X59792D01*
X77470Y17205D02*
X77555Y17120D01*
X64662Y33909D02*
X64922Y34169D01*
X59815Y33909D02*
X64662D01*
X50825Y25654D02*
Y28092D01*
X29886Y30886D02*
X30013Y30759D01*
X27457Y30886D02*
X29886D01*
X64649Y34442D02*
X64922Y34169D01*
X36539Y35391D02*
X36557Y35384D01*
X54635Y38506D02*
X56413Y40284D01*
X50825Y38506D02*
X54635D01*
X50825Y35712D02*
Y38506D01*
X44763D02*
X50825D01*
X62162Y40284D02*
X67809D01*
X44602Y38667D02*
X44763Y38506D01*
X44602Y38667D02*
Y41300D01*
X42602Y38567D02*
X42663Y38506D01*
X42602Y38567D02*
Y41300D01*
X65494Y31458D02*
X67809Y33773D01*
Y40284D01*
X36557Y35384D02*
X36601Y35263D01*
X20853Y30994D02*
X24098D01*
X34442Y32759D02*
X34490Y32807D01*
X36601D01*
X34442Y30759D02*
X36331D01*
X32013D02*
X34442D01*
X36440Y30868D02*
X36601Y30707D01*
X27407Y30936D02*
X27457Y30886D01*
X36601Y32807D02*
Y35263D01*
D16*
X57715Y30143D02*
Y33909D01*
X50063Y4826D02*
Y9449D01*
X80670Y23114D02*
X81940Y21844D01*
Y10998D02*
Y21844D01*
X74295Y3353D02*
X81940Y10998D01*
X58801Y3353D02*
X74295D01*
X51537D02*
X58801D01*
Y5198D01*
X50063Y4826D02*
X51537Y3353D01*
X74498Y23114D02*
X80670D01*
X73330Y24282D02*
X74498Y23114D01*
X73330Y24282D02*
Y25679D01*
X69859D02*
Y27753D01*
X67259Y30353D02*
X69859Y27753D01*
X63195Y30353D02*
X67259D01*
X62078Y29235D02*
X63195Y30353D01*
X58623Y29235D02*
X62078D01*
X57715Y30143D02*
X58623Y29235D01*
D17*
X52426Y6248D02*
X66192D01*
X69825Y9881D01*
Y15381D01*
D18*
X0Y49047D02*
X84506D01*
Y0D02*
Y49047D01*
X0Y0D02*
X84506D01*
X0D02*
Y49047D01*
D19*
X38633Y11557D02*
D03*
Y9017D02*
D03*
X32553Y22996D02*
D03*
X30013D02*
D03*
X27473D02*
D03*
X59893Y30963D02*
D03*
X30099Y27889D02*
D03*
X60655Y19101D02*
D03*
X49454Y24232D02*
D03*
X75514Y13868D02*
D03*
X35179Y5842D02*
D03*
X73914Y40208D02*
D03*
X29650Y37846D02*
D03*
X59792Y43002D02*
D03*
X42602Y41300D02*
D03*
X44602D02*
D03*
X36659Y38456D02*
D03*
X38659D02*
D03*
X34442Y30759D02*
D03*
Y32759D02*
D03*
X8509Y36170D02*
D03*
Y33630D02*
D03*
Y39446D02*
D03*
Y41986D02*
D03*
D20*
X5512Y8557D02*
D03*
Y13557D02*
D03*
Y18557D02*
D03*
Y23557D02*
D03*
Y28557D02*
D03*
D21*
X72542Y29089D02*
D03*
Y31629D02*
D03*
Y34169D02*
D03*
Y36709D02*
D03*
X64922Y29089D02*
D03*
Y31629D02*
D03*
Y34169D02*
D03*
X20853Y28454D02*
D03*
Y30994D02*
D03*
Y33534D02*
D03*
Y36074D02*
D03*
X13233Y28454D02*
D03*
Y30994D02*
D03*
Y33534D02*
D03*
X53365Y35712D02*
D03*
X50825D02*
D03*
X48285D02*
D03*
X45745D02*
D03*
X53365Y28092D02*
D03*
X50825D02*
D03*
X48285D02*
D03*
D22*
X64922Y36709D02*
D03*
X13233Y36074D02*
D03*
D23*
X38583Y18376D02*
D03*
X37313Y16891D02*
D03*
X38583Y15406D02*
D03*
X52146Y17589D02*
D03*
X50876Y16104D02*
D03*
X52146Y14619D02*
D03*
X69825Y18351D02*
D03*
X68555Y16866D02*
D03*
X69825Y15381D02*
D03*
D24*
X45745Y28092D02*
D03*
M02*
