M48
;Layer_Color=9474304
;FILE_FORMAT=4:3
METRIC,LZ
;TYPE=PLATED
T1F00S00C0.711
T2F00S00C0.800
T3F00S00C0.850
T4F00S00C0.900
;TYPE=NON_PLATED
T5F00S00C0.900
%
T01
X0050704Y0011557
X0061722Y0009652
X0071501Y0018034
X0042037Y0016053
X0041275Y0013335
X0037973Y0014859
X0038608Y0026543
X0004064Y0021463
T02
X0087491Y001209
X0088976Y001082
X0090461Y001209
X0075438Y0015279
X0076708Y0016764
X0075438Y0018249
X0062103Y0018337
X0063373Y0016852
X0062103Y0015367
T03
X0016002Y0005207
Y0007747
Y0010287
T04
X001143Y0002032
X00254Y0003683
X0038354Y0004572
X0089078Y0007366
X0090424Y0016764
Y0019304
X0094005Y0022352
X0067158Y001209
X0046989Y0009278
X0047955Y0018212
X0044958Y002286
X0020828Y0021082
Y0018542
X0020701Y0015621
Y0013081
T05
X0006426Y0016332
Y0020732
M30
